SplineFontDB: 3.0
FontName: GrazhdanskiyShrift
FullName: Grazhdanskiy Shrift
FamilyName: Grazhdanskiy Shrift
Weight: Regular
Copyright: Copyright (c) 2018, Context
UComments: "2018-4-19: Created with FontForge (http://fontforge.org)"
Version: 001.000
ItalicAngle: 0
UnderlinePosition: -100
UnderlineWidth: 50
Ascent: 800
Descent: 200
InvalidEm: 0
LayerCount: 2
Layer: 0 0 "Back" 1
Layer: 1 0 "Fore" 0
XUID: [1021 1017 285194369 3308]
FSType: 0
OS2Version: 0
OS2_WeightWidthSlopeOnly: 0
OS2_UseTypoMetrics: 1
CreationTime: 1524147800
ModificationTime: 1525013358
PfmFamily: 17
TTFWeight: 400
TTFWidth: 5
LineGap: 90
VLineGap: 0
OS2TypoAscent: 0
OS2TypoAOffset: 1
OS2TypoDescent: 0
OS2TypoDOffset: 1
OS2TypoLinegap: 90
OS2WinAscent: 0
OS2WinAOffset: 1
OS2WinDescent: 0
OS2WinDOffset: 1
HheadAscent: 0
HheadAOffset: 1
HheadDescent: 0
HheadDOffset: 1
OS2Vendor: 'Cont'
Lookup: 1 0 0 "'ss01' Style Set 1 lookup 0" { "'ss01' Style Set 1 lookup 0-1" ("ss01") } ['ss01' ('DFLT' <'dflt' > 'cyrl' <'dflt' > 'latn' <'dflt' > ) ]
MarkAttachClasses: 1
DEI: 91125

StartChar: uni041D
Encoding: 189 1053 0
Width: 911
VWidth: 0
Flags: HW
LayerCount: 2
Back
SplineSet
611 690 m 5
 814 690 l 5
 818 685 821 680 821 673 c 4
 821 667 818.37260274 656.460273973 814 656 c 6
 776 652 l 6
 759.967123288 650.312328767 753 638 753 617 c 6
 753 73 l 6
 753 51 759.967123288 39.6876712329 776 38 c 6
 814 34 l 6
 818.37260274 33.5397260274 821 23 821 17 c 4
 821 10 818 5 814 0 c 5
 611 0 l 5
 606 5 604 12 604 17 c 4
 604 23.375 606.610279766 33.5497722837 611 34 c 6
 650 38 l 6
 666.036434613 39.6447625244 672 49 672 73 c 6
 672 617 l 6
 672 641 666.035154419 650.355368778 650 652 c 6
 611 656 l 6
 606.544989862 656.456924117 604 666.625 604 673 c 4
 604 678 606 685 611 690 c 5
98 690 m 1
 301 690 l 1
 305 685 308 680 308 673 c 0
 308 667 305.37260274 656.460273973 301 656 c 2
 263 652 l 2
 246.967123288 650.312328767 240 639 240 617 c 2
 240 73 l 2
 240 52 246.967123288 39.6876712329 263 38 c 2
 301 34 l 2
 305.37260274 33.5397260274 308 23 308 17 c 0
 308 10 305 5 301 0 c 1
 97 0 l 1
 92.625 5 90 12 90 17 c 0
 90 23.375 93.1357066911 33.5932322833 97 34 c 2
 136 38 l 2
 152.033628406 39.6877503585 158 49 158 73 c 2
 158 617 l 2
 158 641 152.029372708 650.31269761 136 652 c 2
 98 656 l 2
 94.0760311559 656.413049352 91 666.625 91 673 c 0
 91 678 93.625 685 98 690 c 1
EndSplineSet
Fore
SplineSet
210 361 m 5
 704 361 l 5
 704 322 l 5
 210 322 l 5
 210 361 l 5
EndSplineSet
Refer: 11 1048 S 1 0 0 1 514 0 2
Refer: 11 1048 S 1 0 0 1 0 0 2
Substitution2: "'ss01' Style Set 1 lookup 0-1" uni041D.ss01
EndChar

StartChar: uni0412
Encoding: 178 1042 1
Width: 665
VWidth: 0
Flags: HW
LayerCount: 2
Back
SplineSet
98 690 m 5
 240 690 l 5
 240 0 l 5
 97 0 l 5
 92.625 5 90 12 90 17 c 4
 90 23.375 93.1273320616 34 97 34 c 6
 148 34 l 6
 154 34 158 38 158 44 c 6
 158 646 l 6
 158 652 154 656 148 656 c 6
 98 656 l 6
 94.067929362 656 91 666.625 91 673 c 4
 91 678 93.625 685 98 690 c 5
EndSplineSet
Fore
SplineSet
98 690 m 1
 240 690 l 1
 240 0 l 1
 97 0 l 1
 92.625 5 90 12 90 17 c 0
 90 23.375 93.1273320616 34 97 34 c 2
 148 34 l 2
 154 34 158 38 158 44 c 2
 158 646 l 2
 158 652 154 656 148 656 c 2
 98 656 l 2
 94.067929362 656 91 666.625 91 673 c 0
 91 678 93.625 685 98 690 c 1
311 690 m 0
 382 690 548.968871966 665.941646853 545 531 c 0
 543 463 498 401 425 371 c 1
 511 355 588 287 588 185 c 0
 588 113 552.976227605 59.0490800507 491 29 c 0
 458 13 424 -1.28785870857e-014 302 0 c 0
 158 0 l 1
 158 690 l 1
 311 690 l 0
240 654 m 1
 240 386 l 1
 336 386 l 2
 387 386 455 437 455 521 c 0
 455 594 395 657 303 657 c 1
 240 654 l 1
240 28 m 1
 303 28 l 2
 397 28 499 72 499 183 c 0
 499 285 431 346 315 346 c 2
 240 346 l 1
 240 28 l 1
EndSplineSet
Substitution2: "'ss01' Style Set 1 lookup 0-1" uni0412.ss01
EndChar

StartChar: uni0413
Encoding: 179 1043 2
Width: 627
VWidth: 0
Flags: HW
LayerCount: 2
Back
SplineSet
98 690 m 1
 240 690 l 1
 240 0 l 1
 97 0 l 1
 92.625 5 90 12 90 17 c 0
 90 23.375 93.1357066911 33.5932322833 97 34 c 6
 136 38 l 2
 152.033628406 39.6877503585 158 49 158 73 c 2
 158 617 l 2
 158 641 152.029372708 650.31269761 136 652 c 2
 98 656 l 2
 94.0760311559 656.413049352 91 666.625 91 673 c 0
 91 678 93.625 685 98 690 c 1
EndSplineSet
Fore
SplineSet
98 690 m 5
 240 690 l 5
 240 0 l 5
 97 0 l 5
 92.625 5 90 12 90 17 c 4
 90 23.375 93.1273320616 34 97 34 c 6
 148 34 l 6
 154 34 158 38 158 44 c 6
 158 646 l 6
 158 652 154 656 148 656 c 6
 98 656 l 6
 94.067929362 656 91 666.625 91 673 c 4
 91 678 93.625 685 98 690 c 5
544 709 m 0
 559 709 562.764584347 694.941662613 577 638 c 0
 584.735327542 607.058689832 588.39490456 581.79824665 588.39490456 566.000001352 c 3
 588.39490456 554.48773114 586.603748572 548.000000488 583.12057036 548.000000488 c 3
 577.17112822 548.000000488 566.965006808 556.337411657 552 584 c 0
 522.437578005 638.645689143 499.224761049 650 397 650 c 0
 240 650 l 1
 240 73 l 2
 240 52.5619486552 246.963565387 39.6447625244 263 38 c 2
 302 34 l 2
 306.364346129 33.552374756 309 23 309 17 c 0
 309 10 306 5 302 0 c 1
 158 0 l 1
 158 690 l 1
 238 690 l 2
 397 690 485.733384694 691.577794898 529 706 c 0
 535 708 540 709 544 709 c 0
EndSplineSet
Substitution2: "'ss01' Style Set 1 lookup 0-1" uni0413.ss01
EndChar

StartChar: uni0415
Encoding: 181 1045 3
Width: 678
VWidth: 0
Flags: HW
LayerCount: 2
Fore
SplineSet
98 690 m 1
 240 690 l 1
 240 0 l 1
 97 0 l 1
 93 5 90 12 90 17 c 0
 90 23 93 34 97 34 c 2
 148 34 l 2
 154 34 158 38 158 44 c 2
 158 646 l 2
 158 652 154 656 148 656 c 2
 98 656 l 2
 94 656 91 667 91 673 c 0
 91 678 94 685 98 690 c 1
484 703 m 1
 505 655 l 2
 526 606 536 579 536 566 c 0
 536 557 532 555 524 555 c 0
 514 555 496 575 484 599 c 0
 459 648 439 657 348 657 c 0
 275 657 246 646 240 623 c 1
 240 357 l 1
 359 357 l 2
 394 357 396 373 408 398 c 1
 412 417 419 424 428 424 c 0
 440 424 447 421 447 408 c 2
 447 262 l 2
 447 250 440 246 428 246 c 0
 415 246 413 259 408 278 c 0
 403 298 395 312 359 312 c 2
 240 312 l 1
 240 28 l 1
 296 28 l 1
 355 31 l 1
 489 41 518 55 562 117 c 0
 577 138 595 156 604 156 c 0
 613 156 618 154 618 148 c 0
 618 138 607 117 582 71 c 2
 546 3 l 1
 343 0 l 1
 158 0 l 1
 158 690 l 1
 221 690 l 2
 253 690 292 695 340 697 c 2
 484 703 l 1
EndSplineSet
Substitution2: "'ss01' Style Set 1 lookup 0-1" uni0415.ss01
EndChar

StartChar: uni0416
Encoding: 182 1046 4
Width: 879
VWidth: 0
Flags: HW
LayerCount: 2
Back
SplineSet
334 690 m 5
 537 690 l 5
 541 685 544 680 544 673 c 4
 544 667 541.37260274 656.460273973 537 656 c 6
 499 652 l 6
 482.967123288 650.312328767 476 639 476 617 c 6
 476 73 l 6
 476 52 482.967123288 39.6876712329 499 38 c 6
 537 34 l 6
 541.37260274 33.5397260274 544 23 544 17 c 4
 544 10 541 5 537 0 c 5
 333 0 l 5
 328.625 5 326 12 326 17 c 4
 326 23.375 329.135706691 33.5932322833 333 34 c 6
 372 38 l 6
 388.033628406 39.6877503585 394 49 394 73 c 6
 394 617 l 6
 394 641 388.029372708 650.31269761 372 652 c 6
 334 656 l 6
 330.076031156 656.413049352 327 666.625 327 673 c 4
 327 678 329.625 685 334 690 c 5
EndSplineSet
Fore
SplineSet
604 440 m 0
 702.56711885 347.320376247 766 231.895316804 766 87 c 2
 766 44 l 1
 766 38 770 34 776 34 c 1
 822 34 l 2
 828.047604537 34 829 24 829 17 c 0
 829 9 826 4 822 0 c 1
 633 0 l 1
 629 4 625 10 625 17 c 0
 625 26 626.962111303 34 633 34 c 2
 665 34 l 2
 671 34 675 38 675 44 c 0
 675 89 l 2
 675 207 628.796540699 290.505381388 589 358 c 0
 510.313669099 473.441953922 421.295673888 545.019185045 298 608 c 0
 257.795022735 629.268013499 238.909090909 639 223 639 c 3
 184 639 171 624 170 588 c 0
 169 552 155 549 135 549 c 0
 113 549 98 557 98 583 c 0
 98 643 141 673 209 673 c 3
 242.709677419 673 278.335943789 655.488282787 319 635 c 0
 402.291034252 593.034430838 525.258968194 514.037765199 604 440 c 0
265 358 m 0
 228.443278497 292.238262546 209 160 209 74 c 2
 209 0 l 1
 62 0 l 0
 56 0 50 9 50 17 c 0
 50 24.4375 54.9756567473 34 62 34 c 2
 89 34 l 2
 114.308526871 34 118.012887134 56.0613191233 122 117 c 0
 130 239.271293375 168.651743421 356.192768949 248 440 c 0
 308.233299096 503.618108726 467 594 551 635 c 0
 604.985551336 661.350090533 645 673 686 673 c 0
 757 673 789 618 789 583 c 0
 789 557 780 549 746 549 c 0
 727 549 715 559 715 588 c 0
 715 625 696 637 654 637 c 3
 631 637 606.80032201 625.583792524 571 608 c 0
 453.869534157 550.469852392 333.163103115 480.618328633 265 358 c 0
EndSplineSet
Refer: 11 1048 N 1 0 0 1 236 0 2
Substitution2: "'ss01' Style Set 1 lookup 0-1" uni0416.ss01
EndChar

StartChar: uni0414
Encoding: 180 1044 5
Width: 719
VWidth: 0
Flags: HW
LayerCount: 2
Fore
SplineSet
398 690 m 5
 601 690 l 5
 605 685 608 680 608 673 c 4
 608 667 605.381630826 656 601 656 c 6
 550 656 l 6
 544 656 540 652 540 646 c 6
 540 580 l 5
 458 580 l 5
 458 646 l 6
 458 652 454 656 448 656 c 6
 398 656 l 6
 394.067929362 656 391 666.625 391 673 c 4
 391 678 393.625 685 398 690 c 5
540 580 m 25
 540 39 l 1
 645 39 l 1
 644 -9 l 2
 643.24989154 -45.0052060738 636.019992006 -64.9800079936 611 -90 c 0
 593 -108 572 -124 564 -124 c 0
 554.73954284 -124 550.321289062 -123.35678795 550.321289062 -118 c 3
 550.321289062 -111.787996386 558.227000434 -99.3912691133 573 -74 c 0
 583.503646712 -55.9467319991 593 -42.3108680211 593 -31.99609375 c 3
 593 -10.8866243234 574.299236049 -1 497 -1 c 0
 479.597365944 -1 411.035087719 0 397 0 c 1
 382 0 366 0 350 0 c 0
 157.176551079 0 80.999999916 -0.896529765958 80.999999916 -24.5987094226 c 3
 80.999999916 -36.2979696806 87.0694794783 -53.6042192174 104 -79 c 0
 115.482613412 -96.2239201179 122.354510385 -108.613325174 122.354510385 -115.999994359 c 3
 122.354510385 -121.110812288 120.320906773 -124.09196754 116 -124.09196754 c 3
 110.249918605 -124.09196754 100.449213296 -120.458076076 86 -112 c 1
 86 -112 l 1
 54.2953593142 -93.7866957763 32.4457396302 -37.8050384498 32.4457396302 0.999999016059 c 3
 32.4457396302 19.7208227947 38.0466399234 34.2186559694 50 39 c 0
 60 43 86.0075570891 45.4104501818 109 46 c 0
 148 47 156 53 241 168 c 1
 458 503 l 1
 458 580 l 25
 540 580 l 25
458 439 m 1
 202 45 l 1
 235 38 259 34 330 34 c 2
 413 34 l 1
 436 37 l 2
 451.988847584 39.0855018587 458 48 458 72 c 2
 458 439 l 1
EndSplineSet
Substitution2: "'ss01' Style Set 1 lookup 0-1" uni0414.ss01
EndChar

StartChar: uni0410
Encoding: 176 1040 6
Width: 819
VWidth: 0
Flags: HW
LayerCount: 2
Fore
SplineSet
491 296 m 0
 470 352 l 0
 420 487 405 520 398 520 c 0
 389 520 296 304 290 292 c 1
 295 292 324 291 359 291 c 0
 415 291 487 292 491 296 c 0
60 0 m 2
 57 3 55 8 55 12 c 3
 55 20 60 27 67 27 c 0
 77 27 94 28 106 36 c 0
 111 40 124 56 138 84 c 2
 369 569 l 2
 382 597 415 671 421 671 c 0
 425 671 443 633 471 567 c 2
 674 88 l 0
 697 36 708 34 727 34 c 0
 748 34 759 28 759 17 c 0
 759 4 756 -0 745 0 c 2
 615 0 l 1
 506 255 l 1
 480 257 444 255 388 257 c 2
 274 261 l 1
 185 76 l 2
 179 62 178 50 178 42 c 3
 178 32 181 25 188 24 c 2
 207 22 l 2
 211 21 215 18 215 12 c 3
 215 6 212 -0 206 0 c 2
 60 0 l 2
EndSplineSet
Validated: 33
Substitution2: "'ss01' Style Set 1 lookup 0-1" uni0410.ss01
EndChar

StartChar: uni0411
Encoding: 177 1041 7
Width: 831
VWidth: 0
Flags: HW
LayerCount: 2
Fore
SplineSet
653 319 m 3
 653 470.6125 573 630 412 630 c 3
 255 630 167 484.35483871 167 329 c 3
 167 172.993485342 243 18 413 18 c 3
 583 18 653 152.791245791 653 319 c 3
80 323 m 7
 80 594 162.359725613 799.125999064 327 892 c 4
 366 914 400 926 434 926 c 7
 469 926 503.938316791 913.892390405 544 891 c 4
 579 871 604 861 624 861 c 7
 646 861 660.743488018 875.110022441 672 901 c 4
 682 924 695 937 705 937 c 7
 712 937 718 930 718 915 c 4
 718 878 683.20344802 800.60172401 660 789 c 4
 644 781 625 777 605 777 c 7
 571 777 533.391450198 788.631291184 495 812 c 4
 449 840 410 854 375 854 c 7
 330 854 292.934703605 831.042580536 261 782 c 4
 233 739 191 581 191 556 c 5
 239 602.576576577 311 666 428 666 c 4
 619 666 751 541.363372093 751 323 c 7
 751 129 599 -18 409 -18 c 7
 226 -18 80 110 80 323 c 7
EndSplineSet
Validated: 1
Substitution2: "'ss01' Style Set 1 lookup 0-1" uni0411.ss01
EndChar

StartChar: uni041A
Encoding: 186 1050 8
Width: 752
VWidth: 0
Flags: HW
LayerCount: 2
Fore
SplineSet
263 335 m 2
 208 335 l 1
 208 375 l 1
 282 375 l 2
 379.706163895 375 420.600835755 292.417284007 492 181 c 0
 549.241258869 89.048727662 574.733441176 48.5263671875 603 48.5263671875 c 3
 631.673123575 48.5263671875 676.831915045 59.62109375 690 59.62109375 c 3
 695.205313355 59.62109375 702 56.4323615219 702 51 c 3
 702 47.7154351406 699.067294097 43.685009491 694 39.275390625 c 0
 670.410907122 18.747884821 600.565627056 -10 565 -10 c 0
 503.867924528 -10 452.963317511 26.7888839854 403 148 c 0
 379.387727113 205.283424939 313.089492992 335 263 335 c 2
436 562 m 2
 282 375 l 1
 263 335 l 1
 208 335 l 1
 208 375 l 1
 240 375 l 1
 398 576 l 2
 420.96950579 605.220700404 434.58984375 623.473945803 434.58984375 638.658203125 c 0
 434.58984375 645.473797003 428.249272135 656 409.353515625 656 c 2
 407 656 l 2
 400.528092925 656 397 667 397 673 c 0
 397 679 401.172796429 686.575642685 407 690 c 1
 588 690 l 0
 593.641025783 690 598 682.137588839 598 673 c 0
 598 662.793821478 594.206896552 656 588 656 c 2
 559 656 l 2
 546.44720356 656 526.590182655 643.501788922 514 632.799804688 c 0
 492.947931446 616.281520052 464.457044674 593.896907216 436 562 c 2
EndSplineSet
Refer: 11 1048 N 1 0 0 1 0 0 2
Substitution2: "'ss01' Style Set 1 lookup 0-1" uni041A.ss01
EndChar

StartChar: uni041E
Encoding: 190 1054 9
Width: 867
VWidth: 0
Flags: HW
LayerCount: 2
Back
SplineSet
700.9921875 320.985351562 m 4
 700.9921875 517.985351562 582.38228741 672 419.4375 672 c 4
 285.769399769 672 165.9921875 582.026367188 165.9921875 366.78125 c 4
 165.9921875 189.607421875 284.702113942 18 439.13671875 18 c 4
 630.406279315 18 700.9921875 164.436523438 700.9921875 320.985351562 c 4
79.9921875 345.251953125 m 4
 79.9921875 551.69140625 186.30385041 708 438.606445312 708 c 4
 626.84840274 708 786.9921875 542.5 786.9921875 340.5 c 4
 786.9921875 134.532226563 658.411573763 -18 439.239257812 -18 c 4
 216.078125 -18 79.9921875 165.196289062 79.9921875 345.251953125 c 4
EndSplineSet
Fore
SplineSet
700.954101562 321 m 4
 700.954101562 518 628.16015625 672 419.955078125 672 c 4
 286.287109375 672 165.954101562 520.309570312 165.954101562 367 c 4
 165.954101562 152.903320312 284.51953125 18 438.955078125 18 c 4
 613.549804688 18 700.954101562 164.452148438 700.954101562 321 c 4
79.955078125 345 m 4
 79.955078125 534.763671875 211.665039062 708 438.955078125 708 c 4
 627.196289062 708 786.955078125 555.1015625 786.955078125 340 c 4
 786.955078125 147.133789062 654.598632812 -18 444.955078125 -18 c 4
 240.850585938 -18 79.955078125 155.415039062 79.955078125 345 c 4
EndSplineSet
Validated: 1
Substitution2: "'ss01' Style Set 1 lookup 0-1" uni041E.ss01
EndChar

StartChar: uni0417
Encoding: 183 1047 10
Width: 585
VWidth: 0
Flags: HW
LayerCount: 2
Fore
SplineSet
176 21 m 0
 159 32 147 38 139 38 c 3
 129 38 125 31 125 16 c 0
 125 3 117 -6 108 -6 c 0
 94 -6 91 11 91 84 c 0
 91 134 90 178 90 183 c 0
 90 188 95 195 101 195 c 0
 107 195 116 185 120 167 c 0
 133 112 163 71 206 49 c 0
 234 35 263 28 290 28 c 3
 367 28 430 84.5333333333 430 172 c 0
 430 231.571428571 380 279.462184874 299 311 c 0
 196 347.75879397 125 387.668341709 125 520 c 3
 125 641.460674157 203 708 308 708 c 3
 329 708 350 705 371 699 c 0
 382 696 392 695 399 695 c 3
 407 695 412 696 414 699 c 0
 418 705 427 709 436 709 c 0
 449 709 453 691 453 624 c 0
 453 564 449 542 440 542 c 0
 433 542 425 556 423 568 c 0
 412 643 377 678 312 678 c 0
 234 678 180 617.52 180 543 c 3
 180 455.571428571 237 430.746031746 302 407 c 0
 340 392.571428571 438 347.065934066 464 306 c 0
 486 272.280701754 495 227.684210526 495 182 c 3
 495 62.6281182912 413.032389323 -18 304 -18 c 3
 256 -18 203 3 176 21 c 0
EndSplineSet
Validated: 1
Substitution2: "'ss01' Style Set 1 lookup 0-1" uni0417.ss01
EndChar

StartChar: uni0418
Encoding: 184 1048 11
Width: 398
VWidth: 0
Flags: HW
LayerCount: 2
Fore
SplineSet
98 690 m 1
 301 690 l 1
 305 685 308 680 308 673 c 0
 308 667 305.381630826 656 301 656 c 2
 250 656 l 2
 244 656 240 652 240 646 c 2
 240 44 l 6
 240 38 244 34 250 34 c 6
 301 34 l 6
 305.381630825 34 308 23 308 17 c 4
 308 10 305 5 301 0 c 5
 97 0 l 5
 92.625 5 90 12 90 17 c 4
 90 23.375 93.1273320616 34 97 34 c 6
 148 34 l 6
 154 34 158 38 158 44 c 6
 158 646 l 2
 158 652 154 656 148 656 c 2
 98 656 l 2
 94.067929362 656 91 666.625 91 673 c 0
 91 678 93.625 685 98 690 c 1
EndSplineSet
Substitution2: "'ss01' Style Set 1 lookup 0-1" uni0418.ss01
EndChar

StartChar: uni041B
Encoding: 187 1051 12
Width: 891
VWidth: 0
Flags: HW
LayerCount: 2
Fore
SplineSet
64 3 m 0
 54 13 50 25 50 35 c 3
 50 57 70 75 99 75 c 3
 104 75 109 74 114 73 c 0
 120 72 127 72 132 72 c 3
 146 72 156 77 166 88 c 0
 190 115 244 223 340 440 c 0
 385 541 405 593 405 621 c 3
 405 645 390 651 361 656 c 0
 344 659 325 668 325 677 c 0
 325 686.222597604 331.039501058 689.40569415 355.972323482 689.40569415 c 0
 366.184338273 689.40569415 379.565835097 688.871708245 397 688 c 2
 475 685 l 1
 698 169 l 0
 756 34 763 23 787 23 c 3
 792 23 797 23 804 23 c 0
 830 23 841 19 841 13 c 3
 841 5 817 -6 778 -8 c 0
 765 -9 754 -9 744 -9 c 3
 680 -9 668 13 614 143 c 0
 494 431 446 548 446 551 c 0
 446 553 443 555 438 555 c 0
 433 555 414 520 396 478 c 0
 325 311 197 61 165 26 c 0
 143 2 118 -10 97 -10 c 3
 85 -10 73 -6 64 3 c 0
EndSplineSet
Validated: 1
Substitution2: "'ss01' Style Set 1 lookup 0-1" uni041B.ss01
EndChar

StartChar: uni041C
Encoding: 188 1052 13
Width: 1016
VWidth: 0
Flags: HW
LayerCount: 2
Fore
SplineSet
800 690 m 1
 919 690 l 1
 923 685 926 680 926 673 c 0
 926 667 923.381630826 656 919 656 c 2
 868 656 l 2
 862 656 858 652 858 646 c 2
 858 44 l 2
 858 38 862 34 868 34 c 2
 919 34 l 2
 923.381630825 34 926 23 926 17 c 0
 926 10 923 5 919 0 c 1
 715 0 l 1
 710.625 5 708 12 708 17 c 0
 708 23.375 711.127332062 34 715 34 c 2
 766 34 l 2
 772 34 776 38 776 44 c 2
 776 641 l 1
 800 690 l 1
90 17 m 0
 90 23 93.6869303996 34 97 34 c 2
 120 34 l 2
 160 34 167.015001595 47.4662115923 169.951171875 73 c 0
 175.839305493 124.204917837 179.621810101 216.852441815 182.127915829 320.999994631 c 0
 186.227155825 586 l 3
 186.227155825 637.736144257 177 656 123 656 c 2
 97 656 l 1
 92.2256826016 661.044211696 90 667 90 673 c 0
 90 679 93.1925878458 685.479506107 97 690 c 1
 194 690 l 2
 270 690 l 1
 518 339 l 1
 719.467405755 622.000000001 l 2
 766.555692713 688.144621058 778.307489421 690 800 690 c 1
 858 690 l 1
 858 0 l 1
 776 0 l 1
 776 641 l 1
 485 232 l 1
 220 602 l 1
 220 316 l 0
 220 179.757322176 220.916362602 109.406435887 223 73 c 0
 224.531373151 46.2430227549 233 34 245 34 c 1
 269 34 l 2
 273.971839711 34 276 23 276 17 c 0
 276 11 272.764705882 3.1875 269 0 c 1
 97 0 l 1
 93.75 3.4 90 11 90 17 c 0
EndSplineSet
Substitution2: "'ss01' Style Set 1 lookup 0-1" uni041C.ss01
EndChar

StartChar: uni0445
Encoding: 229 1093 14
Width: 610
VWidth: 0
Flags: HW
LayerCount: 2
Fore
SplineSet
90 16 m 0
 90 22 94 32 100 32 c 2
 122.397460938 32 l 2
 140.44921875 32 156.425462347 33.9310749778 173.868164062 53.40234375 c 0
 183.029296875 63.62890625 195.148179446 79.0272176354 207.905273438 97.24609375 c 2
 266.33203125 180.6875 l 1
 183 315 l 2
 168.422683462 338.495357046 154 352 134 352 c 1
 120 352 l 1
 114 352 110.038085938 362 110.038085938 368 c 0
 110.038085938 374 114 384 120 384 c 2
 196.732421875 384 l 2
 207.955882415 384 218.384676312 378.270506854 233 356 c 2
 321.157226562 221.66796875 l 1
 399.637695312 334.211914062 l 2
 406.242527778 343.68349235 405.402110425 350.623803464 403.654296875 352.423828125 c 0
 397.072441111 359.202298686 394 363.102710089 394 368 c 0
 394 374 397.600640733 384 404.00390625 384 c 0
 497 384 l 0
 503 384 507 374 507 368 c 0
 507 362 503 352 497 352 c 1
 488.1015625 352 l 2
 464.954101562 352 432.364942284 339.621697014 419.465820312 321.3515625 c 2
 334.5390625 201.0625 l 1
 401.732421875 97.59375 l 2
 431.675619604 51.4852465882 447.579101562 32 481.950195312 32 c 2
 510 32 l 0
 516 32 520 22 520 16 c 0
 520 10 516 -7.34763812293e-016 510 0 c 2
 384.076171875 0 l 1
 278.905273438 161.326171875 l 1
 230.166992188 91.7197265625 l 2
 216.644757089 72.9920709706 210.32770126 59.8050297009 204.123046875 49.345703125 c 0
 199.671550777 38.0708691678 203 32 209 32 c 1
 220 32 l 1
 226 32 230 22 230 16 c 0
 230 10 226 -7.34763812293e-016 220 0 c 2
 152.532226562 0 l 1
 100 0 l 2
 94 0 90 10 90 16 c 0
EndSplineSet
Substitution2: "'ss01' Style Set 1 lookup 0-1" uni0445.ss01
EndChar

StartChar: exclam
Encoding: 33 33 15
Width: 411
Flags: HW
HStem: -8 110<193 222.5> 661 20G 694 20G
VStem: 150 116<30 60.5> 185 45
LayerCount: 2
Fore
SplineSet
264 683 m 0xe8
 251 560 236 381 230 231 c 1
 218 226 202 225 185 225 c 1
 174 416 163 543 145 681 c 1
 172 687 224 702 246 714 c 1
 258.25 709.625 264.375 702.1875 264.375 689.0078125 c 0
 264.375 687.125 264.25 685.125 264 683 c 0xe8
266 50 m 0xf0
 266 10 238 -8 207 -8 c 0
 171 -8 150 14 150 45 c 0
 150 76 175 102 211 102 c 0
 245 102 266 73 266 50 c 0xf0
EndSplineSet
Validated: 1
EndChar

StartChar: quotedbl
Encoding: 34 34 16
Width: 343
Flags: HW
HStem: 694 20G
VStem: 79 39 224 41
LayerCount: 2
Fore
SplineSet
136 681 m 0
 135 677 135 672 134 667 c 0
 128 614 124 554 118 479 c 1
 105 479 85 482 79 488 c 1
 76 557 70 628 60 693 c 1
 78 696 103 704 116 714 c 1
 128.570820663 711.306252715 136.304125036 701.356230995 136.304125036 686.321775901 c 0
 136.304125036 684.61250543 136.204168477 682.83751629 136 681 c 0
283 687 m 2
 283 681 l 1
 276 624 271 563 265 478 c 1
 251 478 231 481 224 487 c 1
 221 556 216 628 206 693 c 1
 224 696 249 705 263 714 c 1
 275 711 283 702 283 687 c 2
EndSplineSet
Validated: 1
EndChar

StartChar: numbersign
Encoding: 35 35 17
Width: 592
Flags: W
HStem: -8 21G<146 146 354 354> 214 49<320.5 353 411 508> 443 49<252 401 95 241 459 484 484 550> 694 20
VStem: 30 532<212 492>
LayerCount: 2
Fore
SplineSet
484 443 m 1
 449 443 l 1
 411 263 l 1
 520 263 l 1
 520 243 518 232 508 214 c 1
 411 214 l 1
 401 214 l 1
 354 -8 l 1
 329 -4 320 3 310 14 c 1
 353 214 l 1
 288 214 236 214 193 213 c 1
 146 -8 l 1
 124 -5 111 3 103 18 c 1
 144 213 l 1
 86 212 52 212 30 212 c 1
 30 227 34 246 42 263 c 1
 155 263 l 1
 193 442 l 1
 154 442 118 442 83 441 c 1
 83 456 86 475 95 492 c 1
 204 492 l 1
 251 714 l 1
 269 711 283 706 294 692 c 1
 252 492 l 1
 412 492 l 1
 459 714 l 1
 479 710 493 704 502 694 c 1
 459 492 l 1
 562 492 l 1
 562 472 560 460 550 443 c 1
 484 443 l 1
363 263 m 1
 401 443 l 1
 241 443 l 1
 203 263 l 1
 363 263 l 1
EndSplineSet
Validated: 1
EndChar

StartChar: dollar
Encoding: 36 36 18
Width: 552
Flags: W
HStem: -8 47<300 300> 640 44<300 300>
VStem: 77 54 80 87<512 557> 255 44<235.5 278 235.5 299 235.5 299 418 436.5> 413 86<136 178>
LayerCount: 2
Fore
SplineSet
499 183 m 0xdc
 499 89 438 3 300 -8 c 1
 300 -34 301 -61 301 -91 c 1
 286 -91 264 -86 255 -80 c 1
 255 -9 l 1
 181 -6 128 19 68 55 c 1
 76 105 77 160 77 197 c 1
 92 201 114 203 131 203 c 1xec
 136 111 170 52 255 41 c 1
 255 299 l 1
 169 340 80 385 80 505 c 0
 80 609 146 675 255 684 c 1
 255 744 l 1
 275 744 287 742 301 733 c 1
 301 717 300 701 300 684 c 1
 362 681 416 662 448 641 c 1
 448 602 449 545 454 509 c 1
 439 503 416 500 398 500 c 1
 380 602 348 634 300 640 c 1
 299 560 299 478 299 395 c 1
 392 350 499 308 499 183 c 0xdc
167 542 m 0
 167 482 205 447 255 418 c 1
 255 639 l 1
 199 632 167 597 167 542 c 0
300 39 m 1
 381 44 413 88 413 143 c 0
 413 213 361 248 299 278 c 1
 299 193 299 122 300 39 c 1
EndSplineSet
Validated: 1
EndChar

StartChar: percent
Encoding: 37 37 19
Width: 863
Flags: W
HStem: -8 42<597 640.5 597 666.5> 268 42<592 637.5> 359 42<227 270.5 227 296.5> 635 42<222 267.5> 657 20
VStem: 90 77<489 555> 327 76<481 548> 460 77<122 188> 697 76<114 181>
LayerCount: 2
Fore
SplineSet
174 -7 m 1xf780
 156 3 142 17 138 30 c 1
 691 686 l 1
 710 682 721 671 733 657 c 1xef80
 174 -7 l 1xf780
246 359 m 0
 142 359 90 436 90 512 c 0
 90 598 146 677 256 677 c 0
 353 677 403 598 403 526 c 0
 403 436 347 359 246 359 c 0
254 401 m 0
 287 401 327 438 327 512 c 0
 327 584 292 635 243 635 c 0
 201 635 167 588 167 525 c 0
 167 453 200 401 254 401 c 0
616 -8 m 0
 512 -8 460 69 460 145 c 0
 460 231 516 310 626 310 c 0
 723 310 773 231 773 159 c 0
 773 69 717 -8 616 -8 c 0
624 34 m 0
 657 34 697 71 697 145 c 0
 697 217 662 268 613 268 c 0
 571 268 537 221 537 158 c 0
 537 86 570 34 624 34 c 0
EndSplineSet
Validated: 1
EndChar

StartChar: ampersand
Encoding: 38 38 20
Width: 742
Flags: HW
HStem: -10 77<242 305> 10 45 420 41 662 20G 673 44<277 327>
VStem: 54 84<181.5 254.5> 142 79<557.5 606> 384 53 550.6 116.4
LayerCount: 2
Fore
SplineSet
572 102 m 0x6b80
 605 67 627 59 687 55 c 1
 687 42 686 24 681 10 c 1x6d
 643 10 568 1 535 -9 c 1
 509 26 483 58 457 89 c 1
 400 19 342 -10 268 -10 c 0
 108 -10 54 106 54 208 c 0xad
 54 301 110 372 182 421 c 1
 156 468 142 514 142 568 c 0
 142 644 201 717 306 717 c 0xab
 363 717 400 706 442 682 c 1xb5
 438.291713066 656.041991463 436.23359317 626.23359317 436.23359317 596.246380842 c 0
 436.23359317 585.80089087 436.483314774 575.333704529 437 565 c 1
 421 558 400 557 384 557 c 1
 379 642 354 673 300 673 c 0
 254 673 221 641 221 587 c 0
 221 528 238 487 315 391 c 0
 348 350 391 298 485 196 c 1
 518 251 537 293 547 334 c 0
 549.555636658 344.222546634 550.913228106 353.169754817 550.913228106 361.054352866 c 0
 550.913228106 393.277089441 528.238879532 407.752224094 472 419 c 1
 468 432 465 448 465 461 c 1
 493 459 534 458 567 458 c 0
 600 458 644 459 667 461 c 1
 667 449 666 432 663 420 c 1
 622 405 607 385 594 338 c 0
 578 281 556 230 517 161 c 1
 534 143 552 123 572 102 c 0x6b80
281 67 m 0xad
 336 67 378 84 424 127 c 1
 371 188 318 245 265 307 c 0
 241 336 220 362 202 389 c 1
 167 352 138 305 138 237 c 0
 138 126 203 67 281 67 c 0xad
EndSplineSet
Validated: 1
EndChar

StartChar: quotesingle
Encoding: 39 39 21
Width: 198
Flags: W
HStem: 694 20G
VStem: 80 40
LayerCount: 2
Fore
SplineSet
138 690 m 2
 138 681 l 1
 130 623 126 564 120 477 c 1
 106 477 86 480 80 487 c 1
 77 557 71 627 60 693 c 1
 79 696 103 705 117 714 c 1
 129 712 137 703 138 690 c 2
EndSplineSet
Validated: 1
EndChar

StartChar: parenleft
Encoding: 40 40 22
Width: 291
Flags: HW
HStem: -271.87 1013.11
VStem: 35 85<142.5 327>
LayerCount: 2
Fore
SplineSet
250 729 m 1
 156 588 120 442 120 240 c 0
 120 33 161 -117 256 -266 c 1
 250.134983296 -270.561679659 241.721935412 -272.150656273 233.25156392 -272.150656273 c 0
 228.723959911 -272.150656273 224.179977728 -271.696662955 220 -271 c 1
 103 -115 35 45 35 240 c 0
 35 414 87 556 215 741 c 1
 217.507848362 741.295040984 219.798073769 741.437745899 221.915621605 741.437745899 c 0
 234.152336069 741.437745899 240.622725411 736.672315573 250 729 c 1
EndSplineSet
Validated: 1
EndChar

StartChar: parenright
Encoding: 41 41 23
Width: 291
Flags: HW
HStem: -271.87 1012.87
VStem: 171 85<142.5 327 142.5 341>
LayerCount: 2
Fore
SplineSet
76 741 m 1
 204 556 256 414 256 240 c 0
 256 45 188 -115 71 -271 c 1
 67.1683537491 -271.696662955 62.7300334076 -272.150656273 58.1922158129 -272.150656273 c 0
 49.7027364515 -272.150656273 40.8650167038 -270.561679659 35 -266 c 1
 130 -117 171 33 171 240 c 0
 171 442 135 588 41 729 c 1
 49.2336879396 736.318833724 58.3043341149 741.126792741 72.0404123762 741.126792741 c 0
 73.3188337241 741.126792741 74.6376674482 741.085145784 76 741 c 1
EndSplineSet
Validated: 1
EndChar

StartChar: asterisk
Encoding: 42 42 24
Width: 443
Flags: HW
HStem: 574 29
VStem: 217 164
LayerCount: 2
Fore
SplineSet
233 603 m 1
 281 611 322 621 373 635 c 1
 378.856406461 622.555136271 382.569219382 603.679491924 382.569219382 586.219163867 c 0
 382.569219382 579.82824024 382.07179677 573.626933041 381 568 c 1
 338 571 285 573 236 574 c 1
 259 530 281 495 309 451 c 1
 293 436 275 427 248 424 c 1
 239 464 224 515 209 561 c 1
 175 527 148 495 116 455 c 1
 99 464 77 484 71 505 c 1
 106 526 150 556 190 585 c 1
 147 606 108 622 60 640 c 1
 64 659 75 685 93 698 c 1
 124 671 166 639 205 610 c 1
 212 658 215 699 217 751 c 1
 220.536672571 751.372281323 224.454476947 751.571320917 228.60507541 751.571320917 c 0
 246.752659547 751.571320917 269.350531909 747.76631206 284 738 c 1
 267 699 249 649 233 603 c 1
EndSplineSet
Validated: 1
EndChar

StartChar: plus
Encoding: 43 43 25
Width: 550
Flags: W
HStem: 234 49<218 250 298 328.5> 483 20G<288 298> 493 10
VStem: 250 48<197.5 234 283 316>
LayerCount: 2
Fore
SplineSet
501 283 m 1xd0
 501 263 500 247 491 233 c 1
 402 234 359 234 298 234 c 1
 298 13 l 1
 289 7 263 3 248 3 c 1
 249 71 250 161 250 234 c 1
 186 234 111 233 49 232 c 1
 49 246 52 274 58 283 c 1
 250 283 l 1
 250 349 250 397 249 493 c 1xb0
 263 502 278 503 298 503 c 1
 298 283 l 1
 501 283 l 1xd0
EndSplineSet
Validated: 1
EndChar

StartChar: comma
Encoding: 44 44 26
Width: 259
Flags: W
HStem: -185 282
VStem: 124 75<-60 44>
LayerCount: 2
Fore
SplineSet
199 25 m 0
 199 -54 149 -130 92 -185 c 1
 80 -185 67 -179 60 -170 c 1
 101 -124 124 -77 124 -43 c 0
 124 -15 109 3 77 7 c 1
 77 20 79 50 85 67 c 1
 115 73 143 83 165 97 c 1
 188 88 199 63 199 25 c 0
EndSplineSet
Validated: 1
EndChar

StartChar: hyphen
Encoding: 45 45 27
Width: 419
Flags: W
HStem: 229 65<309.5 346>
VStem: 60 299<225 294>
LayerCount: 2
Fore
SplineSet
359 294 m 1
 359 273 355 247 346 229 c 1
 273 229 131 227 60 225 c 1
 60 248 67 277 76 294 c 1
 359 294 l 1
EndSplineSet
Validated: 1
EndChar

StartChar: period
Encoding: 46 46 28
Width: 236
Flags: W
HStem: -10 132<99.5 135>
VStem: 48 139<36 72.5>
LayerCount: 2
Fore
SplineSet
116 -10 m 4
 73 -10 48 17 48 54 c 4
 48 91 78 122 121 122 c 4
 162 122 187 88 187 60 c 4
 187 12 154 -10 116 -10 c 4
EndSplineSet
Validated: 1
EndChar

StartChar: slash
Encoding: 47 47 29
Width: 365
Flags: W
HStem: -9 21G<76 76> 693 20G<291 291>
VStem: 33 301
LayerCount: 2
Fore
SplineSet
76 -9 m 1
 57 -3 40 8 33 17 c 1
 291 713 l 1
 305 709 325 697 334 687 c 1
 76 -9 l 1
EndSplineSet
Validated: 1
EndChar

StartChar: zero
Encoding: 48 48 30
Width: 601
Flags: HW
HStem: -9 57<268 372.5> 455 51<239 336.5>
VStem: 40 91<219.5 320.5 219.5 335.5> 467 94<183.5 278>
LayerCount: 2
Back
SplineSet
561 255 m 4
 561 94 441 -9 304 -9 c 4
 165 -9 40 94 40 255 c 4
 40 416 174 506 304 506 c 4
 434 506 561 416 561 255 c 4
131 269 m 4
 131 170 206 48 330 48 c 4
 427 48 467 134 467 233 c 4
 467 323 398 455 275 455 c 4
 181 455 131 372 131 269 c 4
EndSplineSet
Fore
SplineSet
304.87890625 394 m 4
 416.370117188 394 506.85546875 303.514648438 506.85546875 191.9765625 c 0
 506.85546875 80.4853515625 416.370117188 -10 304.85546875 -10 c 0
 193.397460938 -9.9677734375 102.9375 80.517578125 102.9375 192.0234375 c 0
 102.9375 303.482421875 193.397460938 393.967773438 304.87890625 394 c 4
175.661132812 191.991210938 m 0
 175.661132812 120.674804688 233.540039062 62.7646484375 304.869140625 62.7255859375 c 0
 376.22265625 62.7255859375 434.133789062 120.63671875 434.133789062 192.012695312 c 0
 434.133789062 263.3671875 376.22265625 321.278320312 304.869140625 321.278320312 c 0
 233.540039062 321.239257812 175.661132812 263.329101562 175.661132812 191.991210938 c 0
EndSplineSet
EndChar

StartChar: one
Encoding: 49 49 31
Width: 388
Flags: HW
LayerCount: 2
Back
SplineSet
239 127 m 6
 239 61 255 42 308 40 c 5
 312 26 313 11 313 -3 c 5
 274 -1 219 0 194 0 c 4
 158 0 111 -1 75 -3 c 5
 75 11 76 26 80 40 c 5
 130 42 149 61 149 127 c 6
 149 373 l 6
 149 438 135 457 80 460 c 5
 77 472 75 488 75 503 c 5
 107 501 162 500 194 500 c 4
 236 500 281 501 313 503 c 5
 313 486 311 472 308 460 c 5
 255 457 239 438 239 373 c 6
 239 127 l 6
EndSplineSet
Fore
SplineSet
100 0 m 2
 94 0 90 10 90 16 c 0
 90 22 94 32 100 32 c 2
 115 32 l 2
 121 32 125 36 125 42 c 0
 125 342 l 0
 125 347.99609375 121 352 115 352 c 2
 100 352 l 2
 94 352 90 362 90 368 c 0
 90 374 94 384 100 384 c 2
 226 384 l 2
 232 384 236 374 236 368 c 0
 236 362 232 352 226 352 c 2
 211 352 l 2
 205 352 201 347.99609375 201 342 c 0
 201 42 l 0
 201 36 205 32 211 32 c 2
 226 32 l 2
 232 32 236 22 236 16 c 0
 236 10 232 0 226 0 c 2
 100 0 l 2
EndSplineSet
EndChar

StartChar: two
Encoding: 50 50 32
Width: 537
Flags: HW
HStem: -2 92 460 46<227 274.5>
VStem: 100.12 50.88 333 97<342.5 391> 414 47
LayerCount: 2
Back
SplineSet
461 144 m 5xe8
 461 93 464 58 472 21 c 5
 466 9 456 -2 440 -2 c 4
 376 -1 305 0 247 0 c 4xe8
 188 0 116 -1 78 -2 c 5
 67 10 65 21 65 39 c 5
 122 92 183 147 236 194 c 4
 314 263 333 306 333 358 c 4
 333 424 303 460 246 460 c 4
 194 460 166 431 151 321 c 5
 134 321 110 323 97 328 c 5
 98.9081318457 344.69615365 100.133582353 366.853758011 100.133582353 389.370782904 c 4
 100.133582353 414.055999184 98.66076927 439.173186611 95 458 c 5
 134 486 191 506 263 506 c 4
 355 506 430 473 430 374 c 4xf0
 430 311 399 277 320 204 c 6
 198 90 l 5
 344 90 l 6
 399 90 411 95 414 151 c 5
 432 151 448 149 461 144 c 5xe8
EndSplineSet
Fore
SplineSet
258 394 m 0xe0
 349 394 367 328.848484848 367 269 c 0
 367 220.563380282 286.586626838 137.286384977 212.658203125 88 c 1
 212.658203125 78 l 1
 224.848083496 82 247.873413086 82 256 82 c 0
 269.524938911 82 284.730422218 69.837890625 309 69.837890625 c 3
 329.81685694 69.837890625 338.223947593 77.0399126556 355 105 c 0
 358 110 359 117 387 117 c 0
 399.475063161 117 402.993164062 99.1482848108 402.993164062 84 c 3
 402.993164062 68.1594846199 389.137210967 39.2142161659 382 25 c 1
 367.169864152 -2.75028128321 341.027688654 -7.3720703125 327 -7.3720703125 c 3
 282.443713177 -7.3720703125 266.800310125 39 239 39 c 0
 209 39 188.71941762 -6 140 -6 c 0
 117 -6 106 31.7678571429 106 41 c 1
 120 57.5 133.010869878 73.2864334217 154 90 c 2
 208 133 l 2
 244.75775789 162.270066468 291 216.776595745 291 258 c 1
 291 302.960867881 263.141032218 322.036132812 234 322.036132812 c 3
 188.233246204 322.036132812 154.775214369 268.251388935 144 250 c 5
 133 252 119 255 101 264 c 5
 125.553253216 315.014466382 166.756890695 394 258 394 c 0xe0
EndSplineSet
EndChar

StartChar: three
Encoding: 51 51 33
Width: 513
Flags: HW
HStem: -171 50<163 229.5 157.5 279> 172 76 420 82
VStem: 362 101<-8.5 74.5> 426 12
LayerCount: 2
Back
SplineSet
426 502 m 5xe8
 434.803670188 494.076696831 438.182017762 481.503117134 438.182017762 467.69088598 c 4
 438.182017762 465.813943348 438.119632981 463.914127699 438 462 c 5xa8
 394 409 335 335 268 248 c 5
 271.275424549 248.167113497 274.549732021 248.250446232 277.819338187 248.250446232 c 4
 372.375647246 248.250446232 463 178.554780969 463 50 c 4
 463 -67 362 -171 196 -171 c 4
 130 -171 79 -151 50 -126 c 5
 50 -116 54 -104 64 -93 c 5
 81 -105 124 -121 191 -121 c 4
 268 -121 362 -68 362 36 c 4xf0
 362 113 314 172 217 172 c 4
 206 172 194 170 185 165 c 5
 174 176 167 191 167 200 c 5
 246 301 299 371 334 420 c 5
 212 420 l 6
 153 420 138 411 118 350 c 5
 104 350 88 354 77 363 c 5
 88 412 88 455 88 502 c 5
 121 501 178 500 263 500 c 4
 346 500 390 501 426 502 c 5xe8
EndSplineSet
Fore
SplineSet
168.133789062 283.677734375 m 1xe0
 168.133789062 283.696289062 l 1
 116.990234375 282.038085938 l 1
 137.755859375 332.232421875 170 394 272 394 c 0
 316 394 379.555664062 357.609375 379.555664062 277.336914062 c 0
 379.555664062 208.602539062 346.268554688 161.119140625 285.385742188 111.149414062 c 1
 285.456054688 123.3203125 l 1
 347.178710938 123.3203125 391.483398438 63.916015625 391.483398438 13.9072265625 c 0
 391.483398438 -83.8037109375 290.787109375 -187.948242188 205.9375 -187.948242188 c 0
 179.358398438 -187.948242188 166.501953125 -185.932617188 144.091796875 -184.235351562 c 1
 133.28515625 -149.46875 l 1
 141.729492188 -149.666992188 157.938476562 -151.5234375 165.665039062 -151.5234375 c 0
 261.15625 -151.5234375 299.987304688 -72.92578125 299.987304688 17.9951171875 c 0
 299.987304688 45.1865234375 287.3515625 81.3388671875 254.346679688 81.3388671875 c 0
 222.759765625 81.3388671875 191.302734375 70.74609375 161.33203125 56.458984375 c 1
 161.33203125 88.4482421875 l 1
 181.733398438 96.736328125 209.994140625 109.833007812 235.079101562 127.026367188 c 1
 272.282226562 163.673828125 283.958984375 180.10546875 283.958984375 281.72265625 c 0
 283.958984375 304.015625 274.408203125 332.256835938 241.956054688 332.256835938 c 0
 197.694335938 332.256835938 177.845703125 305.595703125 168.133789062 283.677734375 c 1xe0
EndSplineSet
EndChar

StartChar: four
Encoding: 52 52 34
Width: 597
Flags: HW
HStem: -6 21G 0 79<279 330 330 337 431 518 518 525> 486 20G<386 394>
VStem: 337 94<-138 0 -152 0 79 357 357 357>
LayerCount: 2
Back
SplineSet
547 70 m 5x70
 538 52 529 19 529 0 c 5
 431 0 l 5
 431 -152 l 5
 406 -152 352 -167 348 -171 c 5
 340 -163 337 -152 337 -138 c 6
 337 0 l 5
 330 0 l 6x70
 228 0 148 -3 63 -6 c 5
 55 2 45 17 45 32 c 5xb0
 386 506 l 5
 402 506 421 502 431 496 c 5
 431 79 l 5
 518 79 l 6
 532 79 541 76 547 70 c 5x70
152 79 m 5
 337 79 l 5
 337 357 l 5
 152 79 l 5
EndSplineSet
Fore
SplineSet
307 384 m 1x30
 390 384 l 1
 399 -179 l 1
 294 -179 l 1
 307 384 l 1x30
128 53 m 1
 147 77 l 1
 158 77 l 1
 481 77 l 1
 481 7 l 1
 128 7 l 1
 128 53 l 1
307 384 m 1
 351 384 l 1
 171 77 l 1
 172 7 l 1
 128 53 l 1
 127 53 l 1
 307 384 l 1
311 -108 m 1
 422 -108 l 1
 422 -179 l 1
 311 -179 l 1
 311 -108 l 1
EndSplineSet
EndChar

StartChar: five
Encoding: 53 53 35
Width: 481
Flags: HW
HStem: -171 50<151 211 151 228.5> 410 143<331 404> 482 20G<134 134>
VStem: 321 100<-9.5 97> 359 39
LayerCount: 2
Fore
SplineSet
134 384 m 1xb0
 189.028901734 384 224.404624277 384 270 384 c 1xa8
 339 384 l 1
 339 348.864 339 307.872 348 262 c 5
 338.4 251 317.6 244 276 244 c 4
 271.530431653 244 265.687866669 270.970052083 259 324.91015625 c 1
 226.807241452 324.426694241 175.202228844 322.789975491 162 320 c 1xc8
 134.001953125 230 l 1
 236.255664063 194.644351464 304.424804688 133.053215258 304.424804688 21 c 0
 304.424804688 -84.5640138408 210.388024803 -141 138 -171 c 0
 108.277488731 -183.317995145 77.5130434783 -189.75 64 -191 c 1
 64 -182.381835938 65.8461538462 -171 67.79296875 -165.145507812 c 1
 82.9112391195 -158.333333333 117.091558317 -141.312967964 143 -121 c 0
 176.487492787 -94.7448366631 213.424804688 -64.7142857143 213.424804688 -6 c 0
 213.424804688 79.2087912088 150.466885653 137.648351648 98.001953125 146 c 1
 87.001953125 153 78.3625962376 166.691188489 81.001953125 177 c 2
 134 384 l 1xb0
EndSplineSet
EndChar

StartChar: six
Encoding: 54 54 36
Width: 503
Flags: HW
HStem: -9 48<240.5 304.5 240.5 312> 336 59<255.5 263.5> 607 31
VStem: 35 96<163 254.5 163 389> 377 89<145.5 239>
LayerCount: 2
Back
SplineSet
279 395 m 4
 393 395 466 330 466 212 c 4
 466 79 369 -9 255 -9 c 4
 112 -9 35 78 35 240 c 4
 35 538 252 631 409 638 c 5
 416 630 419 623 419 607 c 5
 258 574 163 507 138 343 c 5
 194 380 232 395 279 395 c 4
264 39 m 4
 345 39 377 113 377 175 c 4
 377 303 293 336 234 336 c 4
 203 336 174 330 133 304 c 5
 132 285 131 265 131 244 c 4
 131 82 217 39 264 39 c 4
EndSplineSet
Fore
SplineSet
303 636 m 0
 334 655 377 679 423 698 c 1
 430.75862069 698 443.102016943 691.159437304 448 679 c 0
 451 671.552380952 451.940053875 664.864294452 452 656 c 1
 398.555555556 629.802139037 369.882661875 611.04047332 335 585 c 0
 272.794537609 538.56261258 213.849229012 460.046728972 190 394 c 1
 379.735714286 394 453 291.983606557 453 198 c 0
 453 54 356.46184739 -10 251 -10 c 0
 122 -10 50 87.2757201646 50 213 c 0
 50 423.02980842 169.869320085 554.403776826 303 636 c 0
171 349 m 1
 163.605633803 328.408284024 150 257.901680402 150 204 c 0
 150 138 180.537037037 37 247 37 c 0
 297.776859504 37 338.239669421 77 343 197 c 1
 343 297.523476523 269.532663317 349 171 349 c 1
EndSplineSet
EndChar

StartChar: seven
Encoding: 55 55 37
Width: 485
Flags: HW
HStem: 338 165 409 21G<162.5 191 191 347> 465 38
VStem: 120 106<-121 -69>
LayerCount: 2
Back
SplineSet
149 -176 m 1x70
 130 -169 120 -155 120 -132 c 0
 120 -6 211 177 347 409 c 1
 191 409 l 2x70
 134 409 115 399 99 338 c 1
 78 338 61 342 48 350 c 1x90
 60 401 65 446 67 503 c 1
 119 500 165 500 245 500 c 0
 315 500 369 500 427 503 c 1
 436 492 441 481 442 465 c 1
 392 392 342 303 304 230 c 0
 240 105 226 21 226 -121 c 1
 190 -136 163 -158 149 -176 c 1x70
EndSplineSet
Fore
SplineSet
46 384 m 1x10
 357 384 l 1
 357 319 l 1
 312 297 l 1
 46 297 l 1
 46 384 l 1x10
292 384 m 1
 357 384 l 1
 357 319 l 1
 149 -167 l 1
 87 -167 l 1
 282 296 l 1
 292 384 l 1
EndSplineSet
EndChar

StartChar: eight
Encoding: 56 56 38
Width: 508
Flags: HW
HStem: -9 45<224 292.5 224 312.5> 592 45<229 280.5>
VStem: 50 90<114.5 186> 77 94 341 90<465.5 522> 363 95<105.5 170.5>
LayerCount: 2
Back
SplineSet
315 354 m 5xe4
 405 294 458 239 458 156 c 4
 458 55 377 -9 248 -9 c 4
 126 -9 50 49 50 141 c 4xe4
 50 231 101 283 191 336 c 5
 115 387 77 431 77 492 c 4
 77 581 143 637 249 637 c 4
 361 637 431 586 431 504 c 4xd8
 431 427 373 386 315 354 c 5xe4
170.971287569 509.043535928 m 4
 170.971287569 458.811577923 196.336825563 428.178807154 265 386 c 4
 269 383 274 381 278 378 c 5
 324 407 341 438 341 491 c 4
 341 553 307 592 254 592 c 4
 202.982971983 592 170.971287569 560.060123317 170.971287569 509.043535928 c 4
261 36 m 4xe4
 324 36 363 75 363 136 c 4
 363 205 316 252 227 312 c 5
 161 263 140 226 140 149 c 4
 140 80 187 36 261 36 c 4xe4
EndSplineSet
Fore
SplineSet
66 545 m 0xc0
 66 636 146 698 254 698 c 0
 320 698 434 638 434 532 c 0
 434 434 401 419 322 361 c 1
 391 316 445 256 445 173 c 0
 445 61 323 -10 254 -10 c 0
 160 -10 52 42 52 148 c 0
 52 241 91 296 166 342 c 1
 109 399 66 469 66 545 c 0xc0
334 543 m 0
 334 584.538987653 297.807801971 638.01313833 238.000004672 638.01313833 c 3
 201 638.01313833 169 597.426902791 169 543 c 0
 169 486 223 428 267 392 c 1
 313 441 334 470 334 543 c 0
211 303 m 1
 172 265 159 216 159 169 c 0
 159 104 219 48 268 48 c 0
 304 48 332 94 334 163 c 0
 334 211 280 255 211 303 c 1
EndSplineSet
EndChar

StartChar: nine
Encoding: 57 57 39
Width: 519
Flags: HW
HStem: 93 63<260 270> 462 44<215 292>
VStem: 40 93<248 354.5> 392 92<227.5 315.5>
LayerCount: 2
Back
SplineSet
263 506 m 4
 415 506 484 414 484 242 c 4
 484 -21 240 -150 90 -170 c 5
 81 -158 80 -149 80 -134 c 5
 253 -69 352 18 382 145 c 5
 338 108 295 93 245 93 c 4
 133 93 40 169 40 283 c 4
 40 426 139 506 263 506 c 4
293 156 m 4
 329 156 364 168 390 192 c 5
 391 206 392 220 392 235 c 4
 392 396 335 462 249 462 c 4
 181 462 133 396 133 318 c 4
 133 178 227 156 293 156 c 4
EndSplineSet
Fore
SplineSet
265 394 m 6
 265 394 l 2
 374 394 450 307 450 200 c 0
 448 126 435 71 383 12 c 2
 96 -315 l 1
 50 -256 l 1
 267 7 l 1
 138 16 86 98 86 200 c 0
 86 307 158 394 265 394 c 6
265 316 m 0
 203 316 165 267 165 200 c 0
 165 140 190 83 265 83 c 0
 333 83 373 132 373 200 c 0
 373 259 331 316 265 316 c 0
EndSplineSet
EndChar

StartChar: colon
Encoding: 58 58 40
Width: 236
Flags: W
HStem: 25 110<103 132.5> 311 110<103 132.5>
VStem: 60 116<63 93.5 349 379.5>
LayerCount: 2
Fore
SplineSet
117 311 m 0
 81 311 60 333 60 364 c 0
 60 395 85 421 121 421 c 0
 155 421 176 392 176 369 c 0
 176 329 148 311 117 311 c 0
117 25 m 0
 81 25 60 47 60 78 c 0
 60 109 85 135 121 135 c 0
 155 135 176 106 176 83 c 0
 176 43 148 25 117 25 c 0
EndSplineSet
Validated: 1
EndChar

StartChar: semicolon
Encoding: 59 59 41
Width: 259
Flags: W
HStem: 311 110<125 154.5>
VStem: 82 116<349 379.5> 124 75<-60 44>
LayerCount: 2
Fore
SplineSet
139 311 m 0xc0
 103 311 82 333 82 364 c 0
 82 395 107 421 143 421 c 0
 177 421 198 392 198 369 c 0
 198 329 170 311 139 311 c 0xc0
199 25 m 0xa0
 199 -54 149 -130 92 -185 c 1
 80 -185 67 -179 60 -170 c 1
 101 -124 124 -77 124 -43 c 0
 124 -15 109 3 77 7 c 1
 77 20 79 50 85 67 c 1
 115 73 143 83 165 97 c 1
 188 88 199 63 199 25 c 0xa0
EndSplineSet
Validated: 1
EndChar

StartChar: less
Encoding: 60 60 42
Width: 550
Flags: HW
HStem: 485 20G<435 435>
VStem: 64.15 408.85
LayerCount: 2
Fore
SplineSet
456 18 m 1
 323 97 187 172 66 234 c 1
 64.7335008386 240.332495807 64.0685092244 246.464489098 64.0685092244 252.364237841 c 0
 64.0685092244 265.097738679 67.1662479036 276.749371855 74 287 c 1
 435 505 l 1
 452 499 462 490 473 472 c 1
 117 260 l 1
 466 74 l 1
 467.033370453 69.0914903487 467.532813659 63.7157943568 467.532813659 58.2522364645 c 0
 467.532813659 42.5672976994 463.416573868 26.1582312545 456 18 c 1
EndSplineSet
Validated: 1
EndChar

StartChar: equal
Encoding: 61 61 43
Width: 550
Flags: W
HStem: 149 48<240 325> 315 47<240 325>
VStem: 57 437<147 197 186.5 320.5>
LayerCount: 2
Fore
SplineSet
57 313 m 1
 57 328 62 353 68 362 c 1
 493 362 l 1
 493 342 491 328 483 314 c 1
 405 315 367 315 283 315 c 0
 197 315 146 315 57 313 c 1
57 147 m 1
 57 162 61 188 67 197 c 1
 494 197 l 1
 494 176 492 162 484 148 c 1
 406 149 367 149 283 149 c 0
 197 149 145 149 57 147 c 1
EndSplineSet
Validated: 1
EndChar

StartChar: greater
Encoding: 62 62 44
Width: 550
Flags: HW
HStem: 486 20G<117 117>
VStem: 75 412.12
LayerCount: 2
Fore
SplineSet
486 277 m 1
 486.75 272.75 487.125 268.5 487.125 264.28125 c 0
 487.125 251.625 483.75 239.25 477 228 c 1
 329 153 237 98 96 14 c 1
 88.5834261323 22.8998886413 84.4671863407 37.3003340761 84.4671863407 51.897949154 c 0
 84.4671863407 56.98275798 84.9666295471 62.0914903487 86 67 c 1
 436 259 l 1
 75 472 l 1
 87 490 98 500 117 506 c 1
 486 277 l 1
EndSplineSet
Validated: 1
EndChar

StartChar: question
Encoding: 63 63 45
Width: 537
Flags: HW
HStem: -10 132<255.5 291> 673 41<240 286>
VStem: 123.37 53.63 204 139<36 72.5> 219 71<286.5 339 261 381.5> 346 89<527.5 605.5>
LayerCount: 2
Fore
SplineSet
274 714 m 0x6c
 368 714 435 669 435 586 c 0
 435 455 290 409 290 269 c 0
 290 253 295 220 301 201 c 1
 289 194 278 193 265 193 c 1
 243 208 219 258 219 315 c 0
 219 448 346 478 346 577 c 0
 346 634 307 673 265 673 c 0
 215 673 188 636 177 544 c 1
 158 544 133 547 120 554 c 1
 122.110100927 578.793685888 123.385353243 598.299997245 123.385353243 617.363374842 c 0
 123.385353243 634.437373153 122.362373842 651.156059729 120 671 c 1
 153 692 199 714 274 714 c 0x6c
272 -10 m 0xf0
 229 -10 204 17 204 54 c 0
 204 91 234 122 277 122 c 0
 318 122 343 88 343 60 c 0
 343 12 310 -10 272 -10 c 0xf0
EndSplineSet
Validated: 1
EndChar

StartChar: at
Encoding: 64 64 46
Width: 997
Flags: W
HStem: -202 45<420.5 595 420.5 595> -9 78<684.5 698> -9 82<449 471> 422 45<464 510> 619 41<413 624.5>
VStem: 125 62<132.5 347 132.5 347.5> 315 90<170 277> 580 85<58.5 180> 823 49<259 423>
LayerCount: 2
Fore
SplineSet
822 -43 m 1xdf80
 839 -46 849 -54 853 -68 c 1
 792 -153 664 -202 526 -202 c 0
 253 -202 125 -21 125 228 c 0
 125 467 275 660 536 660 c 0
 761 660 872 524 872 359 c 0
 872 144 748 -9 648 -9 c 0
 596 -9 580 28 580 89 c 0
 580 107 580 133 581 165 c 1
 551 62 503 -9 439 -9 c 0
 365 -9 315 47 315 198 c 0
 315 356 391 467 502 467 c 0
 534 467 560 465 592 458 c 0
 608 458 626 461 643 467 c 1
 661 461 665 445 665 371 c 2
 665 180 l 2
 665 81 668 69 701 69 c 0
 741 69 823 167 823 351 c 0
 823 495 723 619 526 619 c 0
 300 619 187 457 187 237 c 0
 187 28 301 -157 540 -157 c 0
 650 -157 752 -122 822 -43 c 1xdf80
465 73 m 0xbf80
 498 73 567 162 584 339 c 0
 584 357 585 376 585 393 c 1
 557 413 524 422 496 422 c 0
 432 422 405 365 405 228 c 0
 405 112 433 73 465 73 c 0xbf80
EndSplineSet
Validated: 1
EndChar

StartChar: D
Encoding: 68 68 50
Width: 780
Flags: HW
HStem: -3 21G 0 45<278 371.5> 640 38<295.5 374>
VStem: 131 94<138 549 549 582.5> 592 103<227 448.5>
LayerCount: 2
Fore
SplineSet
98 690 m 1x78
 301 690 l 1
 305 685 308 680 308 673 c 0
 308 667 305.381630826 656 301 656 c 2
 250 656 l 2
 244 656 240 652 240 646 c 2
 240 44 l 2
 240 38 244 34 250 34 c 2
 301 34 l 2
 305.381630825 34 308 23 308 17 c 0
 308 10 305 5 301 0 c 1
 97 0 l 1
 92.625 5 90 12 90 17 c 0
 90 23.375 93.1273320616 34 97 34 c 2
 148 34 l 2
 154 34 158 38 158 44 c 2
 158 646 l 2
 158 652 154 656 148 656 c 2
 98 656 l 2
 94.067929362 656 91 666.625 91 673 c 0
 91 678 93.625 685 98 690 c 1x78
330 692 m 0
 507 692 710 641.919504644 710 355 c 0
 710 31 443 0 330 0 c 0
 284.040086703 0 219.209566252 0 158 0 c 1
 158 690 l 1
 214.847457627 690 273.152542373 692 330 692 c 0
330 34 m 0
 489 34 607 105.572881356 607 340 c 0
 607 567.126666667 464 654 314 654 c 0
 290 654 257 650 240 645 c 1
 240 44 l 17
 240 38 244 34 250 34 c 1
 330 34 l 0
EndSplineSet
EndChar

StartChar: F
Encoding: 70 70 52
Width: 677
VWidth: 0
Flags: HW
LayerCount: 2
Fore
SplineSet
240 70 m 5
 240 44 l 6
 240 38.0645044532 244 34 250 34 c 6
 301 34 l 6
 305.381630825 34 308 23 308 17 c 4
 308 10 305 5 301 0 c 5
 97 0 l 5
 92.625 5 90 12 90 17 c 4
 90 23.375 93.1273320616 34 97 34 c 6
 148 34 l 6
 154 34 158 38.0645044532 158 44 c 6
 158 70 l 5
 240 70 l 5
98 690 m 1
 240 690 l 1
 240 0 l 1
 158 0 l 1
 158 646 l 2
 158 652 154 656 148 656 c 2
 98 656 l 2
 94.067929362 656 91 666.625 91 673 c 0
 91 678 93.625 685 98 690 c 1
484 703 m 1
 505 655 l 2
 526.431640295 606.013393611 536.034867163 579.598819824 536.034867163 566.480096167 c 0
 536.034867163 557.949861136 531.880503773 555 524 555 c 0
 514 555 496.194718933 575.098350891 484 599 c 0
 459 648 439 657 348 657 c 0
 275 657 246 646 240 623 c 1
 240 357 l 1
 359 357 l 2
 394 357 396 373 408 398 c 1
 412 417 419 424 428 424 c 0
 440 424 447 421 447 408 c 2
 447 262 l 2
 447 250 440 246 428 246 c 0
 415 246 412.765068977 258.939724093 408 278 c 0
 403 298 395 312 359 312 c 2
 240 312 l 1
 240 70 l 1
 158 70 l 1
 158 690 l 1
 221 690 l 2
 253 690 292 695 340 697 c 2
 484 703 l 1
EndSplineSet
EndChar

StartChar: G
Encoding: 71 71 53
Width: 836
Flags: HW
HStem: -9 49<302.5 404 302.5 420.5> 644 41<304.5 430 294.5 436>
VStem: 35 106<278 440.5 278 459> 519 94<131 136 136 181 122 226.5> 558 53
LayerCount: 2
Back
SplineSet
364 -9 m 0xf0
 167 -9 35 132 35 347 c 0
 35 571 207 685 382 685 c 0
 478 685 563 666 622 638 c 1
 613 591 611 542 611 483 c 1
 595 477 579 474 558 474 c 1xe8
 553 614 482 644 390 644 c 0
 219 644 141 512 141 369 c 0
 141 187 221 40 384 40 c 0
 424 40 453 43 485 56 c 0
 508 66 519 80 519 131 c 6
 519 181 l 6
 519 272 509 279 433 281 c 5
 429 291 427 311 427 327 c 5
 452 325 508 324 549 324 c 4
 590 324 645 325 666 326 c 5
 666 314 665 294 660 281 c 5
 620 279 613 271 613 181 c 6
 613 136 l 6
 613 108 615 86 626 66 c 1
 569 24 477 -9 364 -9 c 0xf0
EndSplineSet
Fore
SplineSet
569 327 m 1xe0
 772 327 l 1
 776 322 779 317 779 310 c 0
 779 304 776.381630826 293 772 293 c 2
 721 293 l 2
 715 293 711 289 711 283 c 2
 711 180 l 1
 629 180 l 1
 629 283 l 2
 629 289 625 293 619 293 c 2
 569 293 l 2
 565.067929362 293 562 303.625 562 310 c 0
 562 315 564.625 322 569 327 c 1xe0
90 340 m 0
 90 589 278 708 444 708 c 0
 521 708 558.789163077 685.143663031 615 663 c 0
 630.823969427 656.766315074 640.669657661 652.602035177 647.403735576 652.602035177 c 0
 654.713199151 652.602035177 658.173312477 657.56326555 662 670 c 0
 666 683 672 689 678 689 c 0
 686 689 692 684 692 673 c 2
 692 514 l 2
 692 498 685 499 681 499 c 0
 676 499 671.918015178 499.976101307 667 517 c 0
 641 607 564 674 466 674 c 0
 276 674 187 534 187 355 c 0
 187 168 290 17 472 17 c 0
 546.543386606 17 629 70 629 134 c 1
 629 180 l 1
 711 180 l 1
 711 134 l 1
 711 42 604.072778956 -18 459 -18 c 0
 220 -18 90 117 90 340 c 0
EndSplineSet
EndChar

StartChar: J
Encoding: 74 74 56
Width: 398
Flags: HW
HStem: -249 21G 636 43
VStem: 120 94<34 125 125 549>
LayerCount: 2
Back
SplineSet
214 125 m 2
 214 -61 191 -156 20 -249 c 1
 11 -244 5 -234 3 -223 c 1
 78 -160 120 -93 120 34 c 2
 120 549 l 2
 120 616 104 633 51 636 c 1
 47 647 46 661 46 679 c 1
 75 677 123 676 167 676 c 0
 211 676 264 677 288 679 c 1
 288 661 287 647 283 636 c 1
 232 633 214 616 214 549 c 2
 214 125 l 2
EndSplineSet
Fore
SplineSet
240 125 m 2
 240 -61 217.711340206 -156 52 -249 c 1
 46.1764705882 -244 42.2941176471 -234 41 -223 c 1
 116 -160 158 -93 158 34 c 2
 158 300 l 1
 240 300 l 1
 240 125 l 2
98 690 m 5
 301 690 l 5
 305 685 308 680 308 673 c 4
 308 667 305.381630826 656 301 656 c 6
 250 656 l 6
 244 656 240 652 240 646 c 6
 240 300 l 5
 158 300 l 5
 158 646 l 6
 158 652 154 656 148 656 c 6
 98 656 l 6
 94.067929362 656 91 666.625 91 673 c 4
 91 678 93.625 685 98 690 c 5
EndSplineSet
EndChar

StartChar: K
Encoding: 75 75 57
Width: 720
VWidth: 0
Flags: HW
LayerCount: 2
Back
SplineSet
505 142 m 4x3c
 554 78 578 48 656 43 c 5
 656 32 655 14 651 0 c 5x38
 601 0 541 -1 492 -6 c 5x98
 447 68 320 239 224 326 c 5
 224 127 l 6
 224 60 240 43 293 40 c 5
 297 29 298 15 298 -3 c 5
 258 -1 216 0 177 0 c 4
 138 0 90 -1 56 -3 c 5
 56 15 57 29 61 40 c 5
 114 43 130 60 130 127 c 6x58
 130 549 l 6
 130 616 114 633 61 636 c 5
 57 647 56 661 56 679 c 5
 93 677 134 676 177 676 c 4
 220 676 258 677 298 679 c 5
 298 661 297 647 293 636 c 5
 240 633 224 616 224 549 c 6
 224 355 l 5
 413 553 l 6
 438.021512788 579.042799024 450.265962266 599.348957379 450.265962266 613.385861231 c 4
 450.265962266 626.837634605 439.021059684 634.531929354 417 636 c 5
 413 649 412 664 412 679 c 5
 434 677 475 676 515 676 c 4
 555 676 591 677 618 679 c 5
 618 666 617 648 612 636 c 5
 567 633 534 618 470 549 c 6
 307 376 l 5
 361 324 430 240 505 142 c 4x3c
EndSplineSet
Fore
SplineSet
592 44 m 1
 595.4 39 598.8 34 609 34 c 2
 653 34 l 2
 657.381630825 34 660 23 660 17 c 0
 660 10 657 5 653 0 c 1
 454 0 l 1
 449.625 5 447 12 447 17 c 0
 447 23.375 450.127332062 34 454 34 c 2
 483 34 l 2
 489 34 493 38 493 44 c 1
 592 44 l 1
293 335 m 1
 208 335 l 1
 208 375 l 1
 270 375 l 1
 333 404 l 1
 592 44 l 1
 596.187590602 31.0402857733 599.533735443 25 603 25 c 3
 618.82278481 25 645.405063291 25 653 34 c 1
 653 0 l 1
 523 0 l 1
 293 335 l 1
446 562 m 2
 312 375 l 1
 293 335 l 1
 208 335 l 1
 208 375 l 1
 270 375 l 1
 408 576 l 2
 427.152157456 603.895533687 435 624 435 639 c 0
 435 646 428 656 409 656 c 2
 407 656 l 2
 401 656 397 667 397 673 c 0
 397 679 401 687 407 690 c 1
 588 690 l 0
 594 690 598 682 598 673 c 0
 598 663 594 656 588 656 c 2
 559 656 l 2
 546 656 525.834916681 644.17742131 514 633 c 0
 496 616 469.766802078 595.167104393 446 562 c 2
EndSplineSet
Refer: 11 1048 N 1 0 0 1 0 0 2
EndChar

StartChar: L
Encoding: 76 76 58
Width: 678
VWidth: 0
Flags: HW
LayerCount: 2
Back
SplineSet
321 45 m 6x70
 432 45 463 78 496 171 c 5
 516 165 528 159 540 147 c 5
 525 101 515 44 509 -2 c 5
 470 -1 389 0 315 0 c 4x70
 241 0 106 -1 56 -3 c 5
 56 15 57 29 61 40 c 5xb0
 114 43 131 60 131 138 c 6
 131 549 l 6
 131 616 115 633 62 636 c 5
 58 647 57 663 57 679 c 5
 96 677 149 676 178 676 c 4
 221 676 259 677 299 679 c 5
 299 661 298 647 294 636 c 5
 241 633 225 616 225 546 c 6
 225 138 l 6
 225 64 240 45 315 45 c 6
 321 45 l 6x70
EndSplineSet
Fore
SplineSet
98 690 m 1
 301 690 l 1
 305 685 308 680 308 673 c 0
 308 667 305 656 301 656 c 2
 250 656 l 2
 244 656 240 652 240 646 c 2
 240 44 l 1
 158 44 l 1
 158 646 l 2
 158 652 154 656 148 656 c 2
 98 656 l 2
 94 656 91 667 91 673 c 0
 91 678 94 685 98 690 c 1
98 690 m 1
 301 690 l 1
 305 685 308 680 308 673 c 0
 308 667 305 656 301 656 c 2
 250 656 l 2
 244 656 240 652 240 646 c 2
 240 44 l 2
 240 38 244 34 250 34 c 2
 301 34 l 2
 305 34 308 23 308 17 c 0
 308 10 305 5 301 0 c 1
 97 0 l 1
 93 5 90 12 90 17 c 0
 90 23 93 34 97 34 c 2
 148 34 l 2
 154 34 158 38 158 44 c 2
 158 646 l 2
 158 652 154 656 148 656 c 2
 98 656 l 2
 94 656 91 667 91 673 c 0
 91 678 94 685 98 690 c 1
240 690 m 1
 240 0 l 1
 97 0 l 1
 93 5 90 12 90 17 c 0
 90 23 93 34 97 34 c 2
 148 34 l 2
 154 34 158 38 158 44 c 2
 158 690 l 1
 240 690 l 1
240 34 m 1
 301 34 l 1
 355 37 l 1
 489 46.3023255814 519.841926857 57.9786975997 562 117 c 0
 577 138 595 156 604 156 c 0
 613 156 618 154 618 148 c 0
 618 138 606.494594595 117.267567568 582 71 c 2
 546 3 l 1
 343 0 l 1
 158 0 l 1
 158 690 l 1
 240 690 l 1
 240 34 l 1
EndSplineSet
EndChar

StartChar: M
Encoding: 77 77 59
Width: 1016
VWidth: 0
Flags: HW
LayerCount: 2
Fore
SplineSet
800 690 m 1
 919 690 l 1
 923 685 926 680 926 673 c 0
 926 667 923.381835938 656 919 656 c 2
 868 656 l 2
 862 656 858 652 858 646 c 2
 858 44 l 2
 858 38 862 34 868 34 c 2
 919 34 l 2
 923.381835938 34 926 23 926 17 c 0
 926 10 923 5 919 0 c 1
 715 0 l 1
 710.625 5 708 12 708 17 c 0
 708 23.375 711.126953125 34 715 34 c 2
 766 34 l 2
 772 34 776 38 776 44 c 2
 776 641 l 1
 800 690 l 1
90 17 m 0
 90 23 93.6865234375 34 97 34 c 2
 120 34 l 2
 160 34 167.015177367 47.4657594893 169.951171875 73 c 0
 175.838867188 124.205078125 179.622070312 216.852539062 182.127929688 321 c 0
 186.227539062 586 l 3
 186.227539062 637.736328125 177 656 123 656 c 2
 97 656 l 1
 92.2255859375 661.043945312 90 667 90 673 c 0
 90 679 93.1923828125 685.479492188 97 690 c 1
 194 690 l 2
 270 690 l 1
 503.869140625 133 l 2
 508.160360491 122.779714163 514.363764248 118.87109375 518 118.87109375 c 3
 522.207657663 118.87109375 528.665890231 122.790649649 532.950195312 134 c 2
 719.467773438 622 l 2
 735.846484462 664.852856339 778.307617188 690 800 690 c 1
 858 690 l 1
 858 0 l 1
 776 0 l 1
 776 641 l 1
 533.190429688 40 l 2
 525.469351569 20.3607872583 506.734293598 15.861328125 497 15.861328125 c 3
 487.636805751 15.861328125 468.103129418 23.7244707099 461.365234375 39 c 2
 220 602 l 1
 220 316 l 0
 220 179.756835938 220.916528122 109.406279333 223 73 c 0
 224.53125 46.2431640625 233 34 245 34 c 1
 269 34 l 2
 273.971679688 34 276 23 276 17 c 0
 276 11 272.764648438 3.1875 269 0 c 1
 97 0 l 1
 93.75 3.400390625 90 11 90 17 c 0
EndSplineSet
Colour: ffff00
EndChar

StartChar: N
Encoding: 78 78 60
Width: 742
Flags: W
HStem: -6 21G<594 601> -3 43 636 40 636 43
VStem: 130 51<187 533> 586 51<163 494 0 548.5>
LayerCount: 2
Fore
SplineSet
606 676 m 0x6c
 634 676 674 677 701 679 c 1x5c
 701 666 700 650 696 636 c 1
 652 636 637 603 637 494 c 2
 637 0 l 1
 626 -4 608 -6 594 -6 c 1xac
 181 533 l 1
 181 187 l 2
 181 74 196 40 250 40 c 1
 254 28 255 16 255 -3 c 1
 225 -1 185 0 156 0 c 0
 127 0 81 -1 56 -3 c 1
 56 14 57 28 61 40 c 1
 115 40 130 74 130 187 c 2
 130 600 l 1
 126 605 l 2
 107 629 94 633 61 636 c 1x6c
 57 650 56 668 56 679 c 1
 76 677 105 676 130 676 c 0
 155 676 179 677 197 679 c 1x5c
 586 163 l 1
 586 494 l 2
 586 603 571 636 517 636 c 1x6c
 513 659 512 667 512 679 c 1x5c
 541 677 578 676 606 676 c 0x6c
EndSplineSet
Validated: 1
EndChar

StartChar: Q
Encoding: 81 81 63
Width: 731
Flags: HW
HStem: -9 21G<266 365> -9 49<305.5 365> 637 48<285 415.5>
VStem: 35 103<282.5 442> 593 103<263 404>
LayerCount: 2
Fore
SplineSet
483 12 m 1xb8
 588.330917201 -20.624620372 632.840928435 -99.2993552616 741.25488311 -99.2993552616 c 0
 749.148440074 -99.2993552616 757.38076535 -98.8822838618 766 -98 c 1
 766 -110 764 -125 760 -138 c 1
 721 -150 687 -161 636 -184 c 1
 506 -151 515 -25 365 -9 c 1x78
 167 -9 35 141 35 340 c 0
 35 544 180 685 365 685 c 0
 556 685 696 545 696 340 c 0
 696 186 612 60 483 12 c 1xb8
138 367 m 0x78
 138 198 226 40 385 40 c 0
 515 40 593 161 593 314 c 0
 593 494 487 637 344 637 c 0
 226 637 138 529 138 367 c 0x78
EndSplineSet
Validated: 1
EndChar

StartChar: R
Encoding: 82 82 64
Width: 684
Flags: HW
HStem: -9 21G -3 43 0 43 307 44 634 44<315 358>
VStem: 130 94<127 308 354 549 549 582.5> 463 98<465.5 539.5>
LayerCount: 2
Fore
SplineSet
523 140 m 0x3e
 565 69 584 47 658 43 c 1
 658 27 658 14 654 0 c 1x3e
 604 0 546 -1 497 -9 c 1x9e
 456 57 443 84 418 131 c 0
 382 197 355 242 294 307 c 1
 283.230447378 306.585786438 272.975613382 306.343145751 263.1644302 306.343145751 c 0
 249.289321881 306.343145751 236.30151519 306.828427125 224 308 c 1
 224 127 l 2
 224 60 239 43 290 40 c 1
 294 28 295 11 295 -3 c 1
 252 0 201 0 176 0 c 0
 141 0 86 -1 56 -3 c 1
 56 11 57 27 61 40 c 1
 115 43 130 60 130 127 c 2x5e
 130 549 l 2
 130 616 115 636 61 636 c 1
 57 649 56 662 56 678 c 1
 76 677 129 676 176 676 c 0
 231 676 287 678 343 678 c 0
 494 678 561 605 561 510 c 0
 561 421 497 355 393 328 c 1
 443 275 467 235 523 140 c 0x3e
224 354 m 1x5e
 240 352 253 351 268 351 c 0
 377 351 463 396 463 500 c 0
 463 579 418 634 298 634 c 0
 269 634 248 631 224 626 c 1
 224 354 l 1x5e
EndSplineSet
Validated: 1
EndChar

StartChar: U
Encoding: 85 85 67
Width: 675
Flags: W
HStem: -9 53<303.5 385> 636 43
VStem: 106 94<231 245 245 549> 519 51<261 269 269 509>
LayerCount: 2
Fore
SplineSet
570 269 m 2
 570 154 559 94 513 48 c 0
 475 10 419 -9 351 -9 c 0
 165 -9 106 76 106 231 c 2
 106 549 l 2
 106 620 96 630 47 636 c 1
 43 650 42 666 42 679 c 1
 69 677 117 676 158 676 c 0
 199 676 244 677 274 679 c 1
 274 666 273 650 269 636 c 1
 210 631 200 622 200 549 c 2
 200 245 l 2
 200 132 237 44 370 44 c 0
 403 44 448 54 476 82 c 0
 507 113 519 154 519 261 c 2
 519 509 l 2
 519 605 509 631 450 636 c 1
 446 656 445 665 445 679 c 1
 468 677 509 676 539 676 c 0
 569 676 608 677 634 679 c 1
 634 670 633 658 629 636 c 1
 583 631 570 606 570 509 c 2
 570 269 l 2
EndSplineSet
Validated: 1
EndChar

StartChar: V
Encoding: 86 86 68
Width: 686
Flags: HW
HStem: -6 21G<322 330> 636 40 636 43
VStem: 25 174.4 533.82 127.18
LayerCount: 2
Fore
SplineSet
559 676 m 0xd8
 590 676 632 677 661 679 c 1xd8
 661 664 660 651 656 636 c 1
 614 626 595 584 570 518 c 0
 503 346 433 172 361 -2 c 1
 348 -5 338 -6 322 -6 c 1
 250 188 174 382 115 521 c 0
 73 619 66 632 30 636 c 1
 26 652 25 668 25 679 c 1
 51 677 104 676 146 676 c 0
 188 676 229 677 267 679 c 1
 267 667 265 650 262 636 c 1
 220.193646882 633.504098321 199.411941279 626.725398075 199.411941279 599.87267497 c 0
 199.411941279 583.690492759 206.959016787 560.21823681 222 526 c 0
 274 403 322 277 371 142 c 1
 425 265 474 385 520 514 c 0
 528.90416944 540.356341542 533.875840902 562.526475559 533.875840902 580.465220596 c 0
 533.875840902 612.892613465 517.629993345 631.493167443 479 636 c 1xb8
 475 651 474 668 474 679 c 1
 503 677 528 676 559 676 c 0xd8
EndSplineSet
Validated: 1
EndChar

StartChar: W
Encoding: 87 87 69
Width: 1003
Flags: HW
HStem: -9 21G<277 284.5 691 698.5> 636 43 656 20G<122.5 153.5 865 898.5> 664 20G<533.5 544>
VStem: 25 164.78 856.56 121.44
LayerCount: 2
Fore
SplineSet
883 676 m 0xa4
 914 676 951 677 978 679 c 1
 978 666 976 650 971 636 c 1xa4
 936 628 922 601 887 491 c 2
 731 -3 l 1
 720 -7 706 -9 691 -9 c 1
 632 158 560 355 496 522 c 1
 320 -3 l 1
 309 -7 292 -9 277 -9 c 1
 223 168 167 346 109 521 c 0
 72 628 66 632 30 636 c 1
 26 649 25 665 25 679 c 1
 57 677 107 676 138 676 c 0
 169 676 222 677 259 679 c 1
 259 668 258 652 254 636 c 1xcc
 209.154984499 633.437427686 189.756229354 628.412314046 189.756229354 601.730403407 c 0
 189.756229354 586.76367765 195.859935436 564.982766005 207 533 c 0
 243 422 289 278 324 160 c 1
 500 679 l 1
 510 683 523 684 544 684 c 1x98
 606 522 677 325 735 158 c 1
 841 494 l 2
 851.443237541 527.687863034 856.77955056 553.885570104 856.77955056 574.122377865 c 0
 856.77955056 613.957079362 836.102889028 630.695029043 793 636 c 1
 788 649 786 668 786 679 c 1
 814 677 847 676 883 676 c 0xa4
EndSplineSet
Validated: 1
EndChar

StartChar: X
Encoding: 88 88 70
Width: 667
Flags: HW
HStem: -3 43 0 40 636 40 636 43
VStem: 40 156.62 56 191.62 434.79 192.21 469.62 145.38
LayerCount: 2
Fore
SplineSet
621 40 m 1x9a
 625 28 627 12 627 -3 c 1x9a
 598 -1 546 0 505 0 c 0
 464 0 414 -1 384 -2 c 1x59
 384 10 385 26 388 40 c 1
 417.406141095 42.8829550093 435.17628077 48.425567486 435.17628077 69.0878057607 c 0
 435.17628077 84.2607404386 425.593858905 107.58682616 404 144 c 0
 377 191 348 237 320 284 c 1
 232 155 l 2
 208.578476742 120.556583445 196.334996868 96.0257713991 196.334996868 78.4049701175 c 0
 196.334996868 57.6567526349 213.310206569 46.4890533511 249 40 c 1
 253 26 254 10 254 -3 c 1
 220 -1 181 0 144 0 c 0
 107 0 67 -1 40 -3 c 1
 40 8 41 28 46 42 c 1x9a
 78 50 116 76 165 144 c 2
 293 327 l 1
 253 390 213 453 171 516 c 0
 100 624 94 629 62 635 c 1
 57 651 56 665 56 679 c 1
 91 677 140 676 178 676 c 0
 216 676 268 677 299 678 c 1xa5
 299 666 298 651 295 636 c 1
 263.687197494 630.408428124 247.069262729 621.064975122 247.069262729 600.801845726 c 0
 247.069262729 584.826275441 257.398702193 562.06321093 279 529 c 0
 307 487 334 445 361 403 c 1
 434 518 l 2
 458.310483333 556.716695679 470.055131552 582.867556243 470.055131552 600.649759159 c 0
 470.055131552 622.36652236 452.538157716 631.601553086 419 636 c 1
 415 651 414 668 414 679 c 1
 447 677 486 676 516 676 c 0
 546 676 590 677 615 679 c 1
 615 666 615 651 611 636 c 1x95
 580 628 556 612 496 521 c 2
 389 358 l 1
 431 291 472 224 512 157 c 0
 568 64 589 45 621 40 c 1x9a
EndSplineSet
Validated: 1
EndChar

StartChar: Y
Encoding: 89 89 71
Width: 630
Flags: HW
HStem: 0 40 639 37 639 39
VStem: 25 186.96 271 94<150 163 163 259 259 259> 476.24 128.76
LayerCount: 2
Fore
SplineSet
519 676 m 0xdc
 549 676 582 677 605 678 c 1xcc
 605 664 604 653 601 639 c 1
 565 629 534 599 500 531 c 2
 365 260 l 1
 365 163 l 2
 365 57 374 49 442 40 c 1
 446 28 448 13 448 -3 c 1
 404 -2 358 0 321 0 c 0
 277 0 213 -1 185 -2 c 1
 185 12 187 28 191 40 c 1
 262 46 271 56 271 150 c 2
 271 259 l 1
 105 578 l 2
 84 619 68 635 31 637 c 1
 26 652 25 664 25 678 c 1
 53 677 91 676 129 676 c 0
 167 676 232 676 263 678 c 1
 263 663 262 653 258 639 c 1
 226.539837297 635.974984355 211.916998749 627.459536921 211.916998749 608.581789359 c 0
 211.916998749 596.256809762 218.150093867 579.514821652 230 557 c 0xbc
 265 490 307 404 347 314 c 1
 388 405 425 482 455 542 c 0
 469.271443942 569.750029888 476.313714149 589.170794385 476.313714149 603.003545242 c 0
 476.313714149 624.064182389 459.989263085 632.171431987 428 637 c 1
 424 651 421 663 421 678 c 1
 445 676 489 676 519 676 c 0xdc
EndSplineSet
Validated: 1
EndChar

StartChar: Z
Encoding: 90 90 72
Width: 631
Flags: W
HStem: -3 45 508 170 636 42
VStem: 58 510
LayerCount: 2
Fore
SplineSet
516 169 m 1xb0
 537 167 554 162 568 152 c 1
 557 108 551 50 550 -3 c 1
 452 0 381 0 289 0 c 0
 197 0 107 -1 66 -3 c 1
 61 7 58 16 58 29 c 1
 183 231 307 431 425 636 c 1
 283 636 l 2xb0
 195 636 161 617 140 508 c 1
 123 508 96 510 83 518 c 1xd0
 95 560 102 624 102 678 c 1
 143 677 280 676 346 676 c 0
 412 676 467 676 538 678 c 1
 544 671 549 658 549 645 c 1
 428 434 310 237 185 42 c 1
 339 42 l 2
 462 42 494 60 516 169 c 1xb0
EndSplineSet
Validated: 1
EndChar

StartChar: bracketleft
Encoding: 91 91 73
Width: 272
Flags: W
HStem: 704 38
VStem: 35 70<-189 -157 -157 610>
LayerCount: 2
Fore
SplineSet
35 742 m 1
 70 740 104 740 130 740 c 0
 165 740 188 740 226 742 c 1
 235 734 237 718 237 704 c 1
 130 695 105 688 105 610 c 2
 105 -157 l 2
 105 -221 145 -225 226 -229 c 1
 235 -239 237 -250 237 -269 c 1
 209 -267 168 -267 141 -267 c 0
 108 -267 69 -267 35 -269 c 1
 35 742 l 1
EndSplineSet
Validated: 1
EndChar

StartChar: backslash
Encoding: 92 92 74
Width: 380
Flags: HW
HStem: -3 21G<295 295> 0 21G<347 347> 693 20G<52 62.5>
VStem: 31 316
LayerCount: 2
Fore
SplineSet
57 713 m 0x70
 68 713 78 712 84 709 c 1
 347 0 l 1
 340.333333333 -2.66666666667 323.444444444 -4.44444444444 310.259259259 -4.44444444444 c 0
 303.666666667 -4.44444444444 298 -4 295 -3 c 1xb0
 31 709 l 1
 37 712 47 713 57 713 c 0x70
EndSplineSet
Validated: 1
EndChar

StartChar: bracketright
Encoding: 93 93 75
Width: 272
Flags: W
HStem: 704 38
VStem: 167 70<-157 610 610 649>
LayerCount: 2
Fore
SplineSet
237 -269 m 1
 203 -267 164 -267 131 -267 c 0
 104 -267 63 -267 35 -269 c 1
 35 -250 37 -239 46 -229 c 1
 127 -225 167 -221 167 -157 c 2
 167 610 l 2
 167 688 142 695 35 704 c 1
 35 718 37 734 46 742 c 1
 84 740 107 740 142 740 c 0
 168 740 202 740 237 742 c 1
 237 -269 l 1
EndSplineSet
Validated: 1
EndChar

StartChar: asciicircum
Encoding: 94 94 76
Width: 550
Flags: HW
HStem: 404 21G
VStem: 42 465
LayerCount: 2
Fore
SplineSet
276 644 m 1
 202 556 126 462 69 383 c 1
 54 396 47 409 42 430 c 1
 248 685 l 1
 259.25 691.75 275 695.125 289.34375 695.125 c 0
 294.125 695.125 298.75 694.75 303 694 c 1
 357 612 445 486 507 404 c 1
 498.100111359 396.583426132 482.049498886 392.467186341 466.599266878 392.467186341 c 0
 461.217464737 392.467186341 455.908509651 392.966629547 451 394 c 1
 276 644 l 1
EndSplineSet
Validated: 1
EndChar

StartChar: underscore
Encoding: 95 95 77
Width: 550
Flags: W
HStem: -141 49<226 305>
VStem: 32 486<-143 -92>
LayerCount: 2
Fore
SplineSet
32 -143 m 1
 32 -122 35 -105 44 -92 c 1
 518 -92 l 1
 518 -106 513 -131 506 -142 c 1
 396 -141 347 -141 263 -141 c 0
 189 -141 131 -142 32 -143 c 1
EndSplineSet
Validated: 1
EndChar

StartChar: grave
Encoding: 96 96 78
Width: 300
Flags: HW
HStem: 692 20G 704 10.75
VStem: 66 167
LayerCount: 2
Fore
SplineSet
193 535 m 1x60
 147 607 108 659 66 704 c 1
 82.047662318 712.023831159 102.285860323 715.095211051 123.187585189 715.095211051 c 0
 136.150284669 715.095211051 149.368186788 713.913911093 162 712 c 1xa0
 179 655 201 597 233 537 c 1
 227 534 220.25 533 213.375 533 c 0
 206.5 533 199.5 534 193 535 c 1x60
EndSplineSet
Validated: 1
EndChar

StartChar: b
Encoding: 98 98 80
Width: 547
Flags: W
HStem: -9 46<243.5 290.5 243.5 333> 404 21G<266.5 318> 447 20G<286.5 378.5> 646 37<19 34 19 44> 697 20G
VStem: 85 90<186 213 407 416 416 575 575 598.5> 408 99<175 296>
LayerCount: 2
Fore
SplineSet
320 467 m 0
 437 467 507 399 507 245 c 0
 507 105 408 -9 258 -9 c 0
 167 -9 103 21 63 59 c 1
 77 77 85 107 85 186 c 2
 85 575 l 2
 85 622 78 646 10 646 c 1
 10 661 12 672 19 683 c 1
 49 683 129 700 153 717 c 1
 165 713 175 702 175 677 c 2
 175 416 l 2
 175 398 173 385 171 373 c 1
 176 382 180 388 183 393 c 0
 201 423 253 467 320 467 c 0
263 37 m 0
 318 37 408 73 408 232 c 0
 408 360 340 404 296 404 c 0
 237 404 175 353 175 213 c 2
 175 72 l 1
 198 51 224 37 263 37 c 0
EndSplineSet
Validated: 1
EndChar

StartChar: d
Encoding: 100 100 82
Width: 564
Flags: W
HStem: -9 63<229 260.5> 22 46 421 46<256.5 303.5> 646 37<306 321 306 331> 697 20G
VStem: 40 99<162 283> 372 90<245 386 386 386 453 575 575 598.5>
LayerCount: 2
Fore
SplineSet
462 136 m 2x7e
 462 89 469 68 524 68 c 1
 524 54 523 36 518 22 c 1x7e
 485 20 435 8 404 -9 c 1
 390 -3 379 3 379 49 c 0
 379 69 382 81 387 107 c 1
 377 85 369 73 364 65 c 0
 346 35 294 -9 227 -9 c 0xbe
 110 -9 40 59 40 213 c 0
 40 353 139 467 289 467 c 0
 322 467 345 462 372 453 c 1
 372 575 l 2
 372 622 365 646 297 646 c 1
 297 661 299 672 306 683 c 1
 336 683 416 700 440 717 c 1
 452 713 462 702 462 677 c 2
 462 136 l 2x7e
251 54 m 0xbe
 310 54 372 105 372 245 c 2
 372 386 l 1
 349 407 323 421 284 421 c 0
 229 421 139 385 139 226 c 0
 139 98 207 54 251 54 c 0xbe
EndSplineSet
Validated: 1
EndChar

StartChar: f
Encoding: 102 102 84
Width: 342
Flags: W
HStem: -3 43 403 45<36 116 280.5 298> 659 55<273 309>
VStem: 116 90<127 147 147 392 448 488 488 519> 359 57<572 590 572 591>
LayerCount: 2
Fore
SplineSet
325 714 m 0
 377 714 398 702 420 689 c 1
 417 647 416 608 416 572 c 1
 399 567 377 564 359 564 c 1
 359 618 337 659 281 659 c 0
 227 659 206 608 206 519 c 2
 206 448 l 1
 308 448 l 1
 308 435 306 416 298 403 c 1
 263 403 232 399 206 392 c 1
 206 147 l 2
 206 60 232 43 295 40 c 1
 299 29 300 15 300 -3 c 1
 269 -1 221 0 174 0 c 0
 127 0 68 -1 42 -3 c 1
 42 15 43 29 47 40 c 1
 100 43 116 60 116 127 c 2
 116 395 l 1
 87 401 56 403 36 403 c 1
 36 420 40 435 50 448 c 1
 116 448 l 1
 116 488 l 2
 116 638 221 714 325 714 c 0
EndSplineSet
Validated: 1
EndChar

StartChar: g
Encoding: 103 103 85
Width: 511
Flags: W
HStem: -249 53<198 283 198 287> -17 80<218 283.5> -6 21G 139 46<225.5 273 219 298> 412 46 422 36 422 45<200.5 249 177.5 258.5>
VStem: 41 86<-127 -89.5> 57 92<272.5 341.5 272.5 347> 67 70<49 111.5> 326 94<260.5 322 260.5 327.5> 380 83<-93.5 -61.5>
LayerCount: 2
Fore
SplineSet
282 63 m 0xd250
 416 63 463 33 463 -48 c 0
 463 -139 359 -249 215 -249 c 0
 92 -249 41 -202 41 -114 c 0xb310
 41 -65 67 -28 115 -6 c 1
 78 7 67 30 67 68 c 0xb260
 67 106 88 143 120 174 c 1
 82 201 57 244 57 301 c 0
 57 393 118 467 237 467 c 0xb2a0
 261 467 282 464 300 458 c 1
 464 458 l 1xb4a0
 469 441 471 417 471 396 c 1
 446 402 405 409 374 412 c 1
 406 379 420 337 420 307 c 0xb8a0
 420 214 357 139 239 139 c 0
 212 139 186 143 162 152 c 1
 144 134 137 118 137 105 c 0
 137 69 154 63 282 63 c 0xd250
227 422 m 0xb2a0
 174 422 149 369 149 314 c 0
 149 231 187 185 251 185 c 0
 295 185 326 222 326 292 c 0
 326 363 290 422 227 422 c 0xb2a0
239 -196 m 0xd310
 327 -196 380 -144 380 -87 c 0
 380 -36 352 -17 215 -17 c 0
 194 -17 176 -16 161 -15 c 1
 135 -37 127 -60 127 -93 c 0
 127 -161 157 -196 239 -196 c 0xd310
EndSplineSet
Validated: 1
EndChar

StartChar: h
Encoding: 104 104 86
Width: 596
Flags: W
HStem: -3 43 401 61<317.5 340> 646 37<44 59 44 69> 697 20G
VStem: 110 90<127 234 415 423 423 575 575 598.5> 406 90<127 279 279 299>
LayerCount: 2
Fore
SplineSet
555 40 m 1
 559 28 560 15 560 -3 c 1
 531 -1 492 0 451 0 c 0
 410 0 363 -2 332 -3 c 1
 332 15 333 29 337 40 c 1
 385 40 406 60 406 127 c 2
 406 279 l 2
 406 373 367 401 313 401 c 0
 261 401 200 356 200 234 c 2
 200 127 l 2
 200 60 217 40 269 40 c 1
 273 28 274 15 274 -3 c 1
 246 -2 196 0 155 0 c 0
 114 0 65 -1 36 -3 c 1
 36 15 37 29 41 40 c 1
 93 40 110 60 110 127 c 2
 110 575 l 2
 110 622 103 646 35 646 c 1
 35 661 37 672 44 683 c 1
 74 683 154 700 178 717 c 1
 190 713 200 702 200 677 c 2
 200 423 l 2
 200 407 199 387 193 364 c 1
 197 371 200 379 208 390 c 0
 230 421 282 462 353 462 c 0
 429 462 496 421 496 299 c 2
 496 127 l 2
 496 58 515 40 555 40 c 1
EndSplineSet
Validated: 1
EndChar

StartChar: i
Encoding: 105 105 87
Width: 301
Flags: W
HStem: -3 43 396 37<45 60 45 70> 447 20G 580 119<132.5 164.5>
VStem: 89 119<622.5 656 622.5 656> 111 90<127 325 325 348.5>
LayerCount: 2
Fore
SplineSet
148 580 m 0xf8
 114 580 89 606 89 638 c 0
 89 674 117 699 148 699 c 0
 184 699 208 674 208 638 c 0
 208 607 181 580 148 580 c 0xf8
37 -3 m 1
 37 10 38 27 42 40 c 1
 95 40 111 60 111 127 c 2
 111 325 l 2
 111 372 104 396 36 396 c 1
 36 411 38 422 45 433 c 1
 75 433 155 450 179 467 c 1
 191 463 201 452 201 427 c 2
 201 127 l 2
 201 60 217 40 260 40 c 1
 264 26 265 6 265 -3 c 1
 230 -1 190 0 152 0 c 0xf4
 114 0 70 -1 37 -3 c 1
EndSplineSet
Validated: 1
EndChar

StartChar: j
Encoding: 106 106 88
Width: 283
Flags: W
HStem: -249 21G 396 37<45 60 45 70> 447 20G 580 119<132.5 164.5>
VStem: 89 119<622.5 656 622.5 656> 111 90<19 33 33 325 325 348.5>
LayerCount: 2
Fore
SplineSet
148 580 m 0xf8
 114 580 89 606 89 638 c 0
 89 674 117 699 148 699 c 0
 184 699 208 674 208 638 c 0
 208 607 181 580 148 580 c 0xf8
35 -249 m 1
 25 -244 15 -234 13 -221 c 1
 90 -134 111 -79 111 19 c 2
 111 325 l 2
 111 372 104 396 36 396 c 1
 36 411 38 422 45 433 c 1
 75 433 155 450 179 467 c 1
 191 463 201 452 201 427 c 2
 201 33 l 2xf4
 201 -111 115 -203 35 -249 c 1
EndSplineSet
Validated: 1
EndChar

StartChar: k
Encoding: 107 107 89
Width: 545
Flags: W
HStem: -9 21G -3 43 0 43 418 42 646 37<44 59 44 69> 697 20G
VStem: 110 90<127 225 256 575 575 598.5>
LayerCount: 2
Fore
SplineSet
421 106 m 0x3e
 461 57 479 47 525 43 c 1
 525 24 524 11 520 0 c 1x3e
 472 0 436 -2 392 -9 c 1x9e
 351 53 269 154 200 225 c 1
 200 127 l 2
 200 60 216 40 259 40 c 1
 263 26 264 6 264 -3 c 1
 229 -1 189 0 151 0 c 0
 113 0 69 -1 36 -3 c 1
 36 10 37 27 41 40 c 1
 94 40 110 60 110 127 c 2x5e
 110 575 l 2
 110 622 103 646 35 646 c 1
 35 661 37 672 44 683 c 1
 74 683 154 700 178 717 c 1
 190 713 200 702 200 677 c 2
 200 256 l 1
 274 323 l 2
 320 364 338 389 338 403 c 0
 338 414 327 419 309 419 c 1
 305 432 303 445 303 460 c 1
 346 458 380 458 407 458 c 0
 429 458 465 458 501 460 c 1
 501 447 499 430 494 418 c 1
 455 417 422 402 372 357 c 2
 277 271 l 1
 318 228 360 180 421 106 c 0x3e
EndSplineSet
Validated: 1
EndChar

StartChar: l
Encoding: 108 108 90
Width: 299
Flags: W
HStem: -3 43 646 37<44 59 44 69> 697 20G
VStem: 110 90<127 575 575 598.5>
LayerCount: 2
Fore
SplineSet
36 -3 m 1
 36 10 37 27 41 40 c 1
 94 40 110 60 110 127 c 2
 110 575 l 2
 110 622 103 646 35 646 c 1
 35 661 37 672 44 683 c 1
 74 683 154 700 178 717 c 1
 190 713 200 702 200 677 c 2
 200 127 l 2
 200 60 216 40 259 40 c 1
 263 26 264 6 264 -3 c 1
 229 -1 189 0 151 0 c 0
 113 0 69 -1 36 -3 c 1
EndSplineSet
Validated: 1
EndChar

StartChar: q
Encoding: 113 113 95
Width: 546
Flags: W
HStem: -245 43 -1 61<232.5 250.5> 421 46<244.5 304.5>
VStem: 40 99<164.5 282> 372 90<-115 20 20 35.5 233 291>
LayerCount: 2
Fore
SplineSet
531 -202 m 1
 535 -214 536 -227 536 -245 c 1
 511 -243 455 -242 412 -242 c 0
 369 -242 322 -243 288 -245 c 1
 288 -227 289 -213 293 -202 c 1
 356 -199 372 -182 372 -115 c 2
 372 20 l 2
 372 51 376 79 387 123 c 1
 379 101 368 76 358 63 c 0
 331 28 277 -1 224 -1 c 0
 127 -1 40 71 40 214 c 0
 40 350 138 467 284 467 c 0
 375 467 440 441 482 400 c 1
 469 380 462 350 462 291 c 2
 462 -115 l 2
 462 -182 478 -199 531 -202 c 1
261 60 m 0
 307 60 372 103 372 233 c 2
 372 386 l 1
 357 402 321 421 288 421 c 0
 201 421 139 352 139 227 c 0
 139 102 204 60 261 60 c 0
EndSplineSet
Validated: 1
EndChar

StartChar: r
Encoding: 114 114 96
Width: 419
Flags: W
HStem: -3 43 385 73<268.5 343.5> 396 37 447 20G
VStem: 111 90<127 147 147 243> 335 57
LayerCount: 2
Fore
SplineSet
330 458 m 0xcc
 357 458 378 450 399 434 c 1
 394 401 392 351 392 316 c 1
 380 312 357 307 335 307 c 1
 332 371 312 385 286 385 c 0xcc
 251 385 201 321 201 243 c 2
 201 147 l 2
 201 60 227 43 290 40 c 1
 294 29 295 15 295 -3 c 1
 264 -1 216 0 169 0 c 0
 122 0 63 -1 37 -3 c 1
 37 15 38 29 42 40 c 1
 95 43 111 60 111 127 c 2
 111 325 l 2
 111 372 102 394 36 396 c 1
 36 411 38 422 45 433 c 1
 86 436 148 451 179 467 c 1
 191 463 201 452 201 423 c 0xbc
 201 385 194 355 188 325 c 1
 196 348 201 365 209 377 c 0
 238 423 278 458 330 458 c 0xcc
EndSplineSet
Validated: 1
EndChar

StartChar: t
Encoding: 116 116 98
Width: 351
Flags: W
HStem: -9 54<222 229> 391 57<29 92> 404 21G
VStem: 92 90<120 141 141 391 448 568>
LayerCount: 2
Fore
SplineSet
208 -9 m 0xb0
 129 -9 92 29 92 120 c 2
 92 391 l 1xd0
 72 398 53 402 20 404 c 1xb0
 20 421 22 432 29 448 c 1
 92 448 l 1
 92 580 l 1
 118 587 146 603 166 620 c 1
 179 614 182 610 182 568 c 2
 182 448 l 1
 312 448 l 1xd0
 312 435 309 419 303 404 c 1xb0
 255 402 215 398 182 391 c 1xd0
 182 141 l 2
 182 74 204 45 240 45 c 0
 268 45 287 53 306 69 c 1
 314 60 320 47 321 36 c 1
 299 11 250 -9 208 -9 c 0xb0
EndSplineSet
Validated: 1
EndChar

StartChar: u
Encoding: 117 117 99
Width: 564
Flags: W
HStem: -9 21G -4 61<224 252> 22 46 396 37 401 37 447 20G
VStem: 82 90<174 196 196 325 325 348.5> 372 90<228 330 330 353.5>
LayerCount: 2
Fore
SplineSet
462 136 m 2x37
 462 89 469 68 524 68 c 1
 524 54 523 36 518 22 c 1
 485 20 435 8 404 -9 c 1
 390 -3 379 3 379 49 c 0
 379 58 379 71 382 91 c 1xb7
 375 75 364 61 350 47 c 0
 315 12 279 -4 225 -4 c 0
 135 -4 82 41 82 174 c 2
 82 325 l 2
 82 372 77 394 16 396 c 1
 16 411 17 421 23 433 c 1
 64 436 119 451 150 467 c 1
 162 463 172 452 172 423 c 2x57
 172 196 l 2
 172 106 193 57 255 57 c 0
 321 57 372 112 372 228 c 2
 372 330 l 2
 372 377 363 399 297 401 c 1
 297 416 297 426 304 438 c 1x4f
 356 441 410 453 440 467 c 1
 452 463 462 452 462 423 c 2
 462 136 l 2x37
EndSplineSet
Validated: 1
EndChar

StartChar: v
Encoding: 118 118 100
Width: 528
Flags: HW
HStem: -9 21G<243 251> 420 41 438 20G<99 141 404.5 435.5>
VStem: 15 158.84 388.93 124.07
LayerCount: 2
Fore
SplineSet
420 458 m 0xb8
 451 458 489 459 513 461 c 1
 513 443 510 430 504 418 c 1xb8
 471 411 457 388 424 309 c 2
 289 0 l 1
 277 -6 259 -9 243 -9 c 1
 217 57 103 312 83 355 c 0
 57 408 48 415 21 418 c 1
 16 435 15 442 15 461 c 1
 43 459 78 458 120 458 c 0
 162 458 211 459 243 461 c 1
 243 446 240 432 236 420 c 1
 191.782581855 416.700192676 173.698111815 411.222639676 173.698111815 392.356960837 c 0
 173.698111815 382.636608759 178.499036621 369.362080898 187 351 c 0xd8
 204 314 258 187 291 100 c 1
 371 300 l 2
 383.218656962 331.265386931 388.979892732 354.911016856 388.979892732 372.561322425 c 0
 388.979892732 404.025284588 370.672014558 416.437489054 338 419 c 1
 331 432 327 447 327 461 c 1
 353 459 389 458 420 458 c 0xb8
EndSplineSet
Validated: 1
EndChar

StartChar: w
Encoding: 119 119 101
Width: 774
Flags: HW
HStem: -9 21G<215 226 530 539.5> 438 20G<91 135 393 393 656.5 689> 440 20G 441 20G 442 20G<426.5 433>
VStem: 15 152.24 644.87 114.13
LayerCount: 2
Fore
SplineSet
671 458 m 0xc6
 707 458 736 459 759 461 c 1
 759 443 757 431 751 417 c 1x96
 721 409 710 389 677 291 c 2
 576 0 l 1
 564 -7 549 -9 530 -9 c 1
 487 101 436 224 390 328 c 1
 259 0 l 1
 248 -7 237 -9 215 -9 c 1
 170 120 126 238 77 358 c 0
 62 395 50 408 21 417 c 1
 16 430 15 448 15 460 c 1
 41 459 69 458 113 458 c 0xa6
 157 458 189 459 223 461 c 1
 223 448 222 427 218 417 c 1x96
 180.240377654 412.954326177 167.031970328 403.907478924 167.031970328 387.10039691 c 0
 167.031970328 378.981472404 170.114184557 369.051678093 175 357 c 0
 204 285 236 194 262 119 c 1
 393 458 l 1
 403 461 420 462 433 462 c 1x8e
 475 366 526 240 574 118 c 1
 631 288 l 2
 640.83071046 318.760610149 645.331481262 342.381112454 645.331481262 360.487953519 c 0
 645.331481262 399.478926013 624.461135079 412.902718154 591 417 c 1
 585 431 582 447 582 461 c 1x96
 607 459 642 458 671 458 c 0xc6
EndSplineSet
Validated: 1
EndChar

StartChar: z
Encoding: 122 122 104
Width: 501
Flags: W
HStem: -2 47 414 47
VStem: 395 53
LayerCount: 2
Fore
SplineSet
448 150 m 1
 448 117 450 53 456 17 c 1
 451 6 440 -2 424 -2 c 0
 373 -1 332 0 245 0 c 0
 157 0 103 -1 67 -2 c 1
 58 7 51 22 51 38 c 1
 117 129 263 334 315 414 c 1
 223 414 l 2
 151 414 131 396 112 308 c 1
 96 308 75 310 60 316 c 1
 64 360 67 410 67 461 c 1
 108 459 189 458 250 458 c 0
 309 458 388 459 427 461 c 1
 436 450 440 432 440 418 c 1
 374 323 241 139 170 45 c 1
 297 45 l 2
 368 45 388 60 395 156 c 1
 411 156 428 155 448 150 c 1
EndSplineSet
Validated: 1
EndChar

StartChar: braceleft
Encoding: 123 123 105
Width: 327
Flags: HW
HStem: -271 1012
VStem: 123 77<561 587.5> 124 80<-105.5 -82 -142 -38> 133 91<61 116.5>
LayerCount: 2
Fore
SplineSet
286 -271 m 1xa0
 150 -229 124 -148 124 -63 c 0
 124 -13 133 38 133 84 c 0
 133 149 116 202 35 228 c 1
 35 240 35 248 40 260 c 1
 117 286 135 335 135 394 c 0x90
 135 442 123 497 123 549 c 0
 123 626 149 699 277 741 c 1
 283 732 286 723 286 714 c 1
 218 691 200 645 200 591 c 0xc0
 200 529.451234931 223.030744411 458.979526736 223.030744411 394.803522472 c 0
 223.030744411 327.614676948 198.864957836 270.491656628 96 246 c 1
 199 219 224 158 224 86 c 0x90
 224 21 204 -51 204 -113 c 0
 204 -171 222 -220 292 -242 c 1
 292 -255 292 -263 286 -271 c 1xa0
EndSplineSet
Validated: 1
EndChar

StartChar: bar
Encoding: 124 124 106
Width: 170
Flags: W
HStem: 692 20G<100 110>
VStem: 60 49<145 325 145 701>
LayerCount: 2
Fore
SplineSet
60 -241 m 1
 60 701 l 1
 74 710 90 712 110 712 c 1
 110 597 109 416 109 234 c 0
 109 56 110 -113 110 -230 c 1
 101 -236 75 -241 60 -241 c 1
EndSplineSet
Validated: 1
EndChar

StartChar: braceright
Encoding: 125 125 107
Width: 327
Flags: HW
HStem: -271 1012
VStem: 103 91<61 116.5 61 122> 123 80<-105.5 -82> 127 77<561 587.5 523 618>
LayerCount: 2
Fore
SplineSet
41 -271 m 1xa0
 35 -263 35 -255 35 -242 c 1
 105 -220 123 -171 123 -113 c 0xa0
 123 -51 103 21 103 86 c 0
 103 158 128 219 231 246 c 1
 128.135042164 270.491656628 103.969255589 327.614676948 103.969255589 394.803522472 c 0
 103.969255589 458.993824602 127 529.437055026 127 591 c 0
 127 645 109 691 41 714 c 1
 41 723 44 732 50 741 c 1
 178 699 204 626 204 549 c 0x90
 204 497 192 442 192 394 c 0
 192 335 210 286 287 260 c 1
 292 248 292 240 292 228 c 1xc0
 211 202 194 149 194 84 c 0
 194 38 203 -13 203 -63 c 0
 203 -148 177 -229 41 -271 c 1xa0
EndSplineSet
Validated: 1
EndChar

StartChar: asciitilde
Encoding: 126 126 108
Width: 550
Flags: W
HStem: 198 62<347 390> 260 57<163 214>
VStem: 46 458
LayerCount: 2
Fore
SplineSet
68 195 m 1x60
 55 201 48 208 46 221 c 1
 96 294 141 317 184 317 c 0x60
 252 317 314 260 380 260 c 0
 410 260 440 272 473 305 c 1
 486 304 494 301 504 292 c 1
 453 220 409 198 371 198 c 0xa0
 304 198 248 260 180 260 c 0
 146 260 110 244 68 195 c 1x60
EndSplineSet
Validated: 1
EndChar

StartChar: uni0420
Encoding: 192 1056 111
Width: 940
VWidth: 0
Flags: HW
LayerCount: 2
Fore
SplineSet
751 335 m 0
 751 528.554501634 660.467196546 643 514 643 c 0
 430.526946108 643 362.766467066 593 350 495 c 1
 350 138 l 1
 367.037362288 80.0946106009 449.795746776 27 531 27 c 0
 694.646041018 27 751 137.448996939 751 335 c 0
268 441 m 1
 268 506 246.405141844 529.594858156 200 576 c 2
 160 616 l 1
 122 592 l 2
 99.9524752475 578.075247525 84 570 74 570 c 0
 65 570 60 573 60 583 c 0
 60 596 246 711 267 711 c 0
 274 711 277 706 277 700 c 0
 277 692 272.150539752 681.808107501 262 674 c 0
 257.35403523 670.426180946 254.763605067 666.862920447 254.763605067 662.157761452 c 0
 254.763605067 653.697287482 263.139142202 641.5447575 283 619 c 2
 320 577 l 1
 359 611 l 2
 423.101606276 666.883451625 461 682 546 682 c 0
 739.543176636 682 850 524.875690388 850 332 c 0
 850 125.518360132 734.504162505 -18 564 -18 c 0
 494.702591437 -18 399.945934835 17.8973037638 350 57 c 1
 350 -235 l 2
 350 -297 l 2
 350 -318 356.967123288 -330.312328767 373 -332 c 2
 411 -336 l 2
 415.37260274 -336.460273973 418 -347 418 -353 c 0
 418 -360 415 -365 411 -370 c 1
 207 -370 l 1
 202.625 -365 200 -358 200 -353 c 0
 200 -346.625 203.134648089 -336.39644635 207 -336 c 2
 246 -332 l 2
 262.03802073 -330.355074797 268 -321 268 -297 c 2
 268 -235 l 2
 268 441 l 1
EndSplineSet
Validated: 1
Substitution2: "'ss01' Style Set 1 lookup 0-1" uni0420.ss01
EndChar

StartChar: uni0422
Encoding: 194 1058 112
Width: 767
VWidth: 0
Flags: HW
LayerCount: 2
Fore
SplineSet
650 735 m 1
 650 735 l 1
 658 735 666.763970556 716.895480703 689 667 c 0
 712.331033595 614.647436812 722.061734411 593.381348546 722.061734411 584.774916333 c 0
 722.061734411 579.467064733 718.360595725 578.9744 711.866048 578.9744 c 0
 710.3856 578.9744 708.76 579 707 579 c 0
 697 579 690 584 690 589 c 0
 690 594 676.907875708 611.913763128 661 629 c 0
 634 658 627 659 529 659 c 2
 434 659 l 1
 428 659 424 655 424 649 c 1
 424 44 l 0
 424 38 428 34 434 34 c 2
 485 34 l 2
 488.954702694 34 492 23 492 17 c 0
 492 10 489 5 485 0 c 1
 281 0 l 1
 276 6 274 12 274 17 c 0
 274 23 276.924163663 34 281 34 c 2
 332 34 l 2
 338 34 342 38 342 44 c 0
 342 649 l 1
 342 655 338 659 332 659 c 1
 242 659 l 2
 140 659 109.563115353 646.540925785 63 590 c 0
 49.8875215598 574.077704751 40.6904460529 566.918777334 35.4845142631 566.918777334 c 0
 32.110035989 566.918777334 30.4124829194 569.926683507 30.4124829194 575.505529414 c 0
 30.4124829194 588.887703606 40.1800856071 617.062886813 60 654 c 0
 82 695 101 729 104 729 c 0
 107 729 116.084634416 720.058713577 123 710 c 0
 129.281680858 700.863009661 163 693 384 693 c 0
 610.505966856 693 615.15057007 695.765018661 634 720 c 0
 641 729 645 735 650 735 c 1
EndSplineSet
Substitution2: "'ss01' Style Set 1 lookup 0-1" uni0422.ss01
EndChar

StartChar: uni043D
Encoding: 221 1085 113
Width: 596
VWidth: 0
Flags: HW
LayerCount: 2
Back
SplineSet
475 60 m 2
 475 45 475 39.5 485 37 c 2
 505 32 l 2
 514.9921875 29.501953125 515 22.1044921875 515 16 c 0
 515 9.232421875 515 0 505 0 c 2
 370 0 l 2
 360 0 360 9.23046875 360 16 c 0
 360 22.7685546875 360 29.384765625 370 32 c 2
 390 37 l 2
 400 39.5 400 45 400 60 c 2
 400 200 l 1
 475 200 l 1
 475 60 l 2
475 323.999023438 m 6
 475 184 l 5
 400 184 l 5
 400 323.999023438 l 6
 400 338.999023438 400 344.499023438 390 346.999023438 c 6
 370 351.999023438 l 6
 360 354.614257812 360 361.23046875 360 367.999023438 c 4
 360 374.768554688 360 383.999023438 370 383.999023438 c 6
 505 383.999023438 l 6
 515 383.999023438 515 374.766601562 515 367.999023438 c 4
 515 361.89453125 514.9921875 354.497070312 505 351.999023438 c 6
 485 346.999023438 l 6
 475 344.499023438 475 338.999023438 475 323.999023438 c 6
205 60 m 2
 205 45 205 39.5 215 37 c 2
 235 32 l 2
 244.9921875 29.501953125 245 22.1044921875 245 16 c 0
 245 9.232421875 245 0 235 0 c 2
 100 0 l 2
 90 0 90 9.23046875 90 16 c 0
 90 22.7685546875 90 29.384765625 100 32 c 2
 120 37 l 2
 130 39.5 130 45 130 60 c 2
 130 199.999023438 l 1
 205 199.999023438 l 1
 205 60 l 2
205 323.999023438 m 2
 205 183.999023438 l 1
 130 183.999023438 l 1
 130 323.999023438 l 2
 130 338.999023438 130 344.499023438 120 346.999023438 c 2
 100 351.999023438 l 2
 90 354.614257812 90 361.23046875 90 367.999023438 c 0
 90 374.768554688 90 383.999023438 100 383.999023438 c 2
 235 383.999023438 l 2
 245 383.999023438 245 374.766601562 245 367.999023438 c 0
 245 361.89453125 244.9921875 354.497070312 235 351.999023438 c 2
 215 346.999023438 l 2
 205 344.499023438 205 338.999023438 205 323.999023438 c 2
EndSplineSet
Fore
SplineSet
140 214 m 5
 420 214 l 5
 420 180 l 5
 140 180 l 5
 140 214 l 5
EndSplineSet
Refer: 137 1080 N 1 0 0 1 270 0 2
Refer: 137 1080 N 1 0 0 1 0 0 2
Substitution2: "'ss01' Style Set 1 lookup 0-1" uni043D.ss01
EndChar

StartChar: uni041F
Encoding: 191 1055 114
Width: 911
VWidth: 0
Flags: HW
LayerCount: 2
Fore
SplineSet
21.771484375 606.260742188 m 2
 217 695 l 1
 224.796316965 695.997529871 230.643554688 686.995059742 230.643554688 681.391601562 c 0
 230.643554688 676.665153952 229.211106406 669.255081172 227 668 c 2
 192.587890625 648.466796875 l 2
 188.279247522 646.021099635 181.917391638 642.550126672 181.917391638 639.000000233 c 3
 181.917391638 638.218200187 182.270005332 637.42503978 183.147460938 636.627929688 c 0
 228.55078125 595.382031221 246 523.398172542 246 477.954101562 c 2
 246 44 l 2
 246 38 250 34 256 34 c 2
 307 34 l 2
 311.381835938 34 314 23 314 17 c 0
 314 10 311 5 307 0 c 1
 103 0 l 1
 98.625 5 96 12 96 17 c 0
 96 23.375 99.126953125 34 103 34 c 2
 154 34 l 2
 160 34 164 38 164 44 c 2
 164 461.743164062 l 2
 164 527.142186338 126.541630599 600 91 600 c 0
 86.644125855 600 80.0881880745 600.381705056 75 598 c 2
 28 576 l 2
 22.3515399184 573.356039962 14.771484375 584.287963868 14.771484375 589.260742188 c 0
 14.771484375 594.260742188 16.2584000363 603.754822339 21.771484375 606.260742188 c 2
216 479.473632812 m 1
 285.149414062 557.184570312 400.082727696 708 552.10546875 708 c 0
 593.567583654 708 746 705.163085938 746 428.70703125 c 2
 746 44 l 2
 746 38 750 34 756 34 c 2
 807 34 l 2
 811.381835938 34 814 23 814 17 c 0
 814 10 811 5 807 0 c 1
 603 0 l 1
 598.625 5 596 12 596 17 c 0
 596 23.375 599.126953125 34 603 34 c 2
 654 34 l 2
 660 34 664 38 664 44 c 2
 664 421.052734375 l 2
 664 531.790039062 636.40540252 656.27734375 531.876953125 656.27734375 c 0
 407.722500094 656.27734375 287.617824855 513.337925047 216 433.713867188 c 1
 216 479.473632812 l 1
EndSplineSet
Substitution2: "'ss01' Style Set 1 lookup 0-1" uni041F.ss01
EndChar

StartChar: uni0421
Encoding: 193 1057 115
Width: 827
VWidth: 0
Flags: HW
LayerCount: 2
Fore
SplineSet
90 340 m 4
 90 589 278 708 444 708 c 4
 521 708 562 692 615 663 c 5
 630.823969427 656.766315074 640.669657661 652.602035177 647.403735576 652.602035177 c 4
 654.713199151 652.602035177 658.356599575 657.508341402 662 670 c 4
 666 683 672 689 678 689 c 4
 686 689 692 684 692 673 c 6
 692 514 l 6
 692 498 685 499 681 499 c 4
 676 499 672 500 667 517 c 4
 641 607 564 674 466 674 c 4
 276 674 187 534 187 355 c 4
 187 168 290 17 472 17 c 4
 558 17 635 81 688 164 c 4
 706 192 724 216 729 216 c 4
 735 216 737 212 737 205 c 4
 737 192 728 169 713 143 c 4
 662 56 580 -18 459 -18 c 4
 220 -18 90 117 90 340 c 4
EndSplineSet
Validated: 1
Substitution2: "'ss01' Style Set 1 lookup 0-1" uni0421.ss01
EndChar

StartChar: uni0423
Encoding: 195 1059 116
Width: 890
VWidth: 0
Flags: HW
LayerCount: 2
Fore
SplineSet
66.0498046875 -440.229492188 m 0
 48.6283620485 -432.976244099 39.7296876994 -413.688178328 39.7296876994 -394.341724955 c 0
 39.7296876994 -376.309772653 47.460196727 -358.227097527 63.2255859375 -349.791015625 c 0
 70.2906042347 -346.010514415 77.8810025998 -344.246847503 85.4315080836 -344.246847503 c 0
 107.316642798 -344.246847503 128.866625526 -359.063938938 136.31640625 -382.533203125 c 0
 139.923346747 -393.896254276 147.114660852 -399.149974705 157.026151197 -399.149974705 c 0
 204.933142582 -399.149974705 316.390332753 -276.409774009 393.810546875 -127.546875 c 0
 429.5546875 -58.818359375 458.798828125 7.4111328125 458.798828125 19.62890625 c 0
 458.798828125 31.857421875 437.187898096 82.2674735479 410.763671875 131.655273438 c 0
 384.344726562 181.033203125 314.545826684 319.234820822 255.649414062 438.765625 c 0
 179.500976563 593.309570312 143.040039062 656.092773438 129.42578125 656.092773438 c 0
 102.158203125 656.092773438 74.52734375 668.073242188 74.52734375 679.907226562 c 0
 74.52734375 685.456054688 110.409179688 690 154.264648438 690 c 2
 234 690 l 1
 262.487304688 625.012695312 l 2
 289.824901235 562.648188184 428.723621827 271.0200125 475.750976562 177.258789062 c 0
 490.532355552 147.788277995 499.763509538 129.105833187 509.959721138 129.105833187 c 0
 510.233801156 129.105833187 510.50857849 129.119332472 510.784179688 129.146484375 c 0
 527.9921875 130.841796875 553.991276709 183.798587234 602.860351562 331.249023438 c 0
 625.952148438 400.922851562 640.380146481 440.756171406 661.940429688 508.250976562 c 0
 674.533203125 547.672851562 684.836914062 599.60546875 684.836914062 623.65625 c 0
 684.836914062 666.106445312 683.674804688 667.395507812 645.279296875 667.395507812 c 0
 617.23828125 667.395507812 605.723632812 672.447265625 605.723632812 684.755859375 c 0
 605.723632812 695.959131079 615.664462566 699.886466691 660.990842133 699.886466691 c 0
 674.834526336 699.886466691 691.979071664 699.520114055 713.149414062 698.8828125 c 0
 782.872066075 696.783916142 824.768262009 688.606827697 824.768262009 679.915636578 c 0
 824.768262009 675.646488043 814.659487193 671.253296071 792.774414062 667.395507812 c 0
 753.15234375 660.411132812 753.69378524 661.416881738 689.30078125 475.260742188 c 0
 538.44140625 39.1357421875 381.928455063 -272.009467018 261.48046875 -375.220703125 c 0
 207.380870785 -421.578359652 149.88426064 -447.228140768 103.845605058 -447.228140768 c 0
 90.0925018806 -447.228140768 77.3618985041 -444.939172354 66.0498046875 -440.229492188 c 0
EndSplineSet
Validated: 1
Substitution2: "'ss01' Style Set 1 lookup 0-1" uni0423.ss01
Colour: ff0000
EndChar

StartChar: uni0424
Encoding: 196 1060 117
Width: 847
VWidth: 0
Flags: HW
LayerCount: 2
Fore
SplineSet
597 182 m 0
 645 216 689 299 689 356 c 0
 689 436 642.605368886 517.197315557 583 547 c 0
 557 560 521 570 504 570 c 2
 476 570 l 1
 476 151 l 1
 523 151 l 2
 550 151 581.155670586 170.776933332 597 182 c 0
394 570 m 1
 342 570 l 2
 231 570 172 483 172 357 c 3
 172 289 200.897876462 229.886521124 242 193 c 0
 281 158 304 151 359 151 c 2
 394 151 l 1
 394 570 l 1
340 0 m 0
 333 0 328 11 328 16 c 0
 328 28 339.634504792 35.2626198083 356 40 c 2
 394 51 l 1
 394 104 l 1
 284 120 184.956866554 135.356576376 131 224 c 0
 103 270 90 318 90 364 c 3
 90 486 184 593 325 593 c 2
 394 593 l 1
 394 634 l 1
 389 647 379.840236686 650.183431953 356 660 c 2
 339 667 l 2
 331.103550296 670.25147929 328 677 328 683 c 0
 328 688 333 694 339 694 c 1
 516 694 l 0
 524 694 531 690 531 683 c 0
 531 677 525.692307692 673.538461538 516 668 c 2
 502 660 l 2
 490.369230769 653.353846154 482 646 476 634 c 1
 476 593 l 1
 521 593 l 2
 610.206896552 593 674.738601244 552.477679422 720 486 c 0
 752 439 757 423 757 361 c 0
 757 280 744.351885034 237.672218122 708 199 c 0
 661 149 556 127 476 111 c 1
 476 52 l 1
 508 43 l 2
 528.358371041 37.2742081448 536 21 536 16 c 0
 536 8 532 0 522 0 c 3
 340 0 l 0
EndSplineSet
Validated: 1
Substitution2: "'ss01' Style Set 1 lookup 0-1" uni0424.ss01
Colour: ff0000
EndChar

StartChar: uni0425
Encoding: 197 1061 118
Width: 1000
VWidth: 0
Flags: H
LayerCount: 2
Fore
SplineSet
165.140625 9.837890625 m 2
 165.140625 18.7099609375 178.321289062 24.72265625 197.794921875 24.72265625 c 0
 241.295898438 24.72265625 258.974609375 41.2236328125 383.734375 198.310546875 c 2
 490.185546875 332.353515625 l 1
 414.611328125 441.305664062 l 2
 281.461550909 633.266145372 276.019781871 646.213521435 243.943825802 646.213521435 c 0
 238.94219822 646.213521435 233.292976471 645.898713808 226.410993461 645.898713808 c 0
 225.776804399 645.898713808 225.132146721 645.901387157 224.4765625 645.907226562 c 0
 189.505859375 646.245117188 176.442382812 650.948242188 176.442382812 663.2890625 c 0
 176.442382812 676.942382812 194.043945312 680.2421875 267.033203125 680.2421875 c 2
 357.624023438 680.2421875 l 1
 448.9453125 541.791992188 l 2
 499.174804688 465.638671875 543.598632812 402.211914062 547.666015625 400.821289062 c 0
 547.831077518 400.765317066 548.015874528 400.737743364 548.219571939 400.737743364 c 0
 553.034091691 400.737743364 568.407201713 416.141618929 583.317382812 436.061523438 c 0
 598.857421875 456.811523438 640.81640625 508.51953125 676.559570312 550.958007812 c 0
 719.702167703 602.185410751 739.681071808 630.915506711 739.681071808 645.342821027 c 0
 739.681071808 654.16451017 732.211354339 657.638671875 718 657.638671875 c 0
 704.168945312 657.638671875 696.411132812 663.458984375 699.197265625 671.766601562 c 0
 702.473632812 681.51953125 732.467773438 685.893554688 796.2578125 685.893554688 c 0
 856.321944244 685.893554688 892.234406419 678.834711816 892.234406419 671.142988267 c 0
 892.234406419 666.374393149 878.431239254 661.362546602 848.022460938 657.638671875 c 0
 804.611328125 652.315429688 795.157226562 643.555664062 685.926757812 507.4453125 c 0
 624.126713512 430.446178794 575.721084365 361.222348679 575.721084365 350.109654533 c 0
 575.721084365 342.72065536 628.078749295 268.209889078 682.782226562 188.602539062 c 2
 783.748046875 41.67578125 l 1
 836.8359375 38.1943359375 l 2
 872.393810868 35.8701339851 888.552479006 30.5087046427 888.552479006 24.7024123946 c 0
 888.552479006 16.1953589203 853.865529802 6.73334202471 794.68359375 4.4697265625 c 2
 708.361328125 1.1806640625 l 1
 610.37109375 148.276367188 l 2
 557.764525824 227.243412562 510.503362913 289.734142531 503.511878137 289.734142531 c 0
 485.734470353 289.734142531 312.067382812 41.4445642041 312.067382812 36.9853515625 c 0
 312.067382812 30.23828125 325.206054688 24.72265625 341.265625 24.72265625 c 0
 357.320370585 24.72265625 366.302999093 20.6919314694 366.302999093 13.7316658064 c 0
 366.302999093 12.7439634306 366.12211349 11.697268103 365.754882812 10.5947265625 c 0
 362.247865034 0.0696953248719 310.301831939 -5.28389637406 260.153524285 -5.28389637406 c 0
 211.811808401 -5.28389637406 165.140625 -0.309082853916 165.140625 9.8037109375 c 2
 165.140625 9.837890625 l 2
EndSplineSet
Validated: 1
Substitution2: "'ss01' Style Set 1 lookup 0-1" uni0425.ss01
Colour: ff0000
EndChar

StartChar: uni0426
Encoding: 198 1062 119
Width: 787
VWidth: 0
Flags: HW
LayerCount: 2
Fore
SplineSet
569 0 m 5
 569 40 l 5
 821 40 l 6
 826.032258065 40 830 36.5 830 33 c 4
 830 25 824.954221941 19.2250851231 815 9 c 6
 668 -142 l 5
 707 -159 l 6
 727.943646409 -168.129281768 763.336611416 -193.683540329 784 -216 c 4
 809 -243 830 -256 855 -256 c 4
 875 -256 897.286198874 -245.752982432 928 -229 c 4
 950 -217 966 -210 975 -210 c 4
 980 -210 982.735088936 -211.470177872 984 -214 c 4
 985 -216 986 -218 986 -220 c 4
 986 -234 958.178656701 -255.38133796 903 -281 c 4
 875 -294 852 -300 829 -300 c 4
 808 -300 788 -295 763 -285 c 5
 763 -285 l 5
 742 -276 708.618797695 -252.292828819 687 -234 c 4
 661 -212 646 -202 628 -202 c 4
 617 -202 604.059008063 -206.126611663 587 -214 c 4
 574 -220 564 -223 559 -223 c 4
 554 -223 552 -221 552 -218 c 4
 552 -207 576.473938381 -178.490571814 621 -135 c 4
 721 -34 l 6
 721 -34 743 -13 743 -8 c 4
 743 4.4408920985e-016 730 0 730 0 c 6
 569 0 l 5
487 690 m 1
 690 690 l 1
 694 685 697 680 697 673 c 0
 697 667 694.381630826 656 690 656 c 2
 639 656 l 2
 633 656 629 652 629 646 c 2
 629 500 l 1
 547 500 l 1
 547 646 l 2
 547 652 543 656 537 656 c 2
 487 656 l 2
 483.067929362 656 480 666.625 480 673 c 0
 480 678 482.625 685 487 690 c 1
97 690 m 1
 300 690 l 1
 304 685 307 680 307 673 c 0
 307 667 304.381630826 656 300 656 c 2
 249 656 l 2
 243 656 239 652 239 646 c 2
 239 500 l 1
 157 500 l 1
 157 646 l 2
 157 652 153 656 147 656 c 2
 97 656 l 2
 93.067929362 656 90 666.625 90 673 c 0
 90 678 92.625 685 97 690 c 1
239 500 m 1
 239 50 l 1
 239 44 243 40 249 40 c 1
 537 40 l 1
 543 40 547 44 547 50 c 1
 547 500 l 1
 629 500 l 1
 629 40 l 0
 629 10 619 -3.67381906147e-015 589 0 c 2
 197 0 l 2
 167 0 157 10 157 40 c 0
 157 500 l 1
 239 500 l 1
EndSplineSet
Substitution2: "'ss01' Style Set 1 lookup 0-1" uni0426.ss01
EndChar

StartChar: uni0427
Encoding: 199 1063 120
Width: 680
VWidth: 0
Flags: HW
LayerCount: 2
Fore
SplineSet
97 690 m 1
 300 690 l 1
 304 685 307 680 307 673 c 0
 307 667 304.381630826 656 300 656 c 2
 249 656 l 2
 243 656 239 652 239 646 c 2
 239 500 l 1
 157 500 l 1
 157 646 l 2
 157 652 153 656 147 656 c 2
 97 656 l 2
 93.067929362 656 90 666.625 90 673 c 0
 90 678 92.625 685 97 690 c 1
239 500 m 1
 239 449 l 2
 239 409 241.378378378 332 327 332 c 0
 363.235129821 332 428.132556607 361.154235085 440 397 c 1
 475 397 l 1
 475 357 l 1
 440 340 l 1
 413.240054251 328 342.42316074 298 306 298 c 0
 196.078576628 298 157 363.05411316 157 437 c 2
 157 500 l 1
 239 500 l 1
EndSplineSet
Refer: 11 1048 N 1 0 0 1 282 0 2
Substitution2: "'ss01' Style Set 1 lookup 0-1" uni0427.ss01
EndChar

StartChar: uni0428
Encoding: 200 1064 121
Width: 1069
VWidth: 0
Flags: HW
LayerCount: 2
Fore
SplineSet
769 690 m 1
 972 690 l 1
 976 685 979 680 979 673 c 0
 979 667 976.381630826 656 972 656 c 2
 921 656 l 2
 915 656 911 652 911 646 c 2
 911 500 l 1
 829 500 l 1
 829 646 l 2
 829 652 825 656 819 656 c 2
 769 656 l 2
 765.067929362 656 762 666.625 762 673 c 0
 762 678 764.625 685 769 690 c 1
433 690 m 1
 636 690 l 1
 640 685 643 680 643 673 c 0
 643 667 640.381630826 656 636 656 c 2
 585 656 l 2
 579 656 575 652 575 646 c 2
 575 500 l 1
 493 500 l 1
 493 646 l 2
 493 652 489 656 483 656 c 2
 433 656 l 2
 429.067929362 656 426 666.625 426 673 c 0
 426 678 428.625 685 433 690 c 1
97 690 m 5
 300 690 l 5
 304 685 307 680 307 673 c 4
 307 667 304.381630826 656 300 656 c 6
 249 656 l 6
 243 656 239 652 239 646 c 6
 239 500 l 5
 157 500 l 5
 157 646 l 6
 157 652 153 656 147 656 c 6
 97 656 l 6
 93.067929362 656 90 666.625 90 673 c 4
 90 678 92.625 685 97 690 c 5
239 500 m 1
 239 50 l 1
 239 44 243 40 249 40 c 1
 483 40 l 1
 489 40 493 44 493 50 c 1
 493 500 l 1
 575 500 l 1
 575 50 l 1
 575 44 579 40 585 40 c 1
 819 40 l 1
 825 40 829 44 829 50 c 1
 829 500 l 1
 911 500 l 1
 911 40 l 0
 911 10 901 -3.67381906147e-015 871 0 c 2
 197 0 l 2
 167 0 157 10 157 40 c 0
 157 500 l 1
 239 500 l 1
EndSplineSet
Substitution2: "'ss01' Style Set 1 lookup 0-1" uni0428.ss01
EndChar

StartChar: uni0429
Encoding: 201 1065 122
Width: 1070
VWidth: 0
Flags: HW
LayerCount: 2
Fore
SplineSet
850 0 m 5
 850 50 l 5
 1105 50 l 4
 1124.09090909 48 1133 37 1133 23 c 4
 1133 14.2455997459 1130.23597649 2.68234106641 1120.68164062 -14 c 6
 998.119233596 -228 l 6
 989.029357848 -243.871370815 976.114123382 -245 962 -245 c 4
 944 -245 930 -239 930 -232 c 4
 930 -225 957.325029126 -170.978322427 990 -112 c 4
 1040 -13 l 4
 1040 -5.64646464646 1036.75 -8.2660928883e-016 1030 0 c 6
 850 0 l 5
EndSplineSet
Refer: 121 1064 N 1 0 0 1 0 0 2
Substitution2: "'ss01' Style Set 1 lookup 0-1" uni0429.ss01
EndChar

StartChar: uni042A
Encoding: 202 1066 123
Width: 814
VWidth: 0
Flags: HW
LayerCount: 2
Fore
SplineSet
354 34 m 2
 529 34 646 162 646 324 c 0
 646 509 544 634 391 634 c 0
 338 634 264 600 240 561 c 1
 240 44 l 2
 240 38 244 34 250 34 c 2
 354 34 l 2
240 917 m 2
 240 611 l 1
 277 640 342 676 446 676 c 0
 637 676 744 537 744 336 c 0
 744 165 635 0 452 0 c 2
 97 0 l 1
 93 5 90 12 90 17 c 0
 90 23 93 34 97 34 c 2
 148 34 l 2
 154 34 158 38 158 44 c 2
 158 873 l 1
 151 879 140 881 131 881 c 0
 116 881 97 876 74 864 c 0
 23 838 -13 802 -13 777 c 0
 -13 766 -17 760 -23 760 c 0
 -31 760 -44 770 -44 787 c 0
 -44 789 -45 791 -45 793 c 0
 -45 851.379084967 71 947 178 947 c 2
 211 947 l 2
 225 947 240 944.875 240 930 c 2
 240 917 l 2
EndSplineSet
Substitution2: "'ss01' Style Set 1 lookup 0-1" uni042A.ss01
EndChar

StartChar: uni042C
Encoding: 204 1068 125
Width: 814
VWidth: 0
Flags: HW
LayerCount: 2
Fore
SplineSet
354 34 m 6
 528.703395835 34 646 161.619200557 646 324 c 4
 646 509 543.514664856 634.021484375 390.706054688 634.021484375 c 4
 338.08286488 634.021484375 263.655025464 600.425132941 240 561 c 5
 240 44 l 6
 240 38 244 34 250 34 c 4
 354 34 l 6
98 920 m 5
 301 920 l 5
 305 915 308 910 308 903 c 4
 308 897 305.381630826 886 301 886 c 6
 250 886 l 6
 244 886 240 882 240 876 c 6
 240 611.216796875 l 5
 277 639.999734573 342.167228453 676 446 676 c 4
 636.617994999 676 744 537.175452715 744 336 c 4
 744 165.283115356 634.540812449 0 452 0 c 4
 97 0 l 5
 92.625 5 90 12 90 17 c 4
 90 23.375 93.1273320616 34 97 34 c 6
 148 34 l 6
 154 34 158 38 158 44 c 6
 158 876 l 6
 158 882 154 886 148 886 c 6
 98 886 l 6
 94.067929362 886 91 896.625 91 903 c 4
 91 908 93.625 915 98 920 c 5
EndSplineSet
Substitution2: "'ss01' Style Set 1 lookup 0-1" uni042C.ss01
EndChar

StartChar: uni042D
Encoding: 205 1069 126
Width: 761
VWidth: 0
Flags: HW
LayerCount: 2
Fore
SplineSet
100.368164062 36.8251953125 m 2
 100.096679688 69.4541015625 95.673828125 117.883789062 90.5380859375 144.432617188 c 0
 87.4825910687 160.2322529 86.0155429102 172.413423435 86.0155429102 180.974622052 c 0
 86.0155429102 191.095707931 88.0658997205 196.157495631 91.9660317285 196.157495631 c 0
 99.1552035482 196.157495631 112.629560361 178.958501867 131.1328125 144.544921875 c 0
 157.048828125 96.3984375 174.6640625 79.3994140625 225.182617188 53.7333984375 c 0
 268.268894527 31.8464555231 311.138427802 21.6373080974 351.6859672 21.6373080974 c 0
 489.196965873 21.6373080974 600.002082076 139.055486533 601.986328125 316.607421875 c 0
 602.012584069 318.95769747 602.025444042 321.304423199 602.025444042 323.641593325 c 0
 602.025444042 361.552369299 598.641799317 396.948927965 594.162109375 404.19921875 c 0
 588.514831938 413.332909463 568.983833267 417.747875916 546.766168668 417.747875916 c 0
 521.450394189 417.747875916 492.646436467 412.015785507 476.918945312 401.000976562 c 0
 463.420898438 391.541015625 438.524414062 358.357421875 421.59375 327.25390625 c 0
 382.107307362 254.695273719 333.805962911 223.620203335 259.703001266 223.620203335 c 0
 257.313396172 223.620203335 254.896960622 223.652517524 252.453125 223.716796875 c 0
 187.165039062 225.434570312 95.544921875 261.961914062 84.533203125 290.658203125 c 0
 81.9937946728 297.275293349 80.62158013 302.376901312 80.62158013 305.980195785 c 0
 80.62158013 310.343245903 82.633464005 312.509531117 87.0212045373 312.509531117 c 0
 94.3470280669 312.509531117 108.295798371 306.470786472 130.561523438 294.53515625 c 0
 158.397298963 279.614384534 190.251609891 271.964948843 218.644550323 271.964948843 c 0
 241.524355016 271.964948843 262.156492701 276.932167535 276.626953125 287.064453125 c 0
 289.040039062 295.766601562 316.524414062 328.271484375 337.704101562 359.306640625 c 0
 387.751384299 432.646996825 423.508793513 453.602858071 502.019973819 453.602858071 c 0
 504.208523279 453.602858071 506.430294615 453.586574291 508.686523438 453.5546875 c 0
 511.797318108 453.506937153 514.860268035 453.483766117 517.861205913 453.483766117 c 0
 550.334120409 453.483766117 575.545898437 456.196917158 575.545898438 459.838867188 c 0
 575.545898438 488.456054688 510.68359375 568.112304688 461.88671875 599.430664062 c 0
 421.4892337 625.354134276 376.476721461 638.479494144 332.116008433 638.479494144 c 0
 297.083885899 638.479494144 262.458253207 630.293958842 230.833007812 613.76171875 c 0
 169.581054688 581.731445312 150.171875 557.737304688 134.224609375 494.288085938 c 0
 127.214597601 466.393276431 116.603341028 434.975077014 111.669926933 434.975077014 c 0
 107.014914557 434.975077014 101.079969053 478.562746064 98.2724609375 534.1953125 c 0
 95.373046875 591.610351562 90.95703125 646.209960938 88.4541015625 655.534179688 c 0
 85.904296875 665.0390625 91.287109375 672.487304688 100.705078125 672.487304688 c 0
 109.944335938 672.487304688 119.337890625 662.315429688 121.581054688 649.8828125 c 0
 125.597954969 627.610191288 131.697540822 616.947085453 146.797435919 616.947085453 c 0
 159.274000011 616.947085453 177.895248409 624.226992988 206.563476562 638.252929688 c 0
 258.865009642 663.843006419 301.70050781 675.857927567 346.774418905 675.857927567 c 0
 369.804427602 675.857927567 393.418792856 672.721331155 419.178710938 666.65625 c 0
 542.512695312 637.620117188 610.1015625 581.698242188 664.21875 463.908203125 c 0
 687.156685225 413.984663224 697.75442126 362.052418816 697.75442126 311.528527653 c 0
 697.75442126 145.966214998 583.954362946 -4.4729920388 417.66796875 -19.5498046875 c 0
 407.542100833 -20.4683779408 396.560325089 -20.9008508815 385.052937486 -20.9008508815 c 0
 311.608502353 -20.9008508815 216.753436475 -3.28420412575 186.359375 18.0068359375 c 0
 172.190990375 27.9302571479 160.955796733 32.9489076712 152.108955716 32.9489076712 c 0
 140.259503837 32.9489076712 132.694733271 23.9454975823 128.10546875 5.6650390625 c 0
 123.35415821 -13.2687721431 118.130141464 -22.1331860372 113.508573266 -22.1331860372 c 0
 106.378029931 -22.1331860372 100.681609848 -1.03152994194 100.368164062 36.74609375 c 2
 100.368164062 36.8251953125 l 2
EndSplineSet
Validated: 1
Substitution2: "'ss01' Style Set 1 lookup 0-1" uni042D.ss01
Colour: ff0000
EndChar

StartChar: uni042E
Encoding: 206 1070 127
Width: 1075
VWidth: 0
Flags: HW
LayerCount: 2
Fore
SplineSet
918.999023438 321 m 0
 918.999023438 518 848.79561899 672 648 672 c 0
 524.857027694 672 413.999023438 520.309570312 413.999023438 367 c 0
 413.999023438 152.903320312 523.878372132 18 667 18 c 0
 834.930780863 18 918.999023438 164.452148438 918.999023438 321 c 0
328 345 m 0
 328 534.763671875 452.372358656 708 667 708 c 0
 849.831980738 708 1005 555.1015625 1005 340 c 0
 1005 147.133789062 876.513626187 -18 673 -18 c 0
 480.079315604 -18 328 155.415039062 328 345 c 0
98 690 m 1
 301 690 l 1
 305 685 308 680 308 673 c 0
 308 667 305.381630826 656 301 656 c 2
 250 656 l 2
 244 656 240 652 240 646 c 2
 240 44 l 2
 240 38 244 34 250 34 c 2
 301 34 l 2
 305.381630825 34 308 23 308 17 c 0
 308 10 305 5 301 0 c 1
 97 0 l 1
 92.625 5 90 12 90 17 c 0
 90 23.375 93.1273320616 34 97 34 c 2
 148 34 l 2
 154 34 158 38 158 44 c 2
 158 646 l 2
 158 652 154 656 148 656 c 2
 98 656 l 2
 94.067929362 656 91 666.625 91 673 c 0
 91 678 93.625 685 98 690 c 1
206 367 m 1
 368 367 l 1
 368 324 l 1
 206 324 l 1
 206 367 l 1
EndSplineSet
Substitution2: "'ss01' Style Set 1 lookup 0-1" uni042E.ss01
EndChar

StartChar: uni042F
Encoding: 207 1071 128
Width: 790
VWidth: 0
Flags: HW
LayerCount: 2
Fore
SplineSet
90 -9 m 0
 74 -7 66 -3 66 2 c 0
 66 11 92 23 132 27 c 0
 207 35 234 63 267 171 c 0
 292 254 338 293 388 316 c 0
 395 319 404 324 414 331 c 1
 403 335 398 337 376 348 c 0
 316 378 272 423 272 493 c 0
 272 619 356 690 519 690 c 2
 693 690 l 1
 697 685 700 680 700 673 c 0
 700 667 697 656 693 656 c 2
 642 656 l 2
 636 656 632 652 632 646 c 2
 632 44 l 2
 632 38 636 34 642 34 c 2
 693 34 l 2
 697 34 700 23 700 17 c 0
 700 10 697 5 693 0 c 1
 489 0 l 1
 485 5 482 12 482 17 c 0
 482 23 485 34 489 34 c 2
 540 34 l 2
 546 34 550 38 550 44 c 0
 550 302 l 0
 550 315 536 321 520 321 c 0
 497 321 461 311 437 295 c 0
 407 275 393 253 374 196 c 0
 339 92 315 52 272 25 c 0
 240 5 165 -11 114 -11 c 0
 105 -11 97 -10 90 -9 c 0
509 656 m 2
 472 656 414 639 389 610 c 0
 366 584 354 541 354 498 c 0
 354 460 366 421 389 397 c 0
 420 365 440 355 509 355 c 2
 550 355 l 1
 550 646 l 2
 550 652 546 656 540 656 c 2
 509 656 l 2
EndSplineSet
Substitution2: "'ss01' Style Set 1 lookup 0-1" uni042F.ss01
EndChar

StartChar: uni0430
Encoding: 208 1072 129
Width: 427
VWidth: 0
Flags: HW
LayerCount: 2
Fore
SplineSet
225 50 m 1
 225 167 l 1
 178 167 l 2
 137 167 110 138.5 110 95 c 0
 110 30.7522856571 140.749904535 17 169 17 c 0
 200.773823802 17 214 33.9806129204 225 50 c 1
50 79 m 0
 50 152.21686747 104.927301023 179.050986517 158 182 c 2
 225 185 l 1
 225 250 l 2
 225 319.632160416 209.931558955 365 158 365 c 0
 128 365 102 338 102 298 c 0
 102 295.724114317 101.78125 293.400484359 101.78125 291 c 3
 101.78125 287.239030482 103.500976562 282.840739387 103.500976562 279 c 3
 103.500976562 274.057055129 99.4780325509 269.931640625 94 269.931640625 c 3
 76.3485123979 269.931640625 67 303.884032824 67 315 c 0
 67 333 77.266918118 351.748988743 97 373 c 0
 110 387 138 394 168 394 c 0
 252.927249057 394 301 356.968118026 301 267 c 0
 301 49 l 0
 301 30.3333333333 311.857142857 28 319 28 c 0
 330 28 346 33 353 41 c 0
 360 49 370 51 375 46 c 0
 376 45 377 44 377 42 c 0
 377 25 322 -17 296 -17 c 0
 263.648650405 -17 242.525513574 1.23724321309 228 15 c 1
 214.67200813 0.24671949796 187.102418837 -16 155 -16 c 0
 91.042816471 -16 50 16.9347110169 50 79 c 0
EndSplineSet
Substitution2: "'ss01' Style Set 1 lookup 0-1" uni0430.ss01
EndChar

StartChar: uni0431
Encoding: 209 1073 130
Width: 470
VWidth: 0
Flags: HW
LayerCount: 2
Fore
SplineSet
340 181 m 0
 340 285 308 344 233 344 c 0
 158 344 130 263 130 179 c 0
 130 90.2662721893 166 16 244 16 c 3
 323 16 340 90.298245614 340 181 c 0
50 218 m 0
 50 297 78.2959218708 371.509314624 124 428 c 0
 169.307086614 484 217.850393701 500 261 500 c 0
 279 500 297.192204705 494.375511821 317 484 c 0
 338 473 355 467 367 467 c 0
 380 467 387 477 387 495 c 0
 387 500 392 504 398 504 c 4
 405 504 409 500 409 493 c 0
 409 484 403.601886625 468.203773249 393 447 c 0
 382 425 368 415 348 415 c 0
 331 415 309.316062267 422.674517151 280 436 c 0
 258 446 247 451 236 451 c 0
 220 451 203.020183074 446.27887166 184 426 c 0
 162.275862069 401 121 339 121 314 c 1
 147.086956522 346 188.826086957 370 241 370 c 0
 358.202380952 370 420 293 420 166 c 0
 420 58.6593406593 342.220238095 -10 241 -10 c 3
 108.602272727 -10 50 80.6153846154 50 218 c 0
EndSplineSet
Substitution2: "'ss01' Style Set 1 lookup 0-1" uni0431.ss01
EndChar

StartChar: uni0432
Encoding: 210 1074 131
Width: 455
VWidth: 0
Flags: HW
LayerCount: 2
Fore
SplineSet
100 0 m 2
 94 0 90 10 90 16 c 0
 90 22 94 32 100 32 c 2
 115 32 l 2
 121 32 125 36 125 42 c 0
 125 342 l 0
 125 347.99609375 121 352 115 352 c 2
 100 352 l 2
 94 352 90 362 90 368 c 0
 90 374 94 384 100 384 c 2
 201 384 l 1
 201 0 l 1
 100 0 l 2
318 280 m 0
 318 310 308 352 261 352 c 2
 211 352 l 2
 205 352 201 347.995117188 201 341.995117188 c 2
 201 228 l 2
 201 222 205 218 211 218 c 2
 263.09765625 218 l 2
 295.09765625 218 318 251.818359375 318 280 c 0
325 97 m 3
 325 148.59765625 304.610351562 186 256 186 c 2
 211 186 l 2
 205 186 201 182 201 176 c 2
 201 32 l 1
 250 32 l 2
 298 32 325 56.548828125 325 97 c 3
125 0 m 1
 125 384 l 1
 264 384 l 2
 336.241210938 384 392 345 392 285 c 0
 392 245 356.18359375 211.557617188 332.78125 204.076171875 c 1
 367.71484375 196.15234375 405 170 405 110 c 0
 405 38.8759765625 344.420898438 -0 264 0 c 2
 125 0 l 1
EndSplineSet
Substitution2: "'ss01' Style Set 1 lookup 0-1" uni0432.ss01
EndChar

StartChar: uni0433
Encoding: 211 1075 132
Width: 406
VWidth: 0
Flags: HW
LayerCount: 2
Fore
SplineSet
201 42 m 2
 201 36 205 32 211 32 c 2
 226 32 l 2
 232 32 236 22 236 16 c 0
 236 10 232 0 226 0 c 0
 100 0 l 0
 94 0 90 10 90 16 c 0
 90 22 94 32 100 32 c 2
 115 32 l 2
 121 32 125 36 125 42 c 2
 125 342 l 2
 125 348 121 352 115 352 c 2
 100 352 l 2
 94 352 90 362 90 368 c 0
 90 374 94 384 100 384 c 2
 201 384 l 1
 201 42 l 2
149 0 m 1
 149 384 l 1
 268 384 l 1
 299 384 328 385 333 386 c 1
 335 387 337 387 339 387 c 1
 348 387 356 377 363 356 c 1
 372 332 376 315 376 306 c 1
 376 300 373 297 370 297 c 1
 365 297 356 303 343 316 c 1
 317 340 298 352 255 352 c 2
 201 352 l 1
 201 0 l 1
 149 0 l 1
EndSplineSet
Substitution2: "'ss01' Style Set 1 lookup 0-1" uni0433.ss01
EndChar

StartChar: uni0434
Encoding: 212 1076 133
Width: 546
VWidth: 0
Flags: HW
LayerCount: 2
Fore
SplineSet
-107 -282 m 0
 -107 -196 -69 -132 6 -92 c 0
 24 -82 82 -76 166 -75 c 0
 238 -74 304 -70 311 -65 c 0
 320 -60 324 -63 321 -77 c 0
 319 -88 300 -108 279 -120 c 0
 259 -132 247 -136 226 -136 c 0
 210 -136 189 -134 153 -128 c 0
 118 -122 91 -119 68 -119 c 0
 -23 -119 -79 -210 -79 -285 c 0
 -79 -388 5 -447 98 -447 c 0
 284 -447 345 -338 345 -96 c 2
 345 19 l 1
 320 3 288 -6 245 -6 c 0
 136 -6 50 55 50 165 c 0
 50 307 121 384 320 384 c 0
 446 384 l 0
 452 384 456 374 456 368 c 0
 456 362 452 352 446 352 c 2
 431 352 l 2
 425 352 421 348 421 342 c 0
 421 37 l 0
 421 -312 417 -346 259 -439 c 0
 223 -460 153 -474 97 -474 c 0
 -30 -474 -107 -380 -107 -282 c 0
320 352 m 0
 214 352 130 298 130 176 c 0
 130 88 186 10 264 10 c 0
 283 10 324 24 345 36 c 1
 345 342 l 0
 345 347 342 351 337 352 c 0
 332 352 326 352 320 352 c 0
EndSplineSet
Substitution2: "'ss01' Style Set 1 lookup 0-1" uni0434.ss01
EndChar

StartChar: uni0435
Encoding: 213 1077 134
Width: 460
VWidth: 0
Flags: HW
LayerCount: 2
Back
SplineSet
381 190 m 5
 373 296.628930818 330 363 257 363 c 7
 167 363 130 270.442825533 130 194 c 7
 130 100.086648522 179 20 256 20 c 4
 348.148506255 20 381 84.4000219645 381 190 c 5
50 192 m 7
 50 295.14893617 131.456410256 394 259 394 c 4
 386.347826087 394 461 309.173061496 461 190 c 7
 461 69.6001670976 379.65123092 -10 249 -10 c 7
 123.177144203 -10 50 77.4038461538 50 192 c 7
EndSplineSet
Fore
SplineSet
310 295 m 0
 310 328 276 363 243 363 c 0
 185.372001467 363 139 302 139 276 c 1
 139 276 157.743589744 276 225 276 c 0
 297 276 310 279 310 295 c 0
50 183 m 0
 50 320.776255708 151 394 258 394 c 0
 338 394 390 333 390 281 c 0
 390 271 351.017497429 264.715396662 261 259 c 2
 135 251 l 1
 133.379444837 245.121202165 130 216.30787453 130 205 c 0
 130 132.691729323 180 42 272 42 c 0
 317.445945946 42 362.711585477 54.8886460437 390 85 c 0
 397 91.6956521739 403.5 96 406 96 c 0
 410 96 410 93 410 90 c 0
 410 87.9861111111 405.074648553 79.7450161027 398 70 c 0
 356.330845249 25.9187803866 303.819767442 -10 231 -10 c 0
 138.443181818 -10 50 78 50 183 c 0
EndSplineSet
Substitution2: "'ss01' Style Set 1 lookup 0-1" uni0435.ss01
EndChar

StartChar: uni0436
Encoding: 214 1078 135
Width: 521
VWidth: 0
Flags: HW
LayerCount: 2
Back
SplineSet
25.005859375 2.623046875 m 4
 21.44140625 8.3876953125 28.1398252627 16.1532870563 39.8837890625 19.8818359375 c 4
 55.3310546875 24.7861328125 64.8517790936 45.0054324613 74.27734375 92.9150390625 c 4
 88.2412109375 163.892578125 131.555524944 234.461612567 181.075195312 266.91015625 c 4
 199.746205219 279.144629461 209.174804688 288.226704877 209.174804688 296.799804688 c 4
 209.174804688 305.919506719 198.503599011 314.461668568 176.939453125 325.61328125 c 4
 162.507950178 333.076342024 154.129751764 337.2265625 148.392578125 337.2265625 c 4
 140.975619738 337.2265625 137.973773226 330.289090332 132.010742188 314.60546875 c 4
 125.016506492 296.209631937 114.235823478 286.706054688 102.43359375 286.706054688 c 4
 93.7955782078 286.706054688 84.6107623566 291.797412458 75.9619140625 302.21875 c 4
 71.2176589586 307.935289606 69.1025390625 314.707038355 69.1025390625 321.653320312 c 4
 69.1025390625 342.585902858 88.3105347463 365.103515625 112.659179688 365.103515625 c 4
 126.518554688 365.103515625 156.855871626 354.920673534 180.073242188 342.4765625 c 6
 222.2890625 319.849609375 l 5
 222.2890625 348.126953125 l 6
 222.2890625 369.725585938 216.416992188 376.405273438 197.424804688 376.405273438 c 4
 179.995117188 376.405273438 176.123586872 379.965280287 184.475585938 388.317382812 c 4
 189.735838884 393.577700919 211.924769778 396.784179688 239.34375 396.784179688 c 4
 246.920555348 396.784179688 254.896800313 396.540740771 263.025390625 396.025390625 c 4
 297.725521325 393.825412923 313.293945312 391.597969405 313.293945312 388.190429688 c 4
 313.293945312 386.662476074 310.165029519 384.897554876 304.228515625 382.791015625 c 4
 287.914103451 377.001936342 278.568359375 365.892518086 278.568359375 354.904296875 c 4
 278.568359375 349.590035272 280.753207709 344.302890913 285.395507812 339.662109375 c 4
 286.034104345 339.023721737 287.184334718 338.719726562 288.760742188 338.719726562 c 4
 296.139874009 338.719726562 312.852833456 345.385405528 330.145507812 355.586914062 c 4
 351.571603411 368.226861627 371.187372148 374.418945312 386.91015625 374.418945312 c 4
 407.206623218 374.418945312 421.015167311 364.100362165 423.857421875 344.013671875 c 4
 424.492362505 339.526439823 424.79296875 335.350141144 424.79296875 331.504882812 c 4
 424.79296875 312.135615021 417.163582158 301.166015625 406.216796875 301.166015625 c 4
 398.608567411 301.166015625 389.39905369 306.466653839 380.032226562 317.927734375 c 4
 369.11785302 331.282364762 356.614657045 337.920898438 343.700195312 337.920898438 c 4
 329.137528514 337.920898438 314.051824997 329.479268078 300.131835938 312.70703125 c 4
 294.877338377 306.375871281 292.098632812 301.88290564 292.098632812 298.030273438 c 4
 292.098632812 292.900645584 297.022746966 288.904727442 307.587890625 283.219726562 c 4
 319.727539062 276.6875 350.820264041 249.581113413 376.693359375 222.991210938 c 4
 413.458007812 185.208007812 426.876537275 160.276276044 438.155273438 108.817382812 c 4
 449.93088305 55.0915194651 461.658578488 30.3271484375 475.90625 30.3271484375 c 4
 478.67674862 30.3271484375 481.542353132 31.263492151 484.522460938 33.1044921875 c 4
 489.481445313 36.16796875 493.5390625 30.7421875 493.5390625 21.056640625 c 4
 493.5390625 7.302734375 480.3203125 3.4365234375 433.260742188 3.4365234375 c 4
 384.148155505 3.4365234375 363.13671875 7.354276116 363.13671875 18.6201171875 c 4
 363.13671875 22.625992767 365.794923501 27.5596708745 370.788085938 33.5791015625 c 4
 376.219691892 40.127091135 378.756835938 52.7317750872 378.756835938 68.5205078125 c 4
 378.756835938 98.7878432507 369.43117764 140.756338707 353.299804688 174.188476562 c 4
 331.925584569 218.486372078 298.45036664 263.922851562 288.032226562 263.922851562 c 4
 287.273116257 263.922851562 286.636626813 263.681259742 286.135742188 263.180664062 c 4
 284.766433594 261.812145384 284.095703125 249.911394718 284.095703125 231.3984375 c 4
 284.095703125 208.94523638 285.081921001 176.765824106 287.005859375 141.853515625 c 4
 291.786132812 55.109375 297.230468749 26.041015625 308.698242188 26.041015625 c 4
 317.118164063 26.041015625 324.0078125 20.955078125 324.0078125 14.7392578125 c 4
 324.0078125 8.48939894001 294.351984484 3.7822265625 255.676757812 3.7822265625 c 4
 254.91103504 3.7822265625 254.141770861 3.78281658217 253.369140625 3.787109375 c 4
 210.57402204 4.02488233509 194.381835938 5.09205324407 194.381835938 10.1669921875 c 4
 194.381835938 12.3455774694 197.36395334 15.2654705722 202.510742188 19.169921875 c 4
 218.381834544 31.2100325284 221.90625 50.7746379245 221.90625 138.15625 c 4
 221.90625 142.472110844 221.897936825 146.953413785 221.881835938 151.607421875 c 6
 221.475585938 269.03515625 l 5
 195.047851562 236.723632812 l 6
 164.357330994 199.200269645 147.865054591 148.160410484 137.013671875 57.1220703125 c 6
 129.267578125 -7.8642578125 l 5
 80.376953125 -7.8642578125 l 6
 53.48828125 -7.8642578125 28.5751188162 -3.1493746267 25.005859375 2.623046875 c 4
EndSplineSet
Fore
SplineSet
237 300 m 1
 249 300 l 1
 249 287 l 1
 212.260430416 267.506795523 182.395840559 223.84989599 163.872070312 175 c 0
 152.510165446 145.036992276 145.994674737 106.837057499 139 57 c 2
 131 0 l 1
 82 0 l 2
 35 0 l 0
 29 0 25 10 25 16 c 3
 25 22 29 32 35 32 c 2
 42 32 l 2
 58 32 66.9999399161 54.0000138656 76 93 c 0
 87.7459730432 143.898858624 114.493931499 193.47817173 143.75390625 232 c 0
 166.356149695 261.756681197 194.027777572 284.084280468 237 300 c 1
273 300 m 1
 318.483892083 286.737115516 354.567709765 261.096214768 379 232 c 0
 412.824428686 191.718764307 428.168127468 163.856863559 440 109 c 0
 451.662974819 54.9262076569 464 32 478 32 c 2
 486 32 l 2
 492 32 496 22 496 16 c 0
 496 10 492 -7.34763812293e-016 486 0 c 2
 367 0 l 2
 361 0 357 10 357 16 c 0
 357 21 361 32 367 32 c 1
 370 32 l 2
 378 32 381 56 381 69 c 0
 381 99 371.427933073 141.210931472 355 174 c 0
 330.408855573 223.082298802 300.563737302 264.909556383 261 287 c 1
 261 300 l 1
 273 300 l 1
261 300 m 1
 307.591073842 325.609157893 369.208698666 354 394 354 c 0
 419 354 437 337 437 312 c 0
 437 277.588235294 418 273 406 273 c 0
 394 273 379.269291695 286.641210733 376 301 c 0
 372.207022717 315.278993718 365.777777778 322 360 322 c 0
 325.146511667 322 301.584516397 304.163899095 273 280 c 1
 261 280 l 1
 261 300 l 1
249 300 m 1
 249 280 l 1
 237 280 l 1
 210.62726523 303.284253005 182.992897298 322 150 322 c 0
 143 322 139.779142366 317.081091801 134 301 c 0
 127.218679968 278.985279898 116 273 104 273 c 0
 92 273 71 277.588235294 71 312 c 0
 71 337 91 354 116 354 c 0
 140.490583314 354 201.542890659 326.82077579 249 300 c 1
EndSplineSet
Refer: 137 1080 N 1 0 0 1 92 0 2
Substitution2: "'ss01' Style Set 1 lookup 0-1" uni0436.ss01
EndChar

StartChar: uni0437
Encoding: 215 1079 136
Width: 300
VWidth: 0
Flags: HW
LayerCount: 2
Fore
SplineSet
35 100 m 2
 35 105.423728814 40 110 46 110 c 0
 52 110 57 103 57 95 c 0
 57 71.046875 105 22 128 22 c 0
 184.222192252 22 206 49.2793746243 206 84 c 0
 206 114 187.415417221 143.214678544 145 165 c 2
 131.371197293 171.99999829 l 2
 68.0687629277 204.513267567 37 244.056057249 37 284 c 0
 37 364.914472558 107.45212495 394 155 394 c 0
 164.181096507 394 178.059785253 393.284582488 189 390.276367188 c 0
 197.086540808 388.052767211 203.935576419 388 207 388 c 0
 216.35 388 224.874264692 390.499732615 229 392 c 0
 231 394 232 394 234 394 c 0
 239 394 240.902121864 387.319861178 243 374 c 2
 250 314 l 2
 250.635938082 308.549102151 247.632052219 305 241 305 c 0
 233.68 305 228.998098429 314.671103665 223 331 c 0
 214.980070434 352.833019254 185 365 161 365 c 0
 128.017938059 365 97 356.429289419 97 305 c 0
 97 265.082306486 122.853267464 244.523981873 143.999998834 228.042775802 c 1
 184.999998778 208.071827767 l 2
 239.063987604 180.261756213 286 150.945438674 286 95 c 0
 286 39.590794156 240.735606875 -10 137 -10 c 0
 124 -10 112.836453013 -4.68488056874 97 4 c 0
 84.8893834074 10.641591942 74 11 66 11 c 0
 58 11 51 8 47 4 c 0
 45 2 44 2 43 2 c 0
 38 2 35 4.75510204082 35 11 c 2
 35 100 l 2
EndSplineSet
Substitution2: "'ss01' Style Set 1 lookup 0-1" uni0437.ss01
Colour: ff0000
EndChar

StartChar: uni0438
Encoding: 216 1080 137
Width: 326
VWidth: 0
Flags: HW
LayerCount: 2
Fore
SplineSet
100 0 m 6
 94 0 90 10 90 16 c 4
 90 22 94 32 100 32 c 6
 115 32 l 6
 121 32 125 36 125 42 c 4
 125 342 l 4
 125 347.99609375 121 352 115 352 c 6
 100 352 l 6
 94 352 90 362 90 368 c 4
 90 374 94 384 100 384 c 6
 226 384 l 6
 232 384 236 374 236 368 c 4
 236 362 232 352 226 352 c 6
 211 352 l 6
 205 352 201 347.99609375 201 342 c 4
 201 42 l 4
 201 36 205 32 211 32 c 6
 226 32 l 6
 232 32 236 22 236 16 c 4
 236 10 232 0 226 0 c 6
 100 0 l 6
EndSplineSet
Substitution2: "'ss01' Style Set 1 lookup 0-1" uni0438.ss01
EndChar

StartChar: uni043A
Encoding: 218 1082 139
Width: 514
VWidth: 0
Flags: HW
LayerCount: 2
Back
SplineSet
133.387695312 32 m 5
 133.387695312 342 l 5
 201 342 l 5
 201 216 l 5
 202.205190233 211.240512788 203.863989273 208.830078125 211.838867188 208.830078125 c 4
 221.715338276 208.830078125 240.603022514 234.547338685 276.500976562 286.98828125 c 4
 298.356560111 318.915655162 309.2421875 339.599332323 309.2421875 349.248046875 c 4
 309.2421875 352.40785212 308.075172553 354.385163187 305.743164062 355.184570312 c 4
 302.692059518 356.230481905 300.118214094 357.29958145 297.999999534 358.37881852 c 5
 292.769721303 362.589182963 290.317382812 367.904738813 290.317382812 372 c 4
 290.317382812 375.755012978 294 384 303 384 c 6
 394 384 l 6
 400.78116143 384 404.259765625 376.871553309 404.259765625 372 c 4
 404.259765625 367.218392377 400.62142862 363.797302861 393 358.716594547 c 5
 388.925910234 357.022966799 383.713646338 355.347544359 377.310546875 353.73828125 c 4
 369.392667483 351.748315097 351.647439766 336.723658488 331.703156698 317.000000914 c 4
 293.19635409 278.919164099 246.4921875 223.321978159 246.4921875 210.201171875 c 4
 246.4921875 206.540039062 259.391139548 197.63177325 275.25 190.400390625 c 4
 291.11328125 183.166992188 311.266134126 160.087855933 320.040039062 139.08984375 c 4
 348.154381323 71.8056292998 396.011479855 29.107421875 435.118164062 29.107421875 c 4
 448.044455027 29.107421875 460.016864858 33.7700733737 470 43.755859375 c 4
 477.35546875 51.11328125 487.275393713 53.2177697332 492.0390625 48.435546875 c 4
 493.469097474 46.9999420406 494.137695312 45.2892423753 494.137695312 43.369140625 c 4
 494.137695312 20.8799079681 426.763789621 -13.099609375 379.7734375 -13.099609375 c 4
 332.896046162 -13.099609375 301.991507905 13.3273207811 274.447265625 74.0458984375 c 4
 235.045898438 160.90234375 229.845513946 169.635175533 214.51953125 174.747070312 c 4
 213.947636286 174.937822641 213.3959937 175.034179688 212.864257812 175.034179688 c 4
 205.18759289 175.034179688 202.495703895 172.249642353 201 166 c 5
 201 32 l 5
 133.387695312 32 l 5
EndSplineSet
Fore
SplineSet
191 176 m 1
 191 205 l 1
 229 205 l 1
 271 205 304.788386716 173.016890311 320.040039062 139.08984375 c 0
 348.154381323 71.8056292998 396.011479855 29.107421875 435.118164062 29.107421875 c 0
 448.044455027 29.107421875 460.016864858 33.7700733737 470 43.755859375 c 0
 474.625866946 48.3829546451 480.266020878 50.9978774671 484.999999779 50.9978774671 c 3
 490.051445589 50.9978774671 494 48.1123840191 494 43 c 0
 494 20.5107673431 426.763789621 -13.099609375 379.7734375 -13.099609375 c 0
 332.896046162 -13.099609375 302.578577957 13.5970752734 274.447265625 74.0458984375 c 0
 232.630409716 165.70029789 227.446649958 176 205 176 c 2
 201 176 l 1
 191 176 l 1
173 205 m 1
 201 205 l 1
 298 312 l 2
 310.855606942 325.518267094 315 340.363984946 315 342 c 0
 315 348 315 352 309 352 c 1
 300 352 l 2
 294 352 290 362 290 368 c 0
 290 374 294 384 300 384 c 2
 394 384 l 2
 400 384 404 374 404 368 c 0
 404 362 400 352 394 352 c 1
 384 352 l 0
 369 352 349.489675014 335.530662846 331.703156698 317.000000914 c 2
 229 205 l 1
 229 176 l 1
 173 176 l 1
 173 205 l 1
EndSplineSet
Refer: 137 1080 N 1 0 0 1 0 0 2
Substitution2: "'ss01' Style Set 1 lookup 0-1" uni043A.ss01
EndChar

StartChar: uni043B
Encoding: 219 1083 140
Width: 514
VWidth: 0
Flags: HW
LayerCount: 2
Fore
SplineSet
58.681640625 2.8681640625 m 0
 53.0478515625 9.6572265625 50.44140625 16.1552734375 50.44140625 21.814453125 c 0
 50.44140625 33.3056640625 61.1845703125 41.3408203125 79.1435546875 41.3408203125 c 0
 81.8798828125 41.3408203125 84.78515625 41.154296875 87.8447265625 40.7646484375 c 0
 90.2724609375 40.455078125 92.515625 40.2578125 94.6259765625 40.2578125 c 0
 114.646484375 40.2578125 122.646484375 58.05859375 161.4375 167.24609375 c 0
 199.248046875 273.671875 214.213867188 317.8515625 214.213867188 335.924804688 c 0
 214.213867188 346.319335938 209.264648438 348.079101562 200.86328125 348.079101562 c 0
 190.814453125 348.079101562 182.592773438 353.165039062 182.592773438 359.381835938 c 0
 182.592773438 365.59765625 203.2265625 370.682617188 228.443359375 370.682617188 c 2
 274.295898438 370.682617188 l 1
 314.774414062 283.091796875 l 2
 337.0390625 234.912109375 369.0390625 159.899414062 385.889648438 116.38671875 c 0
 405.540039062 65.6298828125 425.239257812 33.271484375 440.834960938 26.1171875 c 0
 456.360351562 18.9912109375 464 12.9697265625 464 8.330078125 c 0
 464 1.54296875 447.645507812 -2.28515625 415.70703125 -2.28515625 c 2
 366.26953125 -2.28515625 l 1
 306.2265625 145.275390625 l 2
 273.8515625 224.840820312 242.248046875 297.782226562 238.012695312 297.782226562 c 0
 232.907226562 297.782226562 208.494140625 240.4453125 182.915039062 168.150390625 c 0
 136.39453125 36.681640625 111.018554688 -15.185546875 85.9443359375 -15.185546875 c 0
 77.1220703125 -15.185546875 68.3369140625 -8.765625 58.681640625 2.8681640625 c 0
EndSplineSet
Substitution2: "'ss01' Style Set 1 lookup 0-1" uni043B.ss01
Colour: ff0000
EndChar

StartChar: uni043C
Encoding: 220 1084 141
Width: 643
VWidth: 0
Flags: HW
LayerCount: 2
Fore
SplineSet
125 0 m 2
 119 0 115 10 115 16 c 0
 115 22 119 32 125 32 c 2
 140 32 l 2
 146 32 150 36 150 42 c 0
 150 342 l 0
 150 347.99609375 146 352 140 352 c 2
 132 352 l 2
 132 352 122 362 122 368 c 0
 122 374 126 384 132 384 c 2
 176 384 l 1
 176 42 l 0
 176 36 180 32 186 32 c 2
 201 32 l 2
 207 32 211 22 211 16 c 0
 211 10 207 0 201 0 c 2
 125 0 l 2
417 0 m 2
 411 0 407 10 407 16 c 0
 407 22 411 32 417 32 c 2
 432 32 l 2
 438 32 442 36 442 42 c 2
 442 384 l 1
 543 384 l 2
 548.946994923 384 553 374 553 368 c 0
 553 362 549 352 543 352 c 2
 528 352 l 2
 522 352 518 347.99609375 518 342 c 0
 518 42 l 0
 518 36 522 32 528 32 c 2
 543 32 l 2
 549 32 553 22 553 16 c 0
 553 10 549 0 543 0 c 2
 417 0 l 2
110 352 m 2
 100 352 l 1
 94 352 90 362 90 368 c 3
 90 374 94 384 100 384 c 1
 176 384 l 1
 324.587890625 192.923828125 l 1
 442 384 l 1
 539 384 l 1
 539 369.90234375 l 0
 523.826171875 369.90234375 512.098368378 361.860090862 505.419921875 357.83203125 c 0
 503.490708513 356.668439324 502.5390625 350.696859524 502.5390625 340 c 1
 442 340 l 1
 308.104492188 117 l 1
 305.104492188 117 l 1
 177.786132812 279.485351562 l 1
 164.443945567 298.2842268 125.472731796 352 110 352 c 2
EndSplineSet
Substitution2: "'ss01' Style Set 1 lookup 0-1" uni043C.ss01
EndChar

StartChar: uni043E
Encoding: 222 1086 142
Width: 511
VWidth: 0
Flags: HW
LayerCount: 2
Fore
SplineSet
381 190 m 5
 373 296.628930818 330 363 257 363 c 7
 167 363 130 270.442825533 130 194 c 7
 130 100.086648522 179 20 256 20 c 4
 348.148506255 20 381 84.4000219645 381 190 c 5
50 192 m 7
 50 295.14893617 131.456410256 394 259 394 c 4
 386.347826087 394 461 309.173061496 461 190 c 7
 461 69.6001670976 379.65123092 -10 249 -10 c 7
 123.177144203 -10 50 77.4038461538 50 192 c 7
EndSplineSet
Substitution2: "'ss01' Style Set 1 lookup 0-1" uni043E.ss01
EndChar

StartChar: uni043F
Encoding: 223 1087 143
Width: 591
VWidth: 0
Flags: HW
LayerCount: 2
Fore
SplineSet
365 0 m 2
 359 0 355 10 355 16 c 0
 355 22 359 32 365 32 c 2
 380 32 l 2
 386 32 390 36 390 42 c 0
 390 162 l 1
 466 162 l 1
 466 42 l 0
 466 36 470 32 476 32 c 2
 491 32 l 2
 497 32 501 22 501 16 c 0
 501 10 497 -7.34763812293e-016 491 0 c 2
 365 0 l 2
100 0 m 2
 94 0 90 10 90 16 c 0
 90 22 94 32 100 32 c 2
 115 32 l 2
 121 32 125 36 125 42 c 0
 125 162 l 1
 201 162 l 1
 201 42 l 0
 201 36 205 32 211 32 c 2
 226 32 l 2
 232 32 236 22 236 16 c 0
 236 10 232 -7.34763812293e-016 226 0 c 2
 100 0 l 2
125 162 m 1
 125 246 l 6
 125 304.859243357 108.442155485 314.774592953 90 322 c 5
 67 309.7265625 l 7
 56.9984478658 309.7265625 51 314.341532205 51 325 c 4
 154 392.01953125 l 6
 155.849158876 393.222732814 157.593639446 394 159 394 c 7
 161.408398354 394 168.059025208 388.963727313 168.059025208 382.000000318 c 7
 168.059025208 379.151059017 167.068272012 375.979515296 164.232421875 372.698242188 c 4
 151 363 l 5
 169.31906616 353.59671696 182.202573149 336.888306952 191 308 c 5
 213.676928886 332.235961468 273.195831441 394 333 394 c 0
 436.425449304 394 466 374.073370195 466 244 c 2
 466 162 l 1
 390 162 l 1
 390 245.811523438 l 2
 390 321.7857373 376.774754294 371 323 371 c 0
 286.74795271 371 226.551657748 308.951771397 201 279 c 1
 201 162 l 1
 125 162 l 1
EndSplineSet
Substitution2: "'ss01' Style Set 1 lookup 0-1" uni043F.ss01
EndChar

StartChar: uni0440
Encoding: 224 1088 144
Width: 515
VWidth: 0
Flags: HW
LayerCount: 2
Back
SplineSet
319.219726562 37.458984375 m 4
 369.290096716 71.2027439848 385.878111676 106.424638985 385.878111676 178.111117143 c 4
 385.878111676 289.364773683 345.855033199 339.450195313 257.069335938 339.450195312 c 4
 189.232421875 339.450195312 171.302734375 308.131835938 171.302734375 189.641601562 c 4
 171.302734375 75.76171875 180.828125 50.21875 231.528320312 28.1572265625 c 4
 252.464439502 19.0528281311 263.337922396 13.8623503645 273 13.8623503645 c 7
 284.818984802 13.8623503645 294.825341239 21.0173158901 319.219726562 37.458984375 c 4
117.618164062 -307.649414062 m 6
 60.119140625 -305.603515625 13.07421875 -299.026367188 13.07421875 -293.046875 c 4
 13.07421875 -287.057617188 30.08984375 -282.163085938 50.88671875 -282.163085938 c 6
 88.7001953125 -282.163085938 l 5
 96.048828125 -138.061523438 l 6
 100.7235529 -46.4160697038 102.997207325 52.5567989768 102.997207325 134.629371547 c 4
 102.997207325 231.706782396 99.8161995346 305.139450665 93.6650390625 314.833984375 c 4
 89.2846857669 321.746296555 80.8205636579 325.092111637 66.7096720324 325.092111637 c 4
 59.4315675634 325.092111637 50.6512632283 324.202030511 40.154296875 322.452148438 c 4
 27.7565477252 320.386796649 18.9932094014 318.985561492 14.4611099004 318.985561492 c 4
 12.1192758388 318.985561492 10.9071880144 319.359693091 10.9071880144 320.209653108 c 4
 10.9071880144 323.412683198 28.1202896217 333.373047824 66.953125 355.533203125 c 4
 105.911132812 377.763671875 140.241210938 395.9609375 143.2421875 395.9609375 c 4
 146.245117188 395.9609375 148.698242188 384.262695312 148.698242188 369.965820312 c 4
 148.698242188 343.31480178 157.628090253 328.104184076 170.99999926 327.234860178 c 5
 178.337156531 326.757862753 187.011689242 330.598612062 196.282226562 339.236328125 c 4
 219.173150069 360.562102893 249.313496198 371.131236372 280.999997844 371.131236372 c 7
 342.413009727 371.131236372 409.634005217 336.377476836 441.140625 275.198242188 c 4
 449.861625553 258.266386764 453.973276097 224.177482911 453.973276097 188.000001615 c 7
 453.973276097 141.903864781 447.241191864 92.4169215962 434.783203125 70.7099609375 c 4
 404.99487889 18.8017611898 352.141536885 -10.2042723251 298.000002453 -10.2042723251 c 7
 270.755052977 -10.2042723251 243.183897733 -2.98064166715 218.061523438 12.3349609375 c 4
 199.044421051 23.932683645 182.022945207 32.3320692808 177.827895327 32.3320692808 c 4
 177.411807843 32.3320692808 177.121903317 32.2494383647 176.96875 32.0791015625 c 4
 175.272460938 30.19140625 172.029296875 -39.9150390625 169.766601562 -123.708007812 c 6
 165.653320312 -276.048828125 l 5
 198.626953125 -281.9375 l 6
 216.76171875 -285.169921875 233.71484375 -294.177734375 236.299804688 -301.942382812 c 4
 238.884765625 -309.717773438 236.763671875 -315.018554688 231.581054688 -313.73046875 c 4
 226.401367188 -312.44140625 175.118164062 -309.706054688 117.619140625 -307.649414062 c 6
 117.618164062 -307.649414062 l 6
EndSplineSet
Fore
SplineSet
159 268 m 1
 93 206 l 1
 93 295.837792492 71.7113427664 310.971747139 48 322 c 1
 25 309.7265625 l 3
 14.9984478658 309.7265625 9 314.341532205 9 325 c 0
 112 392.01953125 l 2
 113.849158876 393.222732814 115.593639446 394 117 394 c 3
 119.408283648 394 126.05859375 388.96372718 126.05859375 382 c 3
 126.05859375 379.151058796 125.067952264 375.979515183 122.232421875 372.698242188 c 0
 109 363 l 1
 131.8988327 346.757965658 148.003216436 317.897984735 159 268 c 1
93 206 m 2
 93 265.3612322 169.555555556 394 283 394 c 0
 397.791666667 394 457 307.123949412 457 198 c 0
 457 67 379 -10 270 -10 c 0
 231.918032787 -10 196 -4 169 11 c 1
 169 -271 l 2
 169 -277 173 -281 179 -281 c 2
 194 -281 l 2
 200 -281 204 -291 204 -297 c 0
 204 -303 200 -313 194 -313 c 2
 68 -313 l 2
 62 -313 58 -303 58 -297 c 0
 58 -291 62 -281 68 -281 c 2
 83 -281 l 2
 89 -281 93 -277 93 -271 c 2
 93 206 l 2
264 365 m 0
 234.733333333 365 169 323.882882883 169 202 c 2
 169 47 l 1
 193 31.4444444444 219 19 249 19 c 0
 334 19 380 65.2014388489 380 188 c 0
 380 346.443548387 308.708333333 365 264 365 c 0
EndSplineSet
Substitution2: "'ss01' Style Set 1 lookup 0-1" uni0440.ss01
EndChar

StartChar: uni0441
Encoding: 225 1089 145
Width: 446
VWidth: 0
Flags: HW
LayerCount: 2
Fore
SplineSet
50 190 m 0
 50 323.918367347 147.578945912 394 256 394 c 3
 285.480100612 394 330.257591675 374.516601562 334 374.516601562 c 3
 337.987289524 374.516601562 340.900766214 377.454012885 344 384 c 0
 347.307460885 390.985789982 351.221530301 394 354 394 c 3
 361.27989299 394 365.641288515 393.243938105 371.99609375 390 c 0
 376.99609375 290 l 1
 376.99609375 280 373.116071176 278 367 278 c 3
 363.685678486 278 355.131560998 279 355 284 c 0
 353.453967056 342.757267419 302.686830998 368.81640625 248 368.81640625 c 3
 186.864772717 368.81640625 130 313.856410447 130 186 c 3
 130 98.9086183047 176.990087438 25.818359375 261 25.818359375 c 3
 316.391007549 25.818359375 355.900123333 63.0004111104 370 110 c 0
 371.724087313 115.746957711 377 120 383 120 c 0
 389 120 396 116 396 110 c 1
 380.496644295 41.3228328483 324.684563758 -10 242 -10 c 3
 114.70718232 -10 50 72.7643804155 50 190 c 0
EndSplineSet
Substitution2: "'ss01' Style Set 1 lookup 0-1" uni0441.ss01
EndChar

StartChar: uni0442
Encoding: 226 1090 146
Width: 778
VWidth: 0
Flags: HW
LayerCount: 2
Fore
SplineSet
552 0 m 2
 546 0 542 10 542 16 c 0
 542 22 546 32 552 32 c 2
 567 32 l 2
 573 32 577 36 577 42 c 0
 577 162 l 1
 653 162 l 1
 653 42 l 0
 653 36 657 32 663 32 c 2
 678 32 l 2
 684 32 688 22 688 16 c 0
 688 10 684 -7.34763812293e-016 678 0 c 2
 552 0 l 2
388 239 m 1
 368 268 l 1
 394.349952579 299.508501686 473.966987238 394 533 394 c 0
 626.31619486 394 653 374.073370195 653 244 c 2
 653 162 l 1
 577 162 l 1
 577 245.811523438 l 2
 577 321.7857373 566.143455018 371 522 371 c 0
 482.182177566 371 416.064935559 278.9742807 388 239 c 1
326 0 m 2
 320 0 316 10 316 16 c 0
 316 22 320 32 326 32 c 2
 341 32 l 2
 347 32 351 36 351 42 c 0
 351 162 l 1
 427 162 l 1
 427 42 l 0
 427 36 431 32 437 32 c 2
 452 32 l 2
 458 32 462 22 462 16 c 0
 462 10 458 -7.34763812293e-016 452 0 c 2
 326 0 l 2
100 0 m 2
 94 0 90 10 90 16 c 0
 90 22 94 32 100 32 c 2
 115 32 l 2
 121 32 125 36 125 42 c 0
 125 162 l 1
 201 162 l 1
 201 42 l 0
 201 36 205 32 211 32 c 2
 226 32 l 2
 232 32 236 22 236 16 c 0
 236 10 232 -7.34763812293e-016 226 0 c 2
 100 0 l 2
125 162 m 1
 125 246 l 2
 125 304.859243357 108.442155485 314.774592953 90 322 c 1
 67 309.7265625 l 3
 56.9984478658 309.7265625 51 314.341532205 51 325 c 0
 154 392.01953125 l 2
 155.849158876 393.222732814 157.593639446 394 159 394 c 3
 161.408398354 394 168.059025208 388.963727313 168.059025208 382.000000318 c 3
 168.059025208 379.151059017 167.068272012 375.979515296 164.232421875 372.698242188 c 0
 151 363 l 1
 169.31906616 353.59671696 182.202573149 336.888306952 191 308 c 1
 210.48299524 332.235961468 261.618953773 394 313 394 c 0
 401.650385117 394 427 374.073370195 427 244 c 2
 427 162 l 1
 351 162 l 1
 351 245.811523438 l 2
 351 321.7857373 341.525197106 371 303 371 c 0
 272.690911282 371 222.362861396 308.951771397 201 279 c 1
 201 162 l 1
 125 162 l 1
EndSplineSet
Substitution2: "'ss01' Style Set 1 lookup 0-1" uni0442.ss01
EndChar

StartChar: uni0443
Encoding: 227 1091 147
Width: 541
VWidth: 0
Flags: HW
LayerCount: 2
Fore
SplineSet
8 -289 m 0
 8 -272 17.075 -255 41 -255 c 0
 58.6296296296 -255 69.1360409382 -266.208326708 75 -280 c 0
 77.4719384622 -285.813848171 81.75 -293 93 -293 c 0
 108.600135835 -293 152.08743657 -244.656331425 193.341623074 -149 c 2
 230 -64 l 2
 234.961052606 -52.4967773578 239 -25.3445378151 239 -18 c 0
 239 -2.45036538352 232.472096659 11.7866217109 220.6640625 41 c 2
 99 342 l 0
 96.1642335766 348.076642336 92 352 82 352 c 2
 67 352 l 2
 61 352 57 362 57 368 c 0
 57 374 61 384 67 384 c 2
 152 384 l 2
 161 384 165.116840599 379.040208459 167 374 c 2
 285.813476562 56 l 0
 286.496521041 54.5736056846 290.260990337 54 292 54 c 0
 294.113861109 54 295.24073484 54.2040458723 296 56 c 2
 400 302 l 2
 417.279916783 342.873649314 404 352 398 352 c 2
 394 352 l 2
 388 352 384 362 384 368 c 0
 384 374 388 384 394 384 c 2
 471 384 l 2
 477 384 481 374 481 368 c 0
 481 362 477 352 471 352 c 2
 470 352 l 2
 459 352 446.925222322 344.031555789 429 302 c 2
 284 -38 l 2
 213.528918995 -203.242534771 167.879210695 -271.940608183 138 -295 c 0
 108.024679405 -318.133564989 88.1536491677 -324 53 -324 c 0
 31.8235294118 -324 8 -312.863636364 8 -289 c 0
EndSplineSet
Substitution2: "'ss01' Style Set 1 lookup 0-1" uni0443.ss01
EndChar

StartChar: uni0444
Encoding: 228 1092 148
Width: 516
VWidth: 0
Flags: HW
LayerCount: 2
Fore
SplineSet
220 73 m 1
 210 73 l 2
 117.438016529 73 50 124 50 193 c 0
 50 282.736584232 116.965200735 323 210 323 c 2
 220 323 l 1
 220 297 l 1
 210 297 l 2
 168.885122719 297 130 263.711070883 130 200 c 3
 130 143.588929051 170.441946178 99 210 99 c 2
 220 99 l 1
 220 73 l 1
326 73 m 2
 296 73 l 1
 296 99 l 1
 306 99 l 2
 343.333333333 99 386 144.844503814 386 191 c 0
 386 260.541881845 361.956192437 297 306 297 c 2
 296 297 l 1
 296 323 l 1
 326 323 l 0
 407.100967157 319.830454495 466 275.63215523 466 186 c 3
 466 118.479236985 396.783578064 73 326 73 c 2
EndSplineSet
Refer: 137 1080 N 1 0 0 1 95 0 2
Substitution2: "'ss01' Style Set 1 lookup 0-1" uni0444.ss01
EndChar

StartChar: uni0446
Encoding: 230 1094 149
Width: 501
VWidth: 0
Flags: HW
LayerCount: 2
Fore
SplineSet
85 20 m 2
 85 342 l 0
 85 347.99609375 81 352 75 352 c 2
 60 352 l 2
 54 352 50 362 50 368 c 0
 50 374 54 384 60 384 c 2
 186 384 l 2
 192 384 196 374 196 368 c 0
 196 362 192 352 186 352 c 2
 171 352 l 2
 165 352 161 347.99609375 161 342 c 2
 161 42 l 2
 161 36 165 32 171 32 c 2
 186 32 l 1
 315 32 l 1
 330 32 l 2
 336 32 340 36 340 42 c 2
 340 342 l 2
 340 347.99609375 336 352 330 352 c 2
 315 352 l 2
 309 352 305 362 305 368 c 0
 305 374 309 384 315 384 c 2
 441 384 l 2
 447 384 451 374 451 368 c 0
 451 362 447 352 441 352 c 2
 426 352 l 2
 420 352 416 347.99609375 416 342 c 0
 416 0 l 1
 105 0 l 2
 93 0 85 8 85 20 c 2
433 -179 m 1
 395.875170786 -156.21875 370.140914172 -144.828125 353.39453125 -144.828125 c 0
 350.293199666 -144.828125 347.484915938 -145.171694687 345 -146 c 0
 337.626004129 -148.457998624 331.007227911 -149.743466318 327.00000022 -149.743466318 c 3
 324.486105153 -149.743466318 323 -149.156501032 323 -148 c 0
 323 -145 352.228882586 -112.168173886 391 -77 c 0
 428 -43.4383561644 458 -11.7945205479 458 -7 c 0
 458 -3 454.440928023 0 449 0 c 0
 396 0 l 1
 396 34 l 1
 481 34 l 2
 484.607183656 34 492 30.0140681828 492 17 c 0
 492 4.26086956522 467.157022209 -22.6490258714 440 -49 c 0
 410.399064503 -77.7223495808 400.876953125 -95.0952673373 400.876953125 -102.025390625 c 0
 400.876953125 -105.685891239 404.124417552 -107 410 -107 c 0
 422 -107 453.929810557 -122.095105036 481 -142 c 0
 510.524191143 -163.709339154 531.753833933 -172.599609375 551.891601562 -172.599609375 c 0
 554.944462866 -172.599609375 557.982058317 -172.46429872 561 -172 c 0
 566.719815924 -171.120028319 571.733130217 -170.748058569 575.999997647 -170.748058569 c 3
 587.382719061 -170.748058569 593.453260117 -173.739313301 593.453260117 -177.999999781 c 3
 593.453260117 -183.032106834 585.774213585 -189.900365231 569 -196 c 0
 540.714094548 -206.285650144 523.448671741 -211.979492188 507.915039062 -211.979492188 c 0
 487.203782934 -211.979492188 469.571227039 -201.857073793 433 -179 c 1
 433 -179 l 1
EndSplineSet
Substitution2: "'ss01' Style Set 1 lookup 0-1" uni0446.ss01
EndChar

StartChar: uni0447
Encoding: 231 1095 150
Width: 491
VWidth: 0
Flags: HW
LayerCount: 2
Fore
SplineSet
310 209 m 1
 274.502973427 204.340082422 234.461133018 200.802734375 199.415039062 200.802734375 c 0
 109.758702483 200.802734375 85 219 85 282 c 6
 85 342 l 6
 85 347.996441493 81 352 75 352 c 6
 60 352 l 6
 54 352 50 362 50 368 c 4
 50 374 54 384 60 384 c 6
 151 384 l 6
 157 384 161 380 161 374 c 6
 161 282 l 6
 161 240.427510139 175.493470062 223.421875 213.139648438 223.421875 c 0
 246.751832849 223.421875 278.590818309 229.552877386 310 236 c 1
 310 209 l 1
EndSplineSet
Refer: 137 1080 N 1 0 0 1 165 0 2
Substitution2: "'ss01' Style Set 1 lookup 0-1" uni0447.ss01
EndChar

StartChar: uni0448
Encoding: 232 1096 151
Width: 678
VWidth: 0
Flags: HW
LayerCount: 2
Fore
SplineSet
85 20 m 6
 85 342 l 4
 85 347.99609375 81 352 75 352 c 6
 60 352 l 6
 54 352 50 362 50 368 c 4
 50 374 54 384 60 384 c 6
 186 384 l 6
 192 384 196 374 196 368 c 4
 196 362 192 352 186 352 c 6
 171 352 l 6
 165 352 161 347.99609375 161 342 c 6
 161 42 l 6
 161 36 165 32 171 32 c 6
 186 32 l 5
 276 32 l 5
 291 32 l 6
 297 32 301 36 301 42 c 6
 301 342 l 6
 301 347.99609375 297 352 291 352 c 6
 276 352 l 6
 270 352 266 362 266 368 c 4
 266 374 270 384 276 384 c 6
 402 384 l 6
 408 384 412 374 412 368 c 4
 412 362 408 352 402 352 c 6
 387 352 l 6
 381 352 377 347.99609375 377 342 c 6
 377 42 l 6
 377 36 381 32 387 32 c 6
 402 32 l 5
 492 32 l 5
 507 32 l 6
 513 32 517 36 517 42 c 6
 517 342 l 6
 517 347.99609375 513 352 507 352 c 6
 492 352 l 6
 486 352 482 362 482 368 c 4
 482 374 486 384 492 384 c 6
 618 384 l 6
 624 384 628 374 628 368 c 4
 628 362 624 352 618 352 c 6
 603 352 l 6
 597 352 593 347.99609375 593 342 c 4
 593 20 l 6
 593 8 585 0 573 0 c 6
 105 0 l 6
 93 1.46952762459e-015 85 8 85 20 c 6
EndSplineSet
Substitution2: "'ss01' Style Set 1 lookup 0-1" uni0448.ss01
EndChar

StartChar: uni0449
Encoding: 233 1097 152
Width: 722
VWidth: 0
Flags: HW
LayerCount: 2
Fore
SplineSet
605.131835938 -82.748046875 m 0
 620.671875 -47.6103515625 633.385742188 -13.986328125 633.385742188 -8.0302734375 c 0
 633.385742188 -3 630.762778275 -5.8325285379e-016 626 0 c 2
 546 0 l 0
 546 34 l 1
 666 34 l 2
 675.45016539 34 681.428710938 27.4900821267 681.428710938 22.2724609375 c 0
 681.428710938 -3.98873291515 611.879712688 -157.319335938 598.845703125 -157.319335938 c 0
 592.260742188 -157.319335938 588.185902795 -153.316549979 586.875 -151.985351562 c 0
 585.832819045 -150.927035383 585.603334627 -147.792091303 585.603334627 -145.000000087 c 3
 585.603334627 -127.737892143 591.344435264 -111.457476743 605.131835938 -82.748046875 c 0
EndSplineSet
Refer: 151 1096 N 1 0 0 1 0 0 2
Substitution2: "'ss01' Style Set 1 lookup 0-1" uni0449.ss01
EndChar

StartChar: uni044A
Encoding: 234 1098 153
Width: 535
VWidth: 0
Flags: HW
LayerCount: 2
Fore
SplineSet
100 0 m 2
 94 0 90 10 90 16 c 0
 90 22 94 32 100 32 c 2
 115 32 l 2
 121 32 125 36 125 42 c 2
 125 351 l 1
 125 441 l 2
 125 468.679746061 120.915622571 477.568359375 104.770507812 477.568359375 c 0
 82.7285647483 477.568359375 42.6415752639 454.420125803 32.73046875 432.900390625 c 0
 27.7393788418 422.063363203 24.2989995197 416.584960938 22.8076171875 416.584960938 c 0
 21.9797386372 416.584960938 21.6318359375 418.329160646 21.6318359375 421.934570312 c 0
 21.6318359375 426.046234121 22.0841566252 432.578551926 22.79296875 441.705078125 c 0
 25.9915575181 482.889481116 57.1476487481 502.318264519 125 503.895189241 c 1
 125 504 l 1
 134.25194992 504 l 1
 134.251953125 504 l 1
 201 504 l 1
 201 351 l 1
 201 342 l 1
 232 355 286 365 343 365 c 0
 425 365 465 282 465 192 c 0
 465 75 410 -1.77567921304e-014 265 0 c 2
 100 0 l 2
398 186 m 0
 398 267 345 341 280 341 c 0
 231 341 210 327 201 309 c 1
 201 42 l 2
 201 36 205 32 211 32 c 2
 255 32 l 2
 351 32 398 97 398 186 c 0
EndSplineSet
Substitution2: "'ss01' Style Set 1 lookup 0-1" uni044A.ss01
EndChar

StartChar: uni044C
Encoding: 236 1100 155
Width: 535
VWidth: 0
Flags: HW
LayerCount: 2
Fore
SplineSet
398 186 m 0
 398 267 345 341 280 341 c 0
 231 341 210 327 201 309 c 1
 201 42 l 2
 201 36 205 32 211 32 c 0
 255 32 l 0
 351 32 398 97 398 186 c 0
100 0 m 2
 94 0 90 10 90 16 c 0
 90 22 94 32 100 32 c 2
 115 32 l 2
 121 32 125 36 125 42 c 2
 125 462 l 2
 125 468 121 472 115 472 c 2
 100 472 l 2
 94 472 90 482 90 488 c 0
 90 494 94 504 100 504 c 2
 226 504 l 2
 232 504 236 494 236 488 c 0
 236 482 232 472 226 472 c 2
 211 472 l 2
 205 472 201 468 201 462 c 2
 201 342 l 1
 232 355 286 365 343 365 c 0
 425 365 465 282 465 192 c 0
 465 75 410 0 265 0 c 2
 100 0 l 2
EndSplineSet
Substitution2: "'ss01' Style Set 1 lookup 0-1" uni044C.ss01
EndChar

StartChar: uni044D
Encoding: 237 1101 156
Width: 370
VWidth: 0
Flags: HW
LayerCount: 2
Back
SplineSet
259 190 m 1
 251 296.628930818 208 363 135 363 c 3
 45 363 8 270.442825533 8 194 c 3
 8 100.086648522 57 20 134 20 c 0
 226.148506255 20 259 84.4000219645 259 190 c 1
-72 192 m 3
 -72 295.14893617 9.456410256 394 137 394 c 4
 264.347826087 394 339 309.173061496 339 190 c 3
 339 69.6001670976 257.65123092 -10 127 -10 c 3
 1.177144203 -10 -72 77.4038461538 -72 192 c 3
EndSplineSet
Fore
SplineSet
40 78 m 2
 40 78 41.2857142857 88 49 88 c 3
 58 88 64 79.29296875 64 79.29296875 c 1
 80 52 l 2
 92.2469234549 31.1090688039 124.727272727 17 166 17 c 3
 249.175693169 17 274 87.8061115719 274 191 c 1
 270 233 266 239 242 239 c 0
 218 239 211.444158909 232.213210433 207 194 c 0
 200.525475067 138.328637033 176.487628189 114 142 114 c 3
 112 114 83.4266969258 122.057940036 64 131 c 0
 60.223740049 132.738203002 57.3271484375 137.7358769 57.3271484375 141 c 3
 57.3271484375 146.98972982 57.989207398 151.626953125 64 151.626953125 c 3
 70.6402051523 151.626953125 87.501734606 142 127 142 c 0
 142 142 150.095998041 176.455990696 154 195 c 0
 161.376210956 230.03700204 187.828439443 252.572660284 217 261 c 0
 240.146658536 267.686812466 251.651942622 275.696508392 251.651942622 286.117810684 c 0
 251.651942622 312.192676638 222.26546486 370 150 370 c 3
 120.287130244 370 88.8210831007 359.80802131 78 325.38671875 c 0
 74 312.662926782 72 293 72 287 c 0
 72 281 62 277 56 277 c 0
 50 277 40 281 40 287 c 2
 40 384 l 2
 40 390 41.2001953125 394 47.2001953125 394 c 0
 55.2272490901 394 56.9113722571 391.54711449 67 384 c 0
 73.0867790852 379.446593947 79.533468109 375.127929688 85.2841796875 375.127929688 c 0
 91.4266795719 375.127929688 119.344444554 394 165 394 c 3
 261.820240087 394 338 320 338 194 c 1
 338 92.6071095905 285.287878123 -10 172 -10 c 3
 142.10989011 -10 109.6778881 -1.399269112 92 12 c 0
 87.7607871779 15.2131866151 84.0432271682 16.6513671875 81 16.6513671875 c 3
 75.329284656 16.6513671875 72 10.3189518495 72 0 c 0
 72 -5.26315789474 65.1818181818 -10 57 -10 c 0
 47.7272727273 -10 40 -5.38461538462 40 0 c 0
 40 78 l 2
EndSplineSet
Substitution2: "'ss01' Style Set 1 lookup 0-1" uni044D.ss01
EndChar

StartChar: uni044E
Encoding: 238 1102 157
Width: 675
VWidth: 0
Flags: HW
LayerCount: 2
Fore
SplineSet
298 187 m 1
 155 187 l 1
 155 210 l 1
 298 210 l 1
 298 187 l 1
556 190 m 3
 556 273.893181047 521.120279292 368 438 368 c 3
 377.113975603 368 329 296.915081842 329 204 c 3
 329 104.16 382 22 444 22 c 3
 520.899442505 22 556 107.80210494 556 190 c 3
431 394 m 4
 555.163571948 394 625 312.655412029 625 198 c 3
 625 113.762377598 578.048725945 -10 445 -10 c 0
 300.38116209 -10 259 118.995583526 259 202 c 0
 259 278.915493408 310.378783639 394 431 394 c 4
EndSplineSet
Refer: 137 1080 N 1 0 0 1 0 0 2
Substitution2: "'ss01' Style Set 1 lookup 0-1" uni044E.ss01
EndChar

StartChar: uni044F
Encoding: 239 1103 158
Width: 442
VWidth: 0
Flags: HW
LayerCount: 2
Fore
SplineSet
33 9 m 0
 33 15 44 20 56 20 c 0
 87 20 107.272063331 58.2267899842 124 93 c 0
 133.32943089 112.393560968 145.376982506 130.471228133 165 155 c 0
 173 165 190.544695312 181.912897578 197.544695312 187.747318172 c 1
 160.147164973 207.249923091 124 229.368251946 124 287 c 4
 124 332 163.87654321 384 225 384 c 1
 372 384 l 2
 378 384 382 374 382 368 c 0
 382 362 378 352 372 352 c 2
 357 352 l 2
 351 352 347 347.99609375 347 342 c 2
 347 42 l 2
 347 36 351 32 357 32 c 2
 372 32 l 2
 378 32 382 22 382 16 c 0
 382 10 378 -7.34763812293e-016 372 0 c 2
 246 0 l 2
 240 0 236 10 236 16 c 0
 236 22 240 32 246 32 c 2
 261 32 l 2
 267 32 271 36 271 42 c 2
 271 164.752100161 l 2
 271 170.107710576 268.283377516 173.716622484 267 175 c 0
 264.0006485 177.9993515 260.565499311 179.411154279 256.842838074 179.411154279 c 0
 239.465857928 179.411154279 214.655299114 149.02876817 201 105 c 0
 178 30.8411214953 133 -10 76 -10 c 0
 52 -10 33 -1.36363636364 33 9 c 0
252.281790534 352 m 2
 214.530325853 352 189.65138577 311.68729238 189.65138577 277.851705503 c 0
 189.65138577 239.889437768 212.117876391 201 250 201 c 0
 261.715982538 201 271 201.585651666 271 204.157841457 c 2
 271 342 l 2
 271 347.99609375 267 352 261 352 c 2
 252.281790534 352 l 2
EndSplineSet
Substitution2: "'ss01' Style Set 1 lookup 0-1" uni044F.ss01
EndChar

StartChar: uni0463
Encoding: 256 1123 159
Width: 555
VWidth: 0
Flags: HW
LayerCount: 2
Fore
SplineSet
360 49 m 0
 393 68 425 129 431 182 c 0
 432 189 431 196 431 203 c 3
 431 273 364 343 305 343 c 3
 299 343 292 342 286 341 c 0
 244.340597826 330.132329868 230.567394538 294.65919013 230.567394538 187.042069298 c 0
 230.567394538 175.829170976 230.716917533 163.833071833 231 151 c 0
 234 48 237 29 254 25 c 0
 259.512548871 23.7749891399 265.692054011 23.1752497828 272.342768968 23.1752497828 c 0
 298.266695627 23.1752497828 331.350065161 32.2875380104 360 49 c 0
98 4 m 0
 98 10 110 17 124 19 c 0
 149 23 149 23 152 280 c 2
 155 537 l 1
 108 537 l 2
 81 537 52 530 41 520 c 0
 16 497 4 515 25 545 c 0
 34.4281865808 558.77965731 43.3303926752 564.143626838 65.8208152108 564.143626838 c 0
 74.3411804291 564.143626838 84.8117658369 563.373774392 98 562 c 2
 155 557 l 1
 155 604 l 2
 155 629 150 651 143 652 c 0
 137 652 127 654 122 654 c 0
 116 655 108 660 103 664 c 0
 102.521791478 664.478208522 102.290561017 664.947269709 102.290561017 665.40455896 c 0
 102.290561017 669.728544293 122.964892839 673 151 673 c 0
 183 673 224 676 244 680 c 0
 251.206060761 681.372583002 257.587878479 682.038671968 262.862617657 682.038671968 c 0
 272.959594929 682.038671968 279 679.597979746 279 675 c 0
 279 668 268 662 254 660 c 0
 232 657 228 648 225 608 c 2
 221 560 l 1
 262 560 l 2
 285 560 313 565 325 571 c 0
 330.447905908 574.204650534 334.868833311 575.971531162 338.855181509 575.971531162 c 0
 347.308093551 575.971531162 353.806975801 568.026978505 364 549 c 0
 371.269630222 534.979998857 374.764437333 526.35260216 374.764437333 521.297705897 c 0
 374.764437333 516.617781334 371.768888381 515 366 515 c 0
 358 515 346 520 339 527 c 0
 334.062746067 531.937253933 314.228756555 535.520259177 292.313381659 535.520259177 c 0
 287.596087635 535.520259177 282.782357301 535.354248689 278 535 c 2
 228 532 l 1
 225 448 l 2
 223.987214069 425.111037971 223.343692862 406.571193787 223.343692862 391.790400467 c 0
 223.343692862 355.885490521 227.140994171 342.162054304 238.666797321 342.162054304 c 0
 245.820569307 342.162054304 255.95164478 347.448827257 270 356 c 0
 295 371 322 378 349 378 c 3
 401 378 452 348 477 299 c 0
 488 279 498 234 501 199 c 0
 502 188 503 178 503 169 c 3
 503 138 497 119 480 91 c 0
 440 21 390 2 231 -3 c 0
 205.056266631 -3.87450786639 182.936353303 -4.32414683923 164.615489938 -4.32414683923 c 0
 120.086615516 -4.32414683923 98 -1.66797902297 98 4 c 0
EndSplineSet
Validated: 1
Substitution2: "'ss01' Style Set 1 lookup 0-1" uni0463.ss01
EndChar

StartChar: uni0462
Encoding: 257 1122 160
Width: 869
VWidth: 0
Flags: HW
LayerCount: 2
Fore
SplineSet
409 34 m 2
 583.703395835 34 701 161.619200557 701 324 c 0
 701 509 598.514664856 634.021484375 445.706054688 634.021484375 c 0
 393.08286488 634.021484375 318.655025464 600.425132941 295 561 c 1
 295 44 l 2
 295 38 299 34 305 34 c 0
 409 34 l 2
153 1020 m 1
 356 1020 l 1
 360 1015 363 1010 363 1003 c 0
 363 997 360.381630826 986 356 986 c 2
 305 986 l 2
 299 986 295 982 295 976 c 0
 295 902 l 1
 360 902 l 2
 395.017713746 902 433.75641136 914.362444795 447 923 c 0
 455.237692805 928.372677172 461.038029736 931.564453125 466.606445312 931.564453125 c 0
 476.585274107 931.564453125 485.992585147 921.453764871 507 895 c 0
 530.169409798 865.823724704 541.556640625 845.484078025 541.556640625 835.086914062 c 0
 541.556640625 829.799446031 538.612575585 827.083007812 532.776367188 827.083007812 c 0
 523.339201125 827.083007812 506.113680431 833.817312321 482 849 c 0
 455 866 424.959124088 871.487591241 369 873 c 2
 295 873 l 1
 295 611.216796875 l 1
 332 639.999734573 397.167228453 676 501 676 c 0
 691.617994999 676 799 537.175452715 799 336 c 0
 799 165.283115356 689.540812449 -2.23540638757e-014 507 0 c 0
 152 0 l 1
 147.625 5 145 12 145 17 c 0
 145 23.375 148.127332062 34 152 34 c 2
 203 34 l 2
 209 34 213 38 213 44 c 0
 213 873 l 1
 135 873 l 2
 102.48280588 873 75.6021991353 844.104475527 57 810 c 0
 43.0889047889 784.495993579 32.8332061452 771.893554688 26.7314453125 771.893554688 c 0
 22.4315214383 771.893554688 20.1943359375 778.151098014 20.1943359375 790.561523438 c 0
 20.1943359375 798.520017147 20.9686665107 809.030673161 23 822 c 0
 34.0058136746 892.268124572 33.5438132911 902 91.3955078125 902 c 2
 213 902 l 1
 213 976 l 0
 213 982 209 986 203 986 c 2
 153 986 l 2
 149.067929362 986 146 996.625 146 1003 c 0
 146 1008 148.625 1015 153 1020 c 1
EndSplineSet
Substitution2: "'ss01' Style Set 1 lookup 0-1" uni0462.ss01
EndChar

StartChar: uni0472
Encoding: 258 1138 161
Width: 796
VWidth: 0
Flags: HW
LayerCount: 2
Fore
SplineSet
601 365 m 0
 621 375 640 388 644 394 c 0
 646.115546386 397.305541228 647.09472608 402.411786599 647.09472608 408.904964455 c 0
 647.09472608 451.520067273 604.91780414 553.875525754 565 599 c 0
 530 639 463 662 396 662 c 3
 352 662 309 654 276 634 c 0
 222 603 173 540 156 481 c 0
 149.640216339 456.832822089 145.302775089 418.104778821 145.302775089 393.11152268 c 0
 145.302775089 378.805869497 146.723805295 369 150 369 c 0
 152 369 186 381 226 396 c 0
 268.724636825 412.021738809 303.328486078 420.120758036 334.130889041 420.120758036 c 0
 372.539856945 420.120758036 405.038042916 407.527778188 440 382 c 0
 472.40992215 358.271306998 502.140244672 346.600812316 532.486448506 346.600812316 c 0
 554.574416123 346.600812316 576.988670759 352.783709685 601 365 c 0
501 46 m 0
 566 73 605 115 631 185 c 0
 644.676274152 221.709999039 655.243842353 288.988939921 655.243842353 323.809436624 c 0
 655.243842353 337.363916178 653.642549265 346 650 346 c 0
 647 346 616 333 580 316 c 0
 535.568789798 295.716186647 500.000650569 285.461637816 466.874979551 285.461637816 c 0
 431.410087319 285.461637816 398.7448006 297.215605101 361 321 c 0
 315.301641071 349.487288683 285.453391839 362.476692329 256.404363951 362.476692329 c 0
 236.506882604 362.476692329 216.984374327 356.382414935 193 345 c 0
 159.044798304 328.6753838 145.129877283 316.614657106 145.129877283 290.163315519 c 0
 145.129877283 276.106290381 149.05969296 257.985105345 156 233 c 0
 172 178 228 92 263 69 c 0
 306 40 353 26 400 26 c 3
 434 26 468 32 501 46 c 0
309 -5 m 0
 255 8 210 36 159 86 c 0
 87 159 61 221 58 336 c 0
 57.6937742252 349.01459543 57.5047662318 360.481916145 57.5047662318 370.786039779 c 0
 57.5047662318 427.77947553 63.2871608476 449.186773245 87 500 c 0
 120 569 184 636 249 669 c 0
 281 686 335 695 390 695 c 3
 434 695 478 690 512 679 c 0
 595 653 676 581 711 502 c 0
 733 454 738 423 738 345 c 0
 738.081892687 337.711550851 738.130253313 330.919376204 738.130253313 324.552628471 c 0
 738.130253313 253.174366717 732.051863265 235.267511905 699 171 c 0
 668 110 647 85 599 52 c 0
 534 8 458 -14 384 -14 c 3
 359 -14 334 -11 309 -5 c 0
EndSplineSet
Validated: 1
Substitution2: "'ss01' Style Set 1 lookup 0-1" uni0472.ss01
EndChar

StartChar: uni0473
Encoding: 259 1139 162
Width: 472
VWidth: 0
Flags: HW
LayerCount: 2
Fore
SplineSet
253 209 m 1
 275.788455704 202.11046688 290.431915363 198.591276952 301.246934362 198.591276952 c 0
 310.838994412 198.591276952 317.419497206 201.359569034 324 207 c 0
 334 215 340 227 340 240 c 3
 340 261 328 287 303 313 c 0
 277 341 251 356 226 356 c 3
 200 356 175 342 150 314 c 0
 125 286 115 262 115 235 c 2
 115 197 l 1
 157 212 l 2
 173.99689438 217.66563146 186.3126292 220.6563146 199.314696398 220.6563146 c 0
 213.85144945 220.6563146 229.246117975 216.917960675 253 209 c 1
 253 209 l 1
276 38 m 0
 309 53 336 97 346 153 c 0
 347.744258649 162.593422572 348.585293447 170.618087928 348.585293447 177.001442173 c 0
 348.585293447 188.922394766 345.652118316 195.119145524 340.190809986 195.119145524 c 0
 335.163879187 195.119145524 327.994983376 189.868938246 319 179 c 0
 306 164 281 154 256 154 c 3
 235 154 214 157 199 167 c 0
 182 178 167 183 154 183 c 3
 130 183 115 164 115 138 c 3
 115 114 127 85 154 56 c 0
 173 35 199 26 228 26 c 3
 244 26 260 31 276 38 c 0
154 8 m 0
 106 29 50 100 41 151 c 0
 40 160 39 170 39 180 c 3
 39 262 87 341 159 365 c 0
 180 372 206 374 232 374 c 3
 274 374 315 363 339 346 c 0
 395 304 411 271 411 196 c 0
 411 138 406 119 379 80 c 0
 361 54 331 24 313 13 c 0
 291 -0 260 -7 228 -7 c 3
 202 -7 176 -2 154 8 c 0
EndSplineSet
Validated: 1
Substitution2: "'ss01' Style Set 1 lookup 0-1" uni0473.ss01
EndChar

StartChar: uni0410.ss01
Encoding: 260 -1 163
Width: 819
VWidth: 0
Flags: HW
LayerCount: 2
Fore
SplineSet
491 296 m 0
 470 352 l 0
 420 487 405 520 398 520 c 0
 389 520 296 304 290 292 c 1
 295 292 324 291 359 291 c 0
 415 291 487 292 491 296 c 0
60 0 m 2
 57 3 55 8 55 12 c 3
 55 20 60 27 67 27 c 0
 77 27 94 28 106 36 c 0
 111 40 124 56 138 84 c 2
 369 569 l 2
 382 597 415 671 421 671 c 0
 425 671 443 633 471 567 c 2
 674 88 l 0
 697 36 708 34 727 34 c 0
 748 34 759 28 759 17 c 0
 759 4 756 -0 745 0 c 2
 615 0 l 1
 506 255 l 1
 480 257 444 255 388 257 c 2
 274 261 l 1
 185 76 l 2
 179 62 178 50 178 42 c 3
 178 32 181 25 188 24 c 2
 207 22 l 2
 211 21 215 18 215 12 c 3
 215 6 212 -0 206 0 c 2
 60 0 l 2
EndSplineSet
EndChar

StartChar: uni0411.ss01
Encoding: 261 -1 164
Width: 831
VWidth: 0
Flags: HW
LayerCount: 2
Fore
SplineSet
653 319 m 3
 653 470.6125 573 630 412 630 c 3
 255 630 167 484.35483871 167 329 c 3
 167 172.993485342 243 18 413 18 c 3
 583 18 653 152.791245791 653 319 c 3
80 323 m 7
 80 594 162.359725613 799.125999064 327 892 c 4
 366 914 400 926 434 926 c 7
 469 926 503.938316791 913.892390405 544 891 c 4
 579 871 604 861 624 861 c 7
 646 861 660.743488018 875.110022441 672 901 c 4
 682 924 695 937 705 937 c 7
 712 937 718 930 718 915 c 4
 718 878 683.20344802 800.60172401 660 789 c 4
 644 781 625 777 605 777 c 7
 571 777 533.391450198 788.631291184 495 812 c 4
 449 840 410 854 375 854 c 7
 330 854 292.934703605 831.042580536 261 782 c 4
 233 739 191 581 191 556 c 5
 239 602.576576577 311 666 428 666 c 4
 619 666 751 541.363372093 751 323 c 7
 751 129 599 -18 409 -18 c 7
 226 -18 80 110 80 323 c 7
EndSplineSet
EndChar

StartChar: uni0412.ss01
Encoding: 262 -1 165
Width: 665
VWidth: 0
Flags: HW
LayerCount: 2
Fore
SplineSet
98 690 m 1
 240 690 l 1
 240 0 l 1
 97 0 l 1
 92.625 5 90 12 90 17 c 0
 90 23.375 93.1273320616 34 97 34 c 2
 148 34 l 2
 154 34 158 38 158 44 c 2
 158 646 l 2
 158 652 154 656 148 656 c 2
 98 656 l 2
 94.067929362 656 91 666.625 91 673 c 0
 91 678 93.625 685 98 690 c 1
311 690 m 0
 382 690 548.968871966 665.941646853 545 531 c 0
 543 463 498 401 425 371 c 1
 511 355 588 287 588 185 c 0
 588 113 552.976227605 59.0490800507 491 29 c 0
 458 13 424 -1.28785870857e-014 302 0 c 0
 158 0 l 1
 158 690 l 1
 311 690 l 0
240 654 m 1
 240 386 l 1
 336 386 l 2
 387 386 455 437 455 521 c 0
 455 594 395 657 303 657 c 1
 240 654 l 1
240 28 m 1
 303 28 l 2
 397 28 499 72 499 183 c 0
 499 285 431 346 315 346 c 2
 240 346 l 1
 240 28 l 1
EndSplineSet
EndChar

StartChar: uni0413.ss01
Encoding: 263 -1 166
Width: 627
VWidth: 0
Flags: HW
LayerCount: 2
Fore
SplineSet
98 690 m 5
 240 690 l 5
 240 0 l 5
 97 0 l 5
 92.625 5 90 12 90 17 c 4
 90 23.375 93.1273320616 34 97 34 c 6
 148 34 l 6
 154 34 158 38 158 44 c 6
 158 646 l 6
 158 652 154 656 148 656 c 6
 98 656 l 6
 94.067929362 656 91 666.625 91 673 c 4
 91 678 93.625 685 98 690 c 5
544 709 m 0
 559 709 562.764584347 694.941662613 577 638 c 0
 584.735327542 607.058689832 588.39490456 581.79824665 588.39490456 566.000001352 c 3
 588.39490456 554.48773114 586.603748572 548.000000488 583.12057036 548.000000488 c 3
 577.17112822 548.000000488 566.965006808 556.337411657 552 584 c 0
 522.437578005 638.645689143 499.224761049 650 397 650 c 0
 240 650 l 1
 240 73 l 2
 240 52.5619486552 246.963565387 39.6447625244 263 38 c 2
 302 34 l 2
 306.364346129 33.552374756 309 23 309 17 c 0
 309 10 306 5 302 0 c 1
 158 0 l 1
 158 690 l 1
 238 690 l 2
 397 690 485.733384694 691.577794898 529 706 c 0
 535 708 540 709 544 709 c 0
EndSplineSet
EndChar

StartChar: uni0414.ss01
Encoding: 264 -1 167
Width: 719
VWidth: 0
Flags: HW
LayerCount: 2
Fore
SplineSet
398 690 m 5
 601 690 l 5
 605 685 608 680 608 673 c 4
 608 667 605.381630826 656 601 656 c 6
 550 656 l 6
 544 656 540 652 540 646 c 6
 540 580 l 5
 458 580 l 5
 458 646 l 6
 458 652 454 656 448 656 c 6
 398 656 l 6
 394.067929362 656 391 666.625 391 673 c 4
 391 678 393.625 685 398 690 c 5
540 580 m 25
 540 39 l 1
 645 39 l 1
 644 -9 l 2
 643.24989154 -45.0052060738 636.019992006 -64.9800079936 611 -90 c 0
 593 -108 572 -124 564 -124 c 0
 554.73954284 -124 550.321289062 -123.35678795 550.321289062 -118 c 3
 550.321289062 -111.787996386 558.227000434 -99.3912691133 573 -74 c 0
 583.503646712 -55.9467319991 593 -42.3108680211 593 -31.99609375 c 3
 593 -10.8866243234 574.299236049 -1 497 -1 c 0
 479.597365944 -1 411.035087719 0 397 0 c 1
 382 0 366 0 350 0 c 0
 157.176551079 0 80.999999916 -0.896529765958 80.999999916 -24.5987094226 c 3
 80.999999916 -36.2979696806 87.0694794783 -53.6042192174 104 -79 c 0
 115.482613412 -96.2239201179 122.354510385 -108.613325174 122.354510385 -115.999994359 c 3
 122.354510385 -121.110812288 120.320906773 -124.09196754 116 -124.09196754 c 3
 110.249918605 -124.09196754 100.449213296 -120.458076076 86 -112 c 1
 86 -112 l 1
 54.2953593142 -93.7866957763 32.4457396302 -37.8050384498 32.4457396302 0.999999016059 c 3
 32.4457396302 19.7208227947 38.0466399234 34.2186559694 50 39 c 0
 60 43 86.0075570891 45.4104501818 109 46 c 0
 148 47 156 53 241 168 c 1
 458 503 l 1
 458 580 l 25
 540 580 l 25
458 439 m 1
 202 45 l 1
 235 38 259 34 330 34 c 2
 413 34 l 1
 436 37 l 2
 451.988847584 39.0855018587 458 48 458 72 c 2
 458 439 l 1
EndSplineSet
EndChar

StartChar: uni0415.ss01
Encoding: 265 -1 168
Width: 678
VWidth: 0
Flags: HW
LayerCount: 2
Fore
SplineSet
98 690 m 1
 240 690 l 1
 240 0 l 1
 97 0 l 1
 93 5 90 12 90 17 c 0
 90 23 93 34 97 34 c 2
 148 34 l 2
 154 34 158 38 158 44 c 2
 158 646 l 2
 158 652 154 656 148 656 c 2
 98 656 l 2
 94 656 91 667 91 673 c 0
 91 678 94 685 98 690 c 1
484 703 m 1
 505 655 l 2
 526 606 536 579 536 566 c 0
 536 557 532 555 524 555 c 0
 514 555 496 575 484 599 c 0
 459 648 439 657 348 657 c 0
 275 657 246 646 240 623 c 1
 240 357 l 1
 359 357 l 2
 394 357 396 373 408 398 c 1
 412 417 419 424 428 424 c 0
 440 424 447 421 447 408 c 2
 447 262 l 2
 447 250 440 246 428 246 c 0
 415 246 413 259 408 278 c 0
 403 298 395 312 359 312 c 2
 240 312 l 1
 240 28 l 1
 296 28 l 1
 355 31 l 1
 489 41 518 55 562 117 c 0
 577 138 595 156 604 156 c 0
 613 156 618 154 618 148 c 0
 618 138 607 117 582 71 c 2
 546 3 l 1
 343 0 l 1
 158 0 l 1
 158 690 l 1
 221 690 l 2
 253 690 292 695 340 697 c 2
 484 703 l 1
EndSplineSet
EndChar

StartChar: uni0416.ss01
Encoding: 266 -1 169
Width: 879
VWidth: 0
Flags: HW
LayerCount: 2
Fore
SplineSet
604 440 m 0
 702.56711885 347.320376247 766 231.895316804 766 87 c 2
 766 44 l 1
 766 38 770 34 776 34 c 1
 822 34 l 2
 828.047604537 34 829 24 829 17 c 0
 829 9 826 4 822 0 c 1
 633 0 l 1
 629 4 625 10 625 17 c 0
 625 26 626.962111303 34 633 34 c 2
 665 34 l 2
 671 34 675 38 675 44 c 0
 675 89 l 2
 675 207 628.796540699 290.505381388 589 358 c 0
 510.313669099 473.441953922 421.295673888 545.019185045 298 608 c 0
 257.795022735 629.268013499 238.909090909 639 223 639 c 3
 184 639 171 624 170 588 c 0
 169 552 155 549 135 549 c 0
 113 549 98 557 98 583 c 0
 98 643 141 673 209 673 c 3
 242.709677419 673 278.335943789 655.488282787 319 635 c 0
 402.291034252 593.034430838 525.258968194 514.037765199 604 440 c 0
265 358 m 0
 228.443278497 292.238262546 209 160 209 74 c 2
 209 0 l 1
 62 0 l 0
 56 0 50 9 50 17 c 0
 50 24.4375 54.9756567473 34 62 34 c 2
 89 34 l 2
 114.308526871 34 118.012887134 56.0613191233 122 117 c 0
 130 239.271293375 168.651743421 356.192768949 248 440 c 0
 308.233299096 503.618108726 467 594 551 635 c 0
 604.985551336 661.350090533 645 673 686 673 c 0
 757 673 789 618 789 583 c 0
 789 557 780 549 746 549 c 0
 727 549 715 559 715 588 c 0
 715 625 696 637 654 637 c 3
 631 637 606.80032201 625.583792524 571 608 c 0
 453.869534157 550.469852392 333.163103115 480.618328633 265 358 c 0
EndSplineSet
Refer: 11 1048 N 1 0 0 1 236 0 2
EndChar

StartChar: uni0417.ss01
Encoding: 267 -1 170
Width: 585
VWidth: 0
Flags: HW
LayerCount: 2
Fore
SplineSet
176 21 m 0
 159 32 147 38 139 38 c 3
 129 38 125 31 125 16 c 0
 125 3 117 -6 108 -6 c 0
 94 -6 91 11 91 84 c 0
 91 134 90 178 90 183 c 0
 90 188 95 195 101 195 c 0
 107 195 116 185 120 167 c 0
 133 112 163 71 206 49 c 0
 234 35 263 28 290 28 c 3
 367 28 430 84.5333333333 430 172 c 0
 430 231.571428571 380 279.462184874 299 311 c 0
 196 347.75879397 125 387.668341709 125 520 c 3
 125 641.460674157 203 708 308 708 c 3
 329 708 350 705 371 699 c 0
 382 696 392 695 399 695 c 3
 407 695 412 696 414 699 c 0
 418 705 427 709 436 709 c 0
 449 709 453 691 453 624 c 0
 453 564 449 542 440 542 c 0
 433 542 425 556 423 568 c 0
 412 643 377 678 312 678 c 0
 234 678 180 617.52 180 543 c 3
 180 455.571428571 237 430.746031746 302 407 c 0
 340 392.571428571 438 347.065934066 464 306 c 0
 486 272.280701754 495 227.684210526 495 182 c 3
 495 62.6281182912 413.032389323 -18 304 -18 c 3
 256 -18 203 3 176 21 c 0
EndSplineSet
EndChar

StartChar: uni0418.ss01
Encoding: 268 -1 171
Width: 884
VWidth: 0
Flags: HW
LayerCount: 2
Fore
SplineSet
220 116 m 1
 670 631 l 1
 670 567 l 1
 220 52 l 1
 220 116 l 1
584 690 m 1
 787 690 l 1
 791 685 794 680 794 673 c 0
 794 667 791.381630826 656 787 656 c 2
 736 656 l 2
 730 656 726 652 726 646 c 2
 726 44 l 2
 726 38 730 34 736 34 c 2
 787 34 l 2
 791.381630825 34 794 23 794 17 c 0
 794 10 791 5 787 0 c 1
 583 0 l 1
 578.625 5 576 12 576 17 c 0
 576 23.375 579.127332062 34 583 34 c 2
 634 34 l 2
 640 34 644 38 644 44 c 2
 644 646 l 2
 644 652 640 656 634 656 c 2
 584 656 l 2
 580.067929362 656 577 666.625 577 673 c 0
 577 678 579.625 685 584 690 c 1
98 690 m 1
 301 690 l 1
 305 685 308 680 308 673 c 0
 308 667 305.381630826 656 301 656 c 2
 250 656 l 2
 244 656 240 652 240 646 c 2
 240 44 l 2
 240 38 244 34 250 34 c 2
 301 34 l 2
 305.381630825 34 308 23 308 17 c 0
 308 10 305 5 301 0 c 1
 97 0 l 1
 92.625 5 90 12 90 17 c 0
 90 23.375 93.1273320616 34 97 34 c 2
 148 34 l 2
 154 34 158 38 158 44 c 2
 158 646 l 2
 158 652 154 656 148 656 c 2
 98 656 l 2
 94.067929362 656 91 666.625 91 673 c 0
 91 678 93.625 685 98 690 c 1
EndSplineSet
EndChar

StartChar: uni041A.ss01
Encoding: 270 -1 173
Width: 752
VWidth: 0
Flags: HW
LayerCount: 2
Fore
SplineSet
263 335 m 2
 208 335 l 1
 208 375 l 1
 282 375 l 2
 379.706163895 375 420.600835755 292.417284007 492 181 c 0
 549.241258869 89.048727662 574.733441176 48.5263671875 603 48.5263671875 c 3
 631.673123575 48.5263671875 676.831915045 59.62109375 690 59.62109375 c 3
 695.205313355 59.62109375 702 56.4323615219 702 51 c 3
 702 47.7154351406 699.067294097 43.685009491 694 39.275390625 c 0
 670.410907122 18.747884821 600.565627056 -10 565 -10 c 0
 503.867924528 -10 452.963317511 26.7888839854 403 148 c 0
 379.387727113 205.283424939 313.089492992 335 263 335 c 2
436 562 m 2
 282 375 l 1
 263 335 l 1
 208 335 l 1
 208 375 l 1
 240 375 l 1
 398 576 l 2
 420.96950579 605.220700404 434.58984375 623.473945803 434.58984375 638.658203125 c 0
 434.58984375 645.473797003 428.249272135 656 409.353515625 656 c 2
 407 656 l 2
 400.528092925 656 397 667 397 673 c 0
 397 679 401.172796429 686.575642685 407 690 c 1
 588 690 l 0
 593.641025783 690 598 682.137588839 598 673 c 0
 598 662.793821478 594.206896552 656 588 656 c 2
 559 656 l 2
 546.44720356 656 526.590182655 643.501788922 514 632.799804688 c 0
 492.947931446 616.281520052 464.457044674 593.896907216 436 562 c 2
EndSplineSet
Refer: 11 1048 N 1 0 0 1 0 0 2
EndChar

StartChar: uni041B.ss01
Encoding: 271 -1 174
Width: 891
VWidth: 0
Flags: HW
LayerCount: 2
Fore
SplineSet
64 3 m 0
 54 13 50 25 50 35 c 3
 50 57 70 75 99 75 c 3
 104 75 109 74 114 73 c 0
 120 72 127 72 132 72 c 3
 146 72 156 77 166 88 c 0
 190 115 244 223 340 440 c 0
 385 541 405 593 405 621 c 3
 405 645 390 651 361 656 c 0
 344 659 325 668 325 677 c 0
 325 686.222597604 331.039501058 689.40569415 355.972323482 689.40569415 c 0
 366.184338273 689.40569415 379.565835097 688.871708245 397 688 c 2
 475 685 l 1
 698 169 l 0
 756 34 763 23 787 23 c 3
 792 23 797 23 804 23 c 0
 830 23 841 19 841 13 c 3
 841 5 817 -6 778 -8 c 0
 765 -9 754 -9 744 -9 c 3
 680 -9 668 13 614 143 c 0
 494 431 446 548 446 551 c 0
 446 553 443 555 438 555 c 0
 433 555 414 520 396 478 c 0
 325 311 197 61 165 26 c 0
 143 2 118 -10 97 -10 c 3
 85 -10 73 -6 64 3 c 0
EndSplineSet
EndChar

StartChar: uni041C.ss01
Encoding: 272 -1 175
Width: 1016
VWidth: 0
Flags: HW
LayerCount: 2
Fore
SplineSet
800 690 m 1
 919 690 l 1
 923 685 926 680 926 673 c 0
 926 667 923.381630826 656 919 656 c 2
 868 656 l 2
 862 656 858 652 858 646 c 2
 858 44 l 2
 858 38 862 34 868 34 c 2
 919 34 l 2
 923.381630825 34 926 23 926 17 c 0
 926 10 923 5 919 0 c 1
 715 0 l 1
 710.625 5 708 12 708 17 c 0
 708 23.375 711.127332062 34 715 34 c 2
 766 34 l 2
 772 34 776 38 776 44 c 2
 776 641 l 1
 800 690 l 1
90 17 m 0
 90 23 93.6869303996 34 97 34 c 2
 120 34 l 2
 160 34 167.015001595 47.4662115923 169.951171875 73 c 0
 175.839305493 124.204917837 179.621810101 216.852441815 182.127915829 320.999994631 c 0
 186.227155825 586 l 3
 186.227155825 637.736144257 177 656 123 656 c 2
 97 656 l 1
 92.2256826016 661.044211696 90 667 90 673 c 0
 90 679 93.1925878458 685.479506107 97 690 c 1
 194 690 l 2
 270 690 l 1
 518 339 l 1
 719.467405755 622.000000001 l 2
 766.555692713 688.144621058 778.307489421 690 800 690 c 1
 858 690 l 1
 858 0 l 1
 776 0 l 1
 776 641 l 1
 485 232 l 1
 220 602 l 1
 220 316 l 0
 220 179.757322176 220.916362602 109.406435887 223 73 c 0
 224.531373151 46.2430227549 233 34 245 34 c 1
 269 34 l 2
 273.971839711 34 276 23 276 17 c 0
 276 11 272.764705882 3.1875 269 0 c 1
 97 0 l 1
 93.75 3.4 90 11 90 17 c 0
EndSplineSet
EndChar

StartChar: uni041D.ss01
Encoding: 273 -1 176
Width: 911
VWidth: 0
Flags: HW
LayerCount: 2
Fore
SplineSet
210 361 m 1
 704 361 l 1
 704 322 l 1
 210 322 l 1
 210 361 l 1
EndSplineSet
Refer: 11 1048 N 1 0 0 1 514 0 2
Refer: 11 1048 N 1 0 0 1 0 0 2
EndChar

StartChar: uni041E.ss01
Encoding: 274 -1 177
Width: 867
VWidth: 0
Flags: HW
LayerCount: 2
Fore
SplineSet
700.954101562 321 m 4
 700.954101562 518 628.16015625 672 419.955078125 672 c 4
 286.287109375 672 165.954101562 520.309570312 165.954101562 367 c 4
 165.954101562 152.903320312 284.51953125 18 438.955078125 18 c 4
 613.549804688 18 700.954101562 164.452148438 700.954101562 321 c 4
79.955078125 345 m 4
 79.955078125 534.763671875 211.665039062 708 438.955078125 708 c 4
 627.196289062 708 786.955078125 555.1015625 786.955078125 340 c 4
 786.955078125 147.133789062 654.598632812 -18 444.955078125 -18 c 4
 240.850585938 -18 79.955078125 155.415039062 79.955078125 345 c 4
EndSplineSet
EndChar

StartChar: uni041F.ss01
Encoding: 275 -1 178
Width: 882
VWidth: 0
Flags: HW
LayerCount: 2
Back
SplineSet
21.771484375 606.260742188 m 2
 217 695 l 1
 224.796316965 695.997529871 230.643554688 686.995059742 230.643554688 681.391601562 c 0
 230.643554688 676.665153952 229.211106406 669.255081172 227 668 c 2
 192.587890625 648.466796875 l 2
 188.279247522 646.021099635 181.917391638 642.550126672 181.917391638 639.000000233 c 3
 181.917391638 638.218200187 182.270005332 637.42503978 183.147460938 636.627929688 c 0
 228.55078125 595.382031221 246 523.398172542 246 477.954101562 c 2
 246 44 l 2
 246 38 250 34 256 34 c 2
 307 34 l 2
 311.381835938 34 314 23 314 17 c 0
 314 10 311 5 307 0 c 1
 103 0 l 1
 98.625 5 96 12 96 17 c 0
 96 23.375 99.126953125 34 103 34 c 2
 154 34 l 2
 160 34 164 38 164 44 c 2
 164 461.743164062 l 2
 164 527.142186338 126.541630599 600 91 600 c 0
 86.644125855 600 80.0881880745 600.381705056 75 598 c 2
 28 576 l 2
 22.3515399184 573.356039962 14.771484375 584.287963868 14.771484375 589.260742188 c 0
 14.771484375 594.260742188 16.2584000363 603.754822339 21.771484375 606.260742188 c 2
216 479.473632812 m 1
 285.149414062 557.184570312 400.082727696 708 552.10546875 708 c 0
 593.567583654 708 746 705.163085938 746 428.70703125 c 2
 746 44 l 2
 746 38 750 34 756 34 c 2
 807 34 l 2
 811.381835938 34 814 23 814 17 c 0
 814 10 811 5 807 0 c 1
 603 0 l 1
 598.625 5 596 12 596 17 c 0
 596 23.375 599.126953125 34 603 34 c 2
 654 34 l 2
 660 34 664 38 664 44 c 2
 664 421.052734375 l 2
 664 531.790039062 636.40540252 656.27734375 531.876953125 656.27734375 c 0
 407.722500094 656.27734375 287.617824855 513.337925047 216 433.713867188 c 1
 216 479.473632812 l 1
EndSplineSet
Fore
SplineSet
98 690 m 1
 301 690 l 1
 305 685 308 680 308 673 c 0
 308 667 305.381835938 656 301 656 c 2
 250 656 l 2
 244 656 240 652 240 646 c 2
 240 44 l 2
 240 38 244 34 250 34 c 2
 301 34 l 2
 305.381835938 34 308 23 308 17 c 0
 308 10 305 5 301 0 c 1
 97 0 l 1
 92.625 5 90 12 90 17 c 0
 90 23.375 93.126953125 34 97 34 c 2
 148 34 l 2
 154 34 158 38 158 44 c 2
 158 646 l 2
 158 652 154 656 148 656 c 2
 98 656 l 2
 94.068359375 656 91 666.625 91 673 c 0
 91 678 93.625 685 98 690 c 1
582 690 m 1
 785 690 l 1
 789 685 792 680 792 673 c 0
 792 667 789.381835938 656 785 656 c 2
 734 656 l 2
 728 656 724 652 724 646 c 2
 724 44 l 2
 724 38 728 34 734 34 c 2
 785 34 l 2
 789.381835938 34 792 23 792 17 c 0
 792 10 789 5 785 0 c 1
 581 0 l 1
 576.625 5 574 12 574 17 c 0
 574 23.375 577.126953125 34 581 34 c 2
 632 34 l 2
 638 34 642 38 642 44 c 2
 642 646 l 2
 642 652 638 656 632 656 c 2
 582 656 l 2
 578.068359375 656 575 666.625 575 673 c 0
 575 678 577.625 685 582 690 c 1
210 690 m 1
 674 690 l 1
 674 656 l 1
 210 656 l 1
 210 690 l 1
EndSplineSet
EndChar

StartChar: uni0420.ss01
Encoding: 276 -1 179
Width: 810
VWidth: 0
Flags: HW
LayerCount: 2
Fore
SplineSet
641 335 m 0
 641 528.554501634 550.467196546 643 404 643 c 0
 320.526946108 643 252.766467066 593 240 495 c 1
 240 138 l 1
 257.037362288 80.0946106009 339.795746776 27 421 27 c 0
 584.646041018 27 641 137.448996939 641 335 c 0
158 441 m 2
 158 589.315518584 304.467958539 682 436 682 c 0
 629.543176636 682 740 524.875690388 740 332 c 0
 740 125.518360132 624.504162505 -18 454 -18 c 0
 384.702591437 -18 289.945934835 17.8973037638 240 57 c 1
 240 -235 l 2
 240 -297 l 2
 240 -318 246.967123288 -330.312328767 263 -332 c 2
 301 -336 l 2
 305.37260274 -336.460273973 308 -347 308 -353 c 0
 308 -360 305 -365 301 -370 c 1
 97 -370 l 1
 92.625 -365 90 -358 90 -353 c 0
 90 -346.625 93.134648089 -336.39644635 97 -336 c 2
 136 -332 l 2
 152.03802073 -330.355074797 158 -321 158 -297 c 2
 158 -235 l 2
 158 441 l 2
EndSplineSet
EndChar

StartChar: uni0421.ss01
Encoding: 277 -1 180
Width: 827
VWidth: 0
Flags: HW
LayerCount: 2
Fore
SplineSet
90 340 m 4
 90 589 278 708 444 708 c 4
 521 708 562 692 615 663 c 5
 630.823969427 656.766315074 640.669657661 652.602035177 647.403735576 652.602035177 c 4
 654.713199151 652.602035177 658.356599575 657.508341402 662 670 c 4
 666 683 672 689 678 689 c 4
 686 689 692 684 692 673 c 6
 692 514 l 6
 692 498 685 499 681 499 c 4
 676 499 672 500 667 517 c 4
 641 607 564 674 466 674 c 4
 276 674 187 534 187 355 c 4
 187 168 290 17 472 17 c 4
 558 17 635 81 688 164 c 4
 706 192 724 216 729 216 c 4
 735 216 737 212 737 205 c 4
 737 192 728 169 713 143 c 4
 662 56 580 -18 459 -18 c 4
 220 -18 90 117 90 340 c 4
EndSplineSet
EndChar

StartChar: uni0422.ss01
Encoding: 278 -1 181
Width: 767
VWidth: 0
Flags: HW
LayerCount: 2
Fore
SplineSet
650 735 m 1
 650 735 l 1
 658 735 666.763970556 716.895480703 689 667 c 0
 712.331033595 614.647436812 722.061734411 593.381348546 722.061734411 584.774916333 c 0
 722.061734411 579.467064733 718.360595725 578.9744 711.866048 578.9744 c 0
 710.3856 578.9744 708.76 579 707 579 c 0
 697 579 690 584 690 589 c 0
 690 594 676.907875708 611.913763128 661 629 c 0
 634 658 627 659 529 659 c 2
 434 659 l 1
 428 659 424 655 424 649 c 1
 424 44 l 0
 424 38 428 34 434 34 c 2
 485 34 l 2
 488.954702694 34 492 23 492 17 c 0
 492 10 489 5 485 0 c 1
 281 0 l 1
 276 6 274 12 274 17 c 0
 274 23 276.924163663 34 281 34 c 2
 332 34 l 2
 338 34 342 38 342 44 c 0
 342 649 l 1
 342 655 338 659 332 659 c 1
 242 659 l 2
 140 659 109.563115353 646.540925785 63 590 c 0
 49.8875215598 574.077704751 40.6904460529 566.918777334 35.4845142631 566.918777334 c 0
 32.110035989 566.918777334 30.4124829194 569.926683507 30.4124829194 575.505529414 c 0
 30.4124829194 588.887703606 40.1800856071 617.062886813 60 654 c 0
 82 695 101 729 104 729 c 0
 107 729 116.084634416 720.058713577 123 710 c 0
 129.281680858 700.863009661 163 693 384 693 c 0
 610.505966856 693 615.15057007 695.765018661 634 720 c 0
 641 729 645 735 650 735 c 1
EndSplineSet
EndChar

StartChar: uni0423.ss01
Encoding: 279 -1 182
Width: 890
VWidth: 0
Flags: HW
LayerCount: 2
Fore
SplineSet
66.0498046875 -440.229492188 m 0
 48.6283620485 -432.976244099 39.7296876994 -413.688178328 39.7296876994 -394.341724955 c 0
 39.7296876994 -376.309772653 47.460196727 -358.227097527 63.2255859375 -349.791015625 c 0
 70.2906042347 -346.010514415 77.8810025998 -344.246847503 85.4315080836 -344.246847503 c 0
 107.316642798 -344.246847503 128.866625526 -359.063938938 136.31640625 -382.533203125 c 0
 139.923346747 -393.896254276 147.114660852 -399.149974705 157.026151197 -399.149974705 c 0
 204.933142582 -399.149974705 316.390332753 -276.409774009 393.810546875 -127.546875 c 0
 429.5546875 -58.818359375 458.798828125 7.4111328125 458.798828125 19.62890625 c 0
 458.798828125 31.857421875 437.187898096 82.2674735479 410.763671875 131.655273438 c 0
 384.344726562 181.033203125 314.545826684 319.234820822 255.649414062 438.765625 c 0
 179.500976563 593.309570312 143.040039062 656.092773438 129.42578125 656.092773438 c 0
 102.158203125 656.092773438 74.52734375 668.073242188 74.52734375 679.907226562 c 0
 74.52734375 685.456054688 110.409179688 690 154.264648438 690 c 2
 234 690 l 1
 262.487304688 625.012695312 l 2
 289.824901235 562.648188184 428.723621827 271.0200125 475.750976562 177.258789062 c 0
 490.532355552 147.788277995 499.763509538 129.105833187 509.959721138 129.105833187 c 0
 510.233801156 129.105833187 510.50857849 129.119332472 510.784179688 129.146484375 c 0
 527.9921875 130.841796875 553.991276709 183.798587234 602.860351562 331.249023438 c 0
 625.952148438 400.922851562 640.380146481 440.756171406 661.940429688 508.250976562 c 0
 674.533203125 547.672851562 684.836914062 599.60546875 684.836914062 623.65625 c 0
 684.836914062 666.106445312 683.674804688 667.395507812 645.279296875 667.395507812 c 0
 617.23828125 667.395507812 605.723632812 672.447265625 605.723632812 684.755859375 c 0
 605.723632812 695.959131079 615.664462566 699.886466691 660.990842133 699.886466691 c 0
 674.834526336 699.886466691 691.979071664 699.520114055 713.149414062 698.8828125 c 0
 782.872066075 696.783916142 824.768262009 688.606827697 824.768262009 679.915636578 c 0
 824.768262009 675.646488043 814.659487193 671.253296071 792.774414062 667.395507812 c 0
 753.15234375 660.411132812 753.69378524 661.416881738 689.30078125 475.260742188 c 0
 538.44140625 39.1357421875 381.928455063 -272.009467018 261.48046875 -375.220703125 c 0
 207.380870785 -421.578359652 149.88426064 -447.228140768 103.845605058 -447.228140768 c 0
 90.0925018806 -447.228140768 77.3618985041 -444.939172354 66.0498046875 -440.229492188 c 0
EndSplineSet
EndChar

StartChar: uni0424.ss01
Encoding: 280 -1 183
Width: 847
VWidth: 0
Flags: HW
LayerCount: 2
Fore
SplineSet
597 182 m 0
 645 216 689 299 689 356 c 0
 689 436 642.605368886 517.197315557 583 547 c 0
 557 560 521 570 504 570 c 2
 476 570 l 1
 476 151 l 1
 523 151 l 2
 550 151 581.155670586 170.776933332 597 182 c 0
394 570 m 1
 342 570 l 2
 231 570 172 483 172 357 c 3
 172 289 200.897876462 229.886521124 242 193 c 0
 281 158 304 151 359 151 c 2
 394 151 l 1
 394 570 l 1
340 0 m 0
 333 0 328 11 328 16 c 0
 328 28 339.634504792 35.2626198083 356 40 c 2
 394 51 l 1
 394 104 l 1
 284 120 184.956866554 135.356576376 131 224 c 0
 103 270 90 318 90 364 c 3
 90 486 184 593 325 593 c 2
 394 593 l 1
 394 634 l 1
 389 647 379.840236686 650.183431953 356 660 c 2
 339 667 l 2
 331.103550296 670.25147929 328 677 328 683 c 0
 328 688 333 694 339 694 c 1
 516 694 l 0
 524 694 531 690 531 683 c 0
 531 677 525.692307692 673.538461538 516 668 c 2
 502 660 l 2
 490.369230769 653.353846154 482 646 476 634 c 1
 476 593 l 1
 521 593 l 2
 610.206896552 593 674.738601244 552.477679422 720 486 c 0
 752 439 757 423 757 361 c 0
 757 280 744.351885034 237.672218122 708 199 c 0
 661 149 556 127 476 111 c 1
 476 52 l 1
 508 43 l 2
 528.358371041 37.2742081448 536 21 536 16 c 0
 536 8 532 0 522 0 c 3
 340 0 l 0
EndSplineSet
EndChar

StartChar: uni0425.ss01
Encoding: 281 -1 184
Width: 1000
VWidth: 0
Flags: HW
LayerCount: 2
Fore
SplineSet
165.140625 9.837890625 m 2
 165.140625 18.7099609375 178.321289062 24.72265625 197.794921875 24.72265625 c 0
 241.295898438 24.72265625 258.974609375 41.2236328125 383.734375 198.310546875 c 2
 490.185546875 332.353515625 l 1
 414.611328125 441.305664062 l 2
 281.461550909 633.266145372 276.019781871 646.213521435 243.943825802 646.213521435 c 0
 238.94219822 646.213521435 233.292976471 645.898713808 226.410993461 645.898713808 c 0
 225.776804399 645.898713808 225.132146721 645.901387157 224.4765625 645.907226562 c 0
 189.505859375 646.245117188 176.442382812 650.948242188 176.442382812 663.2890625 c 0
 176.442382812 676.942382812 194.043945312 680.2421875 267.033203125 680.2421875 c 2
 357.624023438 680.2421875 l 1
 448.9453125 541.791992188 l 2
 499.174804688 465.638671875 543.598632812 402.211914062 547.666015625 400.821289062 c 0
 547.831077518 400.765317066 548.015874528 400.737743364 548.219571939 400.737743364 c 0
 553.034091691 400.737743364 568.407201713 416.141618929 583.317382812 436.061523438 c 0
 598.857421875 456.811523438 640.81640625 508.51953125 676.559570312 550.958007812 c 0
 719.702167703 602.185410751 739.681071808 630.915506711 739.681071808 645.342821027 c 0
 739.681071808 654.16451017 732.211354339 657.638671875 718 657.638671875 c 0
 704.168945312 657.638671875 696.411132812 663.458984375 699.197265625 671.766601562 c 0
 702.473632812 681.51953125 732.467773438 685.893554688 796.2578125 685.893554688 c 0
 856.321944244 685.893554688 892.234406419 678.834711816 892.234406419 671.142988267 c 0
 892.234406419 666.374393149 878.431239254 661.362546602 848.022460938 657.638671875 c 0
 804.611328125 652.315429688 795.157226562 643.555664062 685.926757812 507.4453125 c 0
 624.126713512 430.446178794 575.721084365 361.222348679 575.721084365 350.109654533 c 0
 575.721084365 342.72065536 628.078749295 268.209889078 682.782226562 188.602539062 c 2
 783.748046875 41.67578125 l 1
 836.8359375 38.1943359375 l 2
 872.393810868 35.8701339851 888.552479006 30.5087046427 888.552479006 24.7024123946 c 0
 888.552479006 16.1953589203 853.865529802 6.73334202471 794.68359375 4.4697265625 c 2
 708.361328125 1.1806640625 l 1
 610.37109375 148.276367188 l 2
 557.764525824 227.243412562 510.503362913 289.734142531 503.511878137 289.734142531 c 0
 485.734470353 289.734142531 312.067382812 41.4445642041 312.067382812 36.9853515625 c 0
 312.067382812 30.23828125 325.206054688 24.72265625 341.265625 24.72265625 c 0
 357.320370585 24.72265625 366.302999093 20.6919314694 366.302999093 13.7316658064 c 0
 366.302999093 12.7439634306 366.12211349 11.697268103 365.754882812 10.5947265625 c 0
 362.247865034 0.0696953248719 310.301831939 -5.28389637406 260.153524285 -5.28389637406 c 0
 211.811808401 -5.28389637406 165.140625 -0.309082853916 165.140625 9.8037109375 c 2
 165.140625 9.837890625 l 2
EndSplineSet
EndChar

StartChar: uni0426.ss01
Encoding: 282 -1 185
Width: 787
VWidth: 0
Flags: HW
LayerCount: 2
Fore
SplineSet
330 -206.999023438 m 5
 315.625 -212.999023438 295 -203.999023438 295 -191.999023438 c 4
 295 -140.999023438 313.8 -62.9990234375 389 -62.9990234375 c 4
 466.317919075 -62.9990234375 507.011560694 -160.999023438 565 -160.999023438 c 4
 604.267605634 -160.999023438 633 -138.14188058 633 -72.9990234375 c 4
 633 -17.9498431096 572.470588235 0.000976562499995 535 0.0009765625 c 6
 531 0.0009765625 l 5
 531 24.0009765625 l 5
 591 24.0009765625 l 6
 662.436781609 24.0009765625 704 -13.1639718911 704 -78.9990234375 c 4
 704 -133.172577157 649 -193.999023438 553 -193.999023438 c 4
 470.324137931 -193.999023438 434.572413793 -124.999023438 391 -124.999023438 c 4
 333.210526316 -124.999023438 324.649122807 -171.675946514 330 -206.999023438 c 5
487 690 m 1
 690 690 l 1
 694 685 697 680 697 673 c 0
 697 667 694.381630826 656 690 656 c 2
 639 656 l 2
 633 656 629 652 629 646 c 2
 629 500 l 1
 547 500 l 1
 547 646 l 2
 547 652 543 656 537 656 c 2
 487 656 l 2
 483.067929362 656 480 666.625 480 673 c 0
 480 678 482.625 685 487 690 c 1
97 690 m 1
 300 690 l 1
 304 685 307 680 307 673 c 0
 307 667 304.381630826 656 300 656 c 2
 249 656 l 2
 243 656 239 652 239 646 c 2
 239 500 l 1
 157 500 l 1
 157 646 l 2
 157 652 153 656 147 656 c 2
 97 656 l 2
 93.067929362 656 90 666.625 90 673 c 0
 90 678 92.625 685 97 690 c 1
239 500 m 1
 239 50 l 1
 239 44 243 40 249 40 c 1
 537 40 l 1
 543 40 547 44 547 50 c 1
 547 500 l 1
 629 500 l 1
 629 0 l 1
 197 0 l 0
 167 0 157 10 157 40 c 0
 157 500 l 1
 239 500 l 1
EndSplineSet
EndChar

StartChar: uni0427.ss01
Encoding: 283 -1 186
Width: 680
VWidth: 0
Flags: HW
LayerCount: 2
Fore
SplineSet
97 690 m 1
 300 690 l 1
 304 685 307 680 307 673 c 0
 307 667 304.381630826 656 300 656 c 2
 249 656 l 2
 243 656 239 652 239 646 c 2
 239 500 l 1
 157 500 l 1
 157 646 l 2
 157 652 153 656 147 656 c 2
 97 656 l 2
 93.067929362 656 90 666.625 90 673 c 0
 90 678 92.625 685 97 690 c 1
239 500 m 1
 239 449 l 2
 239 409 241.378378378 332 327 332 c 0
 363.235129821 332 428.132556607 361.154235085 440 397 c 1
 475 397 l 1
 475 357 l 1
 440 340 l 1
 413.240054251 328 342.42316074 298 306 298 c 0
 196.078576628 298 157 363.05411316 157 437 c 2
 157 500 l 1
 239 500 l 1
EndSplineSet
Refer: 11 1048 N 1 0 0 1 282 0 2
EndChar

StartChar: uni0428.ss01
Encoding: 284 -1 187
Width: 1069
VWidth: 0
Flags: HW
LayerCount: 2
Fore
SplineSet
769 690 m 1
 972 690 l 1
 976 685 979 680 979 673 c 0
 979 667 976.381630826 656 972 656 c 2
 921 656 l 2
 915 656 911 652 911 646 c 2
 911 500 l 1
 829 500 l 1
 829 646 l 2
 829 652 825 656 819 656 c 2
 769 656 l 2
 765.067929362 656 762 666.625 762 673 c 0
 762 678 764.625 685 769 690 c 1
433 690 m 1
 636 690 l 1
 640 685 643 680 643 673 c 0
 643 667 640.381630826 656 636 656 c 2
 585 656 l 2
 579 656 575 652 575 646 c 2
 575 500 l 1
 493 500 l 1
 493 646 l 2
 493 652 489 656 483 656 c 2
 433 656 l 2
 429.067929362 656 426 666.625 426 673 c 0
 426 678 428.625 685 433 690 c 1
97 690 m 5
 300 690 l 5
 304 685 307 680 307 673 c 4
 307 667 304.381630826 656 300 656 c 6
 249 656 l 6
 243 656 239 652 239 646 c 6
 239 500 l 5
 157 500 l 5
 157 646 l 6
 157 652 153 656 147 656 c 6
 97 656 l 6
 93.067929362 656 90 666.625 90 673 c 4
 90 678 92.625 685 97 690 c 5
239 500 m 1
 239 50 l 1
 239 44 243 40 249 40 c 1
 483 40 l 1
 489 40 493 44 493 50 c 1
 493 500 l 1
 575 500 l 1
 575 50 l 1
 575 44 579 40 585 40 c 1
 819 40 l 1
 825 40 829 44 829 50 c 1
 829 500 l 1
 911 500 l 1
 911 40 l 0
 911 10 901 -3.67381906147e-015 871 0 c 2
 197 0 l 2
 167 0 157 10 157 40 c 0
 157 500 l 1
 239 500 l 1
EndSplineSet
EndChar

StartChar: uni0429.ss01
Encoding: 285 -1 188
Width: 1070
VWidth: 0
Flags: HW
LayerCount: 2
Fore
SplineSet
769 690 m 1
 972 690 l 1
 976 685 979 680 979 673 c 0
 979 667 976.381835938 656 972 656 c 2
 921 656 l 2
 915 656 911 652 911 646 c 2
 911 500 l 1
 829 500 l 1
 829 646 l 2
 829 652 825 656 819 656 c 2
 769 656 l 2
 765.068359375 656 762 666.625 762 673 c 0
 762 678 764.625 685 769 690 c 1
433 690 m 1
 636 690 l 1
 640 685 643 680 643 673 c 0
 643 667 640.381835938 656 636 656 c 2
 585 656 l 2
 579 656 575 652 575 646 c 2
 575 500 l 1
 493 500 l 1
 493 646 l 2
 493 652 489 656 483 656 c 2
 433 656 l 2
 429.068359375 656 426 666.625 426 673 c 0
 426 678 428.625 685 433 690 c 1
97 690 m 1
 300 690 l 1
 304 685 307 680 307 673 c 0
 307 667 304.381835938 656 300 656 c 2
 249 656 l 2
 243 656 239 652 239 646 c 2
 239 500 l 1
 157 500 l 1
 157 646 l 2
 157 652 153 656 147 656 c 2
 97 656 l 2
 93.068359375 656 90 666.625 90 673 c 0
 90 678 92.625 685 97 690 c 1
239 500 m 1
 239 50 l 1
 239 44 243 40 249 40 c 1
 483 40 l 1
 489 40 493 44 493 50 c 1
 493 500 l 1
 575 500 l 1
 575 50 l 1
 575 44 579 40 585 40 c 1
 819 40 l 1
 825 40 829 44 829 50 c 1
 829 500 l 1
 911 500 l 1
 911 0 l 1
 197 0 l 0
 167 0 157 10 157 40 c 0
 157 500 l 1
 239 500 l 1
612 -206.999023438 m 1
 597.625 -212.999023438 577 -203.999023438 577 -191.999023438 c 0
 577 -140.999023438 595.8 -62.9990234375 671 -62.9990234375 c 0
 748.317919075 -62.9990234375 789.011560694 -160.999023438 847 -160.999023438 c 0
 886.267605634 -160.999023438 915 -138.14188058 915 -72.9990234375 c 0
 915 -17.9498431096 854.470588235 0.000976562499995 817 0.0009765625 c 2
 813 0.0009765625 l 1
 813 24.0009765625 l 1
 873 24.0009765625 l 2
 944.436781609 24.0009765625 986 -13.1639718911 986 -78.9990234375 c 0
 986 -133.172577157 931 -193.999023438 835 -193.999023438 c 0
 752.324137931 -193.999023438 716.572413793 -124.999023438 673 -124.999023438 c 0
 615.210526316 -124.999023438 606.649122807 -171.675946514 612 -206.999023438 c 1
EndSplineSet
EndChar

StartChar: uni042A.ss01
Encoding: 286 -1 189
Width: 814
VWidth: 0
Flags: HW
LayerCount: 2
Fore
SplineSet
354 34 m 2
 529 34 646 162 646 324 c 0
 646 509 544 634 391 634 c 0
 338 634 264 600 240 561 c 1
 240 44 l 2
 240 38 244 34 250 34 c 2
 354 34 l 2
240 917 m 2
 240 611 l 1
 277 640 342 676 446 676 c 0
 637 676 744 537 744 336 c 0
 744 165 635 -2.24102962749e-014 452 0 c 2
 97 0 l 1
 93 5 90 12 90 17 c 0
 90 23 93 34 97 34 c 2
 148 34 l 2
 154 34 158 38 158 44 c 2
 158 873 l 1
 75 873 l 2
 63.1448606634 873 49.5536362191 871.929304739 34 864 c 0
 6.44827586207 838 -13 802 -13 777 c 0
 -13 766 -17 760 -23 760 c 0
 -31 760 -44 770 -44 787 c 0
 -44 789 -45 791 -45 793 c 0
 -45 851.379084967 18.9820627803 947 78 947 c 2
 211 947 l 2
 225 947 240 944.875 240 930 c 2
 240 917 l 2
EndSplineSet
EndChar

StartChar: uni042C.ss01
Encoding: 288 -1 191
Width: 814
VWidth: 0
Flags: HW
LayerCount: 2
Fore
SplineSet
354 34 m 6
 528.703395835 34 646 161.619200557 646 324 c 4
 646 509 543.514664856 634.021484375 390.706054688 634.021484375 c 4
 338.08286488 634.021484375 263.655025464 600.425132941 240 561 c 5
 240 44 l 6
 240 38 244 34 250 34 c 4
 354 34 l 6
98 920 m 5
 301 920 l 5
 305 915 308 910 308 903 c 4
 308 897 305.381630826 886 301 886 c 6
 250 886 l 6
 244 886 240 882 240 876 c 6
 240 611.216796875 l 5
 277 639.999734573 342.167228453 676 446 676 c 4
 636.617994999 676 744 537.175452715 744 336 c 4
 744 165.283115356 634.540812449 0 452 0 c 4
 97 0 l 5
 92.625 5 90 12 90 17 c 4
 90 23.375 93.1273320616 34 97 34 c 6
 148 34 l 6
 154 34 158 38 158 44 c 6
 158 876 l 6
 158 882 154 886 148 886 c 6
 98 886 l 6
 94.067929362 886 91 896.625 91 903 c 4
 91 908 93.625 915 98 920 c 5
EndSplineSet
EndChar

